<?xml version="1.0" encoding="UTF-8"?>
<svg version="1.1" xmlns="http://www.w3.org/2000/svg" width="225" height="225">
<path d="M0 0 C74.25 0 148.5 0 225 0 C225 74.25 225 148.5 225 225 C150.75 225 76.5 225 0 225 C0 150.75 0 76.5 0 0 Z " fill="#01ACB3" transform="translate(0,0)"/>
<path d="M0 0 C0.33 0 0.66 0 1 0 C0.99555878 0.78038635 0.99111755 1.56077271 0.98654175 2.36480713 C0.94645647 9.72162594 0.91601127 17.07839174 0.89637566 24.43529129 C0.88594142 28.21748771 0.87178884 31.99959383 0.84912109 35.78173828 C0.82737979 39.43217608 0.81542866 43.08252705 0.81024551 46.7330246 C0.80655206 48.12527584 0.79933966 49.51752238 0.78853989 50.90973663 C0.77400874 52.86067567 0.77318294 54.81170218 0.77294922 56.76269531 C0.768508 57.8730011 0.76406677 58.98330688 0.75949097 60.1272583 C0.99903133 62.98842985 1.38930224 64.64098166 3 67 C5.40404738 67.91599427 5.40404738 67.91599427 8.125 68.25 C10.538125 68.62125 10.538125 68.62125 13 69 C13 65.7 13 62.4 13 59 C9.37 59 5.74 59 2 59 C2 41.84 2 24.68 2 7 C13.22 7 24.44 7 36 7 C36 24.16 36 41.32 36 59 C31.38 59 26.76 59 22 59 C22 62.3 22 65.6 22 69 C28.52530352 69.00358883 28.52530352 69.00358883 34.12701416 66.30010986 C36.406953 63.50024363 36.51251831 62.16054042 36.54589844 58.58886719 C36.56561707 57.50804871 36.58533569 56.42723022 36.60565186 55.31365967 C36.60749481 53.57285126 36.60749481 53.57285126 36.609375 51.796875 C36.62591125 50.60394836 36.64244751 49.41102173 36.65948486 48.1819458 C36.7080753 44.3712454 36.72936138 40.5609444 36.75 36.75 C36.77815027 34.16664645 36.80807635 31.5833116 36.83984375 29 C36.91383747 22.66673944 36.96541527 16.33359172 37 10 C38.32 10 39.64 10 41 10 C41 10.66 41 11.32 41 12 C41.928125 12.433125 41.928125 12.433125 42.875 12.875 C45.96150025 14.50902954 46.86953555 15.6282994 48.03515625 18.94921875 C50.25886112 27.04079882 51.35290331 34.3352551 51.73046875 42.73828125 C52.20501167 48.48093836 54.28664837 52.5793433 58 57 C59.32 56.67 60.64 56.34 62 56 C62.99 57.98 62.99 57.98 64 60 C60.43818377 62.27190719 56.87542744 64.54233594 53.3125 66.8125 C52.30509766 67.45509766 51.29769531 68.09769531 50.25976562 68.75976562 C49.28330078 69.38173828 48.30683594 70.00371094 47.30078125 70.64453125 C46.40528564 71.21534424 45.50979004 71.78615723 44.5871582 72.37426758 C43.733396 72.91075928 42.87963379 73.44725098 42 74 C41.10692139 74.56420654 40.21384277 75.12841309 39.29370117 75.7097168 C37 77 37 77 35 77 C38.44319224 83.3430725 42.10938958 89.50780691 45.9375 95.625 C47.07747248 97.45792951 48.21676936 99.29127933 49.35546875 101.125 C50.24177979 102.55199219 50.24177979 102.55199219 51.14599609 104.0078125 C54.36490136 109.20282211 57.56187082 114.41105894 60.75 119.625 C61.35835693 120.6145166 61.96671387 121.6040332 62.59350586 122.62353516 C63.15561768 123.54440918 63.71772949 124.4652832 64.296875 125.4140625 C64.79541992 126.2282666 65.29396484 127.0424707 65.80761719 127.88134766 C67 130 67 130 68 133 C66.68 133 65.36 133 64 133 C62.73901367 131.61401367 62.73901367 131.61401367 61.66796875 129.66796875 C61.06456665 128.60219604 61.06456665 128.60219604 60.44897461 127.51489258 C59.82454468 126.36283325 59.82454468 126.36283325 59.1875 125.1875 C58.29833413 123.61115523 57.40770834 122.03563306 56.515625 120.4609375 C56.08443359 119.69104492 55.65324219 118.92115234 55.20898438 118.12792969 C52.657297 113.63671257 49.81300918 109.33006872 47 105 C45.83389393 103.20040912 44.66908145 101.40000293 43.50610352 99.59838867 C42.73771721 98.4084822 41.9675144 97.21974576 41.19506836 96.0324707 C36.66719508 89.02964615 32.42770654 82.32828813 31 74 C31.66 74 32.32 74 33 74 C32.67 73.34 32.34 72.68 32 72 C29.87423218 71.53348793 29.87423218 71.53348793 27.4375 71.375 C26.61121094 71.30023438 25.78492188 71.22546875 24.93359375 71.1484375 C23.97646484 71.07496094 23.97646484 71.07496094 23 71 C23.495 74.465 23.495 74.465 24 78 C24.99 78.33 25.98 78.66 27 79 C27.68486725 80.32407669 28.34870203 81.65909241 29 83 C30.29470975 84.37086915 31.62150897 85.71340837 33 87 C27.59301015 104.32694476 27.59301015 104.32694476 21 110 C20.41605469 110.515625 19.83210938 111.03125 19.23046875 111.5625 C16.55971431 113.90151863 13.96030891 116.02646072 11 118 C11.33 119.65 11.66 121.3 12 123 C9.31693904 124.05405966 8.24879711 124.09937642 5.52636719 123.01196289 C4.62563477 122.5039917 3.72490234 121.99602051 2.796875 121.47265625 C1.8171875 120.92802734 0.8375 120.38339844 -0.171875 119.82226562 C-1.69554688 118.95118164 -1.69554688 118.95118164 -3.25 118.0625 C-4.28125 117.48564453 -5.3125 116.90878906 -6.375 116.31445312 C-8.92300581 114.88709802 -11.46408214 113.44868897 -14 112 C-13.67 110.68 -13.34 109.36 -13 108 C-12.34 108 -11.68 108 -11 108 C-11.33 107.21625 -11.66 106.4325 -12 105.625 C-14.44354911 96.76713447 -13.24991752 86.52964702 -10 78 C-6.10654351 75.0020385 -1.59114703 73.63413708 3 72 C2.175 71.46375 1.35 70.9275 0.5 70.375 C-1.85801717 68.10997505 -2.01082522 66.88754503 -2.33203125 63.55078125 C-2.31419358 60.02249034 -2.21443773 56.52154408 -2 53 C-3.32 52.67 -4.64 52.34 -6 52 C-5.625 49.0625 -5.625 49.0625 -5 46 C-4.01 45.505 -4.01 45.505 -3 45 C-4.32 44.67 -5.64 44.34 -7 44 C-7.125 38.25 -7.125 38.25 -6 36 C-4.515 35.505 -4.515 35.505 -3 35 C-2.67 34.34 -2.34 33.68 -2 33 C-2.61875 33.185625 -3.2375 33.37125 -3.875 33.5625 C-6 34 -6 34 -8 33 C-8.36625971 28.48279689 -8.36625971 28.48279689 -6.625 26.1875 C-5 25 -5 25 -3 25 C-3 24.34 -3 23.68 -3 23 C-4.65 22.67 -6.3 22.34 -8 22 C-8 20.35 -8 18.7 -8 17 C-7.01 16.67 -6.02 16.34 -5 16 C-5 15.34 -5 14.68 -5 14 C-4.34 13.67 -3.68 13.34 -3 13 C-2.60741061 10.47907827 -2.60741061 10.47907827 -2.5 7.5625 C-2.22145805 2.22145805 -2.22145805 2.22145805 0 0 Z " fill="#F5C690" transform="translate(93,92)"/>
<path d="M0 0 C3.41614528 1.13871509 3.60522327 1.54410353 5.26953125 4.53515625 C5.68058105 5.25840088 6.09163086 5.98164551 6.51513672 6.72680664 C7.15733154 7.88297485 7.15733154 7.88297485 7.8125 9.0625 C10.83067163 14.36376006 13.84216355 19.40958165 17.67041016 24.17504883 C18.96503191 25.95200395 19.87450419 27.64777234 20.80078125 29.63671875 C23.12940705 34.40285111 25.93889962 38.79773241 28.8125 43.25 C42 63.91941242 42 63.91941242 42 67 C42.66 67 43.32 67 44 67 C44.99 69.31 45.98 71.62 47 74 C11.32622514 78.31031469 11.32622514 78.31031469 2.08825684 72.87524414 C-4.92377904 67.00906859 -8.34020465 57.77356637 -11.57714844 49.46630859 C-13.46004257 44.87925799 -15.92914681 40.91128455 -18.6875 36.8125 C-19.45236301 35.5983292 -20.21430284 34.3823097 -20.97265625 33.1640625 C-23.245703 29.6165329 -25.59720195 26.13266356 -28.0390625 22.69921875 C-29 21 -29 21 -29 18 C-26.81509969 16.47607793 -24.69239401 15.16828455 -22.375 13.875 C-21.00119907 13.08577414 -19.62883739 12.29403853 -18.2578125 11.5 C-17.55301758 11.09265625 -16.84822266 10.6853125 -16.12207031 10.265625 C-14.03785108 9.02257478 -12.01212126 7.71962158 -9.9921875 6.375 C-9.3626416 5.95621582 -8.7330957 5.53743164 -8.08447266 5.10595703 C-6.8785377 4.29675766 -5.67749654 3.48020819 -4.48193359 2.65576172 C-3.0364368 1.69337752 -1.52177991 0.83655857 0 0 Z " fill="#1A1A1A" transform="translate(157,151)"/>
<path d="M0 0 C2.97 0 5.94 0 9 0 C9.495 1.485 9.495 1.485 10 3 C9.34 3 8.68 3 8 3 C8.28875 3.721875 8.5775 4.44375 8.875 5.1875 C9.55500929 6.88752322 10.21885155 8.59431246 10.8515625 10.3125 C12.1507633 13.35280664 13.74452791 16.01021976 15.5 18.8125 C15.84820801 19.37163086 16.19641602 19.93076172 16.55517578 20.50683594 C18.09276486 22.97266571 19.64178768 25.43123877 21.19042969 27.89013672 C26.07307868 35.64435172 30.89915885 43.42380781 35.5625 51.3125 C35.99224121 52.03598633 36.42198242 52.75947266 36.86474609 53.50488281 C38.51216367 56.30970997 39.96823885 58.90471655 41 62 C10.64 62 -19.72 62 -51 62 C-48.36 57.05 -45.72 52.1 -43 47 C-42.01 47 -41.02 47 -40 47 C-40 47.66 -40 48.32 -40 49 C-39.34 49 -38.68 49 -38 49 C-38 47.68 -38 46.36 -38 45 C-37.34 45 -36.68 45 -36 45 C-36 44.34 -36 43.68 -36 43 C-37.32 43 -38.64 43 -40 43 C-39.67 42.01 -39.34 41.02 -39 40 C-32.55069863 41.80705063 -27.11706427 45.20724328 -21.36914062 48.54296875 C-20.59376953 48.98511719 -19.81839844 49.42726562 -19.01953125 49.8828125 C-18.31932861 50.28902832 -17.61912598 50.69524414 -16.89770508 51.11376953 C-14.89604025 52.21156716 -14.89604025 52.21156716 -12 52 C-12.33 50.35 -12.66 48.7 -13 47 C-12.40832031 46.56429687 -11.81664062 46.12859375 -11.20703125 45.6796875 C-5.72753579 41.55326676 -5.72753579 41.55326676 -1.0625 36.5625 C-0.381875 35.716875 0.29875 34.87125 1 34 C1.66 34 2.32 34 3 34 C3.18175781 33.45472656 3.36351562 32.90945312 3.55078125 32.34765625 C3.92783203 31.21650391 3.92783203 31.21650391 4.3125 30.0625 C4.57675781 29.24265625 4.84101562 28.4228125 5.11328125 27.578125 C6 25 6 25 7.04296875 22.609375 C7.98534686 20.34766754 8.72509131 18.43752375 9 16 C7.71053249 13.35319826 6.20550426 12.05512897 4 10 C3.505 9.01 3.505 9.01 3 8 C2.01 8 1.02 8 0 8 C0 5.36 0 2.72 0 0 Z " fill="#03ACB3" transform="translate(116,163)"/>
<path d="M0 0 C11.22 0 22.44 0 34 0 C34 17.16 34 34.32 34 52 C29.38 52 24.76 52 20 52 C19.34 49.36 18.68 46.72 18 44 C15.03 44.495 15.03 44.495 12 45 C11.34 47.31 10.68 49.62 10 52 C6.7 52 3.4 52 0 52 C0 34.84 0 17.68 0 0 Z " fill="#FCFCFB" transform="translate(95,99)"/>
<path d="M0 0 C3.41614528 1.13871509 3.60522327 1.54410353 5.26953125 4.53515625 C5.68058105 5.25840088 6.09163086 5.98164551 6.51513672 6.72680664 C6.9432666 7.49758545 7.37139648 8.26836426 7.8125 9.0625 C10.83067163 14.36376006 13.84216355 19.40958165 17.67041016 24.17504883 C18.96503191 25.95200395 19.87450419 27.64777234 20.80078125 29.63671875 C23.12940705 34.40285111 25.93889962 38.79773241 28.8125 43.25 C42 63.91941242 42 63.91941242 42 67 C42.66 67 43.32 67 44 67 C44.99 69.31 45.98 71.62 47 74 C40.73 74 34.46 74 28 74 C27.34 72.35 26.68 70.7 26 69 C25.34 69 24.68 69 24 69 C21.56839395 65.63316085 21 64.26649636 21 60 C20.34 60 19.68 60 19 60 C19 59.01 19 58.02 19 57 C18.34 57 17.68 57 17 57 C15.53515625 54.31445312 15.53515625 54.31445312 14.0703125 51.62890625 C13.08589976 49.83381685 13.08589976 49.83381685 11 49 C11 47.35 11 45.7 11 44 C9.515 43.505 9.515 43.505 8 43 C6.31640625 40.48828125 6.31640625 40.48828125 4.5625 37.3125 C1.73795535 32.26461108 1.73795535 32.26461108 -1.4375 27.4375 C-3 25 -3 25 -3 22 C-3.66 22 -4.32 22 -5 22 C-5 21.01 -5 20.02 -5 19 C-5.66 19 -6.32 19 -7 19 C-7.67154933 17.71086513 -8.33708859 16.41859796 -9 15.125 C-9.37125 14.40570313 -9.7425 13.68640625 -10.125 12.9453125 C-11 11 -11 11 -11 9 C-11.66 8.67 -12.32 8.34 -13 8 C-10.90320896 6.63304778 -8.7989062 5.28153009 -6.6875 3.9375 C-6.09259766 3.54755859 -5.49769531 3.15761719 -4.88476562 2.75585938 C-3.30390365 1.75788505 -1.65405288 0.87131304 0 0 Z " fill="#323333" transform="translate(157,151)"/>
<path d="M0 0 C0.98355469 0.42023437 1.96710938 0.84046875 2.98046875 1.2734375 C5.72419789 2.58285858 8.30176685 3.90833785 10.8125 5.625 C10.8125 6.285 10.8125 6.945 10.8125 7.625 C9.8225 7.625 8.8325 7.625 7.8125 7.625 C7.8125 8.285 7.8125 8.945 7.8125 9.625 C7.1525 9.625 6.4925 9.625 5.8125 9.625 C5.8125 15.235 5.8125 20.845 5.8125 26.625 C6.8025 26.955 7.7925 27.285 8.8125 27.625 C8.8125 28.285 8.8125 28.945 8.8125 29.625 C11.7825 30.12 11.7825 30.12 14.8125 30.625 C14.8125 31.285 14.8125 31.945 14.8125 32.625 C-2.6775 32.625 -20.1675 32.625 -38.1875 32.625 C-38.1875 31.965 -38.1875 31.305 -38.1875 30.625 C-34.7225 30.13 -34.7225 30.13 -31.1875 29.625 C-30.8575 23.355 -30.5275 17.085 -30.1875 10.625 C-31.1775 10.625 -32.1675 10.625 -33.1875 10.625 C-33.1875 9.965 -33.1875 9.305 -33.1875 8.625 C-33.8475 8.625 -34.5075 8.625 -35.1875 8.625 C-35.1875 7.635 -35.1875 6.645 -35.1875 5.625 C-31.86792706 4.07277562 -28.53017446 2.56424894 -25.1875 1.0625 C-24.25292969 0.62486328 -23.31835938 0.18722656 -22.35546875 -0.26367188 C-13.83517553 -4.04715873 -8.65277888 -3.77201721 0 0 Z " fill="#B3C8CB" transform="translate(89.1875,34.375)"/>
<path d="M0 0 C0.99 0.33 1.98 0.66 3 1 C3 1.66 3 2.32 3 3 C3.61875 3.28875 4.2375 3.5775 4.875 3.875 C7.96150025 5.50902954 8.86953555 6.6282994 10.03515625 9.94921875 C12.25886112 18.04079882 13.35290331 25.3352551 13.73046875 33.73828125 C14.20501167 39.48093836 16.28664837 43.5793433 20 48 C21.98 47.505 21.98 47.505 24 47 C24.66 48.32 25.32 49.64 26 51 C22.43818377 53.27190719 18.87542744 55.54233594 15.3125 57.8125 C14.30509766 58.45509766 13.29769531 59.09769531 12.25976562 59.75976562 C10.79506836 60.69272461 10.79506836 60.69272461 9.30078125 61.64453125 C8.40528564 62.21534424 7.50979004 62.78615723 6.5871582 63.37426758 C5.733396 63.91075928 4.87963379 64.44725098 4 65 C2.66038208 65.84630981 2.66038208 65.84630981 1.29370117 66.7097168 C-1 68 -1 68 -3 68 C0.44319224 74.3430725 4.10938958 80.50780691 7.9375 86.625 C9.07747248 88.45792951 10.21676936 90.29127933 11.35546875 92.125 C12.24177979 93.55199219 12.24177979 93.55199219 13.14599609 95.0078125 C16.36490136 100.20282211 19.56187082 105.41105894 22.75 110.625 C23.35835693 111.6145166 23.96671387 112.6040332 24.59350586 113.62353516 C25.15561768 114.54440918 25.71772949 115.4652832 26.296875 116.4140625 C26.79541992 117.2282666 27.29396484 118.0424707 27.80761719 118.88134766 C29 121 29 121 30 124 C28.68 124 27.36 124 26 124 C24.73901367 122.61401367 24.73901367 122.61401367 23.66796875 120.66796875 C23.26570068 119.95745361 22.86343262 119.24693848 22.44897461 118.51489258 C22.03268799 117.74685303 21.61640137 116.97881348 21.1875 116.1875 C20.29833413 114.61115523 19.40770834 113.03563306 18.515625 111.4609375 C18.08443359 110.69104492 17.65324219 109.92115234 17.20898438 109.12792969 C14.657297 104.63671257 11.81300918 100.33006872 9 96 C7.83389393 94.20040912 6.66908145 92.40000293 5.50610352 90.59838867 C4.73771721 89.4084822 3.9675144 88.21974576 3.19506836 87.0324707 C-1.33280492 80.02964615 -5.57229346 73.32828813 -7 65 C-6.34 65 -5.68 65 -5 65 C-5.33 64.34 -5.66 63.68 -6 63 C-8.12576782 62.53348793 -8.12576782 62.53348793 -10.5625 62.375 C-11.38878906 62.30023438 -12.21507813 62.22546875 -13.06640625 62.1484375 C-13.70449219 62.09945312 -14.34257813 62.05046875 -15 62 C-15 61.34 -15 60.68 -15 60 C-14.09507813 59.96132812 -14.09507813 59.96132812 -13.171875 59.921875 C-12.37265625 59.86515625 -11.5734375 59.8084375 -10.75 59.75 C-9.96109375 59.70359375 -9.1721875 59.6571875 -8.359375 59.609375 C-5.20636418 58.79502121 -4.05414988 57.50454392 -2 55 C-1.39524556 52.43601296 -1.39524556 52.43601296 -1.4699707 49.60473633 C-1.45347977 48.52714554 -1.43698883 47.44955475 -1.41999817 46.33930969 C-1.42286079 44.60320686 -1.42286079 44.60320686 -1.42578125 42.83203125 C-1.41161667 41.64147629 -1.39745209 40.45092133 -1.38285828 39.22428894 C-1.34089579 35.42026743 -1.3257016 31.61672064 -1.3125 27.8125 C-1.28349716 23.99778808 -1.24902166 20.18319828 -1.21000671 16.36857605 C-1.18742283 13.99372365 -1.17166257 11.61879528 -1.16316223 9.24385071 C-1.15612778 8.1757164 -1.14909332 7.10758209 -1.1418457 6.00708008 C-1.13662651 4.58955193 -1.13662651 4.58955193 -1.13130188 3.14338684 C-1 1 -1 1 0 0 Z " fill="#F5C691" transform="translate(131,101)"/>
<path d="M0 0 C2.4845467 0.08101783 3.80355313 0.17049688 6 1.375 C7.62519287 4.33858699 7.88607605 6.96044489 8.0625 10.3125 C7.10607118 13.10821502 6.70951022 13.98899489 4.0625 15.3125 C7.0325 15.6425 10.0025 15.9725 13.0625 16.3125 C13.0625 16.9725 13.0625 17.6325 13.0625 18.3125 C12.4025 18.3125 11.7425 18.3125 11.0625 18.3125 C11.0625 19.9625 11.0625 21.6125 11.0625 23.3125 C10.0725 23.6425 9.0825 23.9725 8.0625 24.3125 C8.0625 25.3025 8.0625 26.2925 8.0625 27.3125 C-5.7975 27.3125 -19.6575 27.3125 -33.9375 27.3125 C-33.9375 25.9925 -33.9375 24.6725 -33.9375 23.3125 C-32.9475 23.3125 -31.9575 23.3125 -30.9375 23.3125 C-30.9375 21.9925 -30.9375 20.6725 -30.9375 19.3125 C-28.2975 19.3125 -25.6575 19.3125 -22.9375 19.3125 C-23.4325 16.8375 -23.4325 16.8375 -23.9375 14.3125 C-24.9275 13.9825 -25.9175 13.6525 -26.9375 13.3125 C-26.9375 12.6525 -26.9375 11.9925 -26.9375 11.3125 C-26.2775 11.3125 -25.6175 11.3125 -24.9375 11.3125 C-24.9375 10.3225 -24.9375 9.3325 -24.9375 8.3125 C-25.5975 8.3125 -26.2575 8.3125 -26.9375 8.3125 C-27.15365967 8.82224365 -27.36981934 9.3319873 -27.5925293 9.85717773 C-28.58378134 12.16378042 -29.60383106 14.45649489 -30.625 16.75 C-30.96466797 17.55244141 -31.30433594 18.35488281 -31.65429688 19.18164062 C-34.29985515 25.04142859 -34.29985515 25.04142859 -37.51953125 26.41015625 C-39.9375 26.3125 -39.9375 26.3125 -42.9375 25.3125 C-42.36368607 20.62281082 -41.03679045 16.9403583 -39 12.6875 C-38.47535156 11.58148438 -37.95070312 10.47546875 -37.41015625 9.3359375 C-36.26625922 6.98745925 -35.11480382 4.64435781 -33.9375 2.3125 C-31.6275 2.3125 -29.3175 2.3125 -26.9375 2.3125 C-26.6075 3.6325 -26.2775 4.9525 -25.9375 6.3125 C-20.9875 6.3125 -16.0375 6.3125 -10.9375 6.3125 C-10.9375 6.9725 -10.9375 7.6325 -10.9375 8.3125 C-8.18032298 6.93391149 -7.47428254 4.93783685 -5.9375 2.3125 C-3.9375 0.3125 -3.9375 0.3125 0 0 Z " fill="#F5C218" transform="translate(170.9375,39.6875)"/>
<path d="M0 0 C1.2478125 -0.01417969 2.495625 -0.02835938 3.78125 -0.04296875 C7.65601422 0.19716895 10.85644294 0.85593722 14.5 2.1875 C17.93499805 8.01206191 17.17544737 16.74737536 15.9375 23.25 C14.5 26.1875 14.5 26.1875 10.875 27.625 C9.76125 27.810625 8.6475 27.99625 7.5 28.1875 C8.16 28.8475 8.82 29.5075 9.5 30.1875 C4.88 30.1875 0.26 30.1875 -4.5 30.1875 C-4.5 30.8475 -4.5 31.5075 -4.5 32.1875 C-6.15 32.1875 -7.8 32.1875 -9.5 32.1875 C-9.5 31.5275 -9.5 30.8675 -9.5 30.1875 C-10.304375 30.043125 -11.10875 29.89875 -11.9375 29.75 C-14.5 29.1875 -14.5 29.1875 -15.5 28.1875 C-15.59962237 26.35764378 -15.63080452 24.52397122 -15.6328125 22.69140625 C-15.63410156 21.57572266 -15.63539062 20.46003906 -15.63671875 19.31054688 C-15.63285156 18.13556641 -15.62898437 16.96058594 -15.625 15.75 C-15.62886719 14.57888672 -15.63273438 13.40777344 -15.63671875 12.20117188 C-15.63542969 11.08419922 -15.63414063 9.96722656 -15.6328125 8.81640625 C-15.63168457 7.78588135 -15.63055664 6.75535645 -15.62939453 5.69360352 C-15.5 3.1875 -15.5 3.1875 -14.5 1.1875 C-9.66615234 0.22927515 -4.91853596 0.02540566 0 0 Z " fill="#576C76" transform="translate(25.5,135.8125)"/>
<path d="M0 0 C11.55 0 23.1 0 35 0 C35 7.92 35 15.84 35 24 C23.45 24 11.9 24 0 24 C0 16.08 0 8.16 0 0 Z " fill="#EDB832" transform="translate(13,88)"/>
<path d="M0 0 C3.71888239 0.50712033 6.73454239 1.11608215 10 3 C9 6 9 6 6 8 C7.0725 7.979375 8.145 7.95875 9.25 7.9375 C12.14790424 7.9857984 14.28612141 8.13155885 17 9 C17.33 8.34 17.66 7.68 18 7 C19.32 7.66 20.64 8.32 22 9 C22 8.34 22 7.68 22 7 C22.66 7 23.32 7 24 7 C24 14.59 24 22.18 24 30 C21.12981559 31.43509221 18.66456277 31.11158506 15.4609375 31.09765625 C14.15898437 31.09443359 12.85703125 31.09121094 11.515625 31.08789062 C10.13541601 31.07953466 8.75520768 31.07106971 7.375 31.0625 C5.98698074 31.05748501 4.59895978 31.0529221 3.2109375 31.04882812 C-0.19272673 31.03700985 -3.5963687 31.0190739 -7 31 C-7 23.08 -7 15.16 -7 7 C-5.35 6.67 -3.7 6.34 -2 6 C-1.34 4.02 -0.68 2.04 0 0 Z " fill="#A26732" transform="translate(191,136)"/>
<path d="M0 0 C2.04829351 -0.01718002 4.09495861 -0.06104387 6.14282227 -0.10522461 C7.43381836 -0.11360352 8.72481445 -0.12198242 10.05493164 -0.13061523 C11.83637573 -0.15248901 11.83637573 -0.15248901 13.65380859 -0.17480469 C17.47636675 0.40464444 18.40023936 1.28107117 20.75415039 4.29516602 C21.26881409 7.13426208 21.26881409 7.13426208 21.28759766 10.453125 C21.30343399 11.69799179 21.31927032 12.94285858 21.33558655 14.22544861 C21.33174479 15.58072281 21.32670559 16.93599407 21.32055664 18.29125977 C21.32579355 19.68604446 21.33207028 21.08082561 21.33934021 22.4756012 C21.34974116 25.39682699 21.34518865 28.31756559 21.33056641 31.23876953 C21.31338699 34.97615574 21.33686188 38.71200331 21.37205601 42.4492178 C21.39405494 45.32927064 21.39258264 48.2089568 21.3842907 51.08906746 C21.38347234 52.46654001 21.39031374 53.8440398 21.40506172 55.22143364 C21.42254608 57.15015865 21.40462276 59.0791055 21.38525391 61.0078125 C21.38429214 62.10383286 21.38333038 63.19985321 21.38233948 64.3290863 C20.54798065 68.26862433 18.83455158 69.78943678 15.75415039 72.29516602 C13.07836914 72.78344727 13.07836914 72.78344727 10.44165039 72.60766602 C8.89477539 72.50454102 7.34790039 72.40141602 5.75415039 72.29516602 C5.75415039 68.99516602 5.75415039 65.69516602 5.75415039 62.29516602 C10.37415039 62.29516602 14.99415039 62.29516602 19.75415039 62.29516602 C19.75415039 45.13516602 19.75415039 27.97516602 19.75415039 10.29516602 C8.53415039 10.29516602 -2.68584961 10.29516602 -14.24584961 10.29516602 C-14.24584961 27.45516602 -14.24584961 44.61516602 -14.24584961 62.29516602 C-10.61584961 62.29516602 -6.98584961 62.29516602 -3.24584961 62.29516602 C-3.24584961 65.59516602 -3.24584961 68.89516602 -3.24584961 72.29516602 C-10.6078128 72.78596356 -10.6078128 72.78596356 -13.68334961 70.42016602 C-16.19414998 67.00547751 -16.3783918 65.0623775 -16.40698242 60.85498047 C-16.41658997 59.71652176 -16.42619751 58.57806305 -16.43609619 57.40510559 C-16.44034607 56.16870834 -16.44459595 54.9323111 -16.44897461 53.65844727 C-16.45467468 52.39050827 -16.46037476 51.12256927 -16.46624756 49.81620789 C-16.47571028 47.12694713 -16.48260006 44.43779829 -16.48608398 41.74853516 C-16.49155031 38.31659633 -16.51553666 34.88505796 -16.54405594 31.45324421 C-16.56726798 28.1675092 -16.56913862 24.88175276 -16.57397461 21.59594727 C-16.58632141 20.36967117 -16.59866821 19.14339508 -16.61138916 17.87995911 C-16.57371574 3.39079996 -14.4048818 0.08427931 0 0 Z " fill="#050306" transform="translate(109.245849609375,88.704833984375)"/>
<path d="M0 0 C4.95 0 9.9 0 15 0 C15.74126981 4.44761883 16.11874968 8.06256771 16.09765625 12.4921875 C16.09443359 13.69101563 16.09121094 14.88984375 16.08789062 16.125 C16.07951172 17.3625 16.07113281 18.6 16.0625 19.875 C16.05798828 21.13570312 16.05347656 22.39640625 16.04882812 23.6953125 C16.0370797 26.79689545 16.01914535 29.89845388 16 33 C10.39 33 4.78 33 -1 33 C-1.02293649 28.62167956 -1.04285548 24.24356699 -1.05493164 19.86523438 C-1.05996514 18.37531834 -1.06679242 16.88540726 -1.07543945 15.39550781 C-1.08754805 13.25584696 -1.09323807 11.11625132 -1.09765625 8.9765625 C-1.10289307 7.68830566 -1.10812988 6.40004883 -1.11352539 5.07275391 C-1 2 -1 2 0 0 Z " fill="#3F3E38" transform="translate(189,83)"/>
<path d="M0 0 C5.86728987 1.65412816 10.98961324 4.47507603 16.3125 7.375 C17.69018555 8.09816406 17.69018555 8.09816406 19.09570312 8.8359375 C20.4037793 9.5475 20.4037793 9.5475 21.73828125 10.2734375 C22.53274658 10.70060059 23.32721191 11.12776367 24.14575195 11.56787109 C26 13 26 13 26.95385742 14.85791016 C27.02543825 18.18092691 26.23029706 19.54643683 24 22 C21.07880063 22.45487834 18.74486333 22.58565495 15.83203125 22.48828125 C14.63981209 22.47766914 14.63981209 22.47766914 13.42350769 22.46684265 C10.88554639 22.43885874 8.34979393 22.3761184 5.8125 22.3125 C4.09182875 22.28742205 2.3711229 22.26460799 0.65039062 22.24414062 C-3.567941 22.19326832 -7.78149993 22.09544118 -12 22 C-9.36 17.05 -6.72 12.1 -4 7 C-3.01 7 -2.02 7 -1 7 C-1 7.66 -1 8.32 -1 9 C-0.34 9 0.32 9 1 9 C1 7.68 1 6.36 1 5 C1.66 5 2.32 5 3 5 C3 4.34 3 3.68 3 3 C1.68 3 0.36 3 -1 3 C-0.67 2.01 -0.34 1.02 0 0 Z " fill="#1A1A1A" transform="translate(77,203)"/>
<path d="M0 0 C4.29 0 8.58 0 13 0 C14.59412284 3.18824568 14.10174735 6.62896662 14.0625 10.125 C14.05798828 10.87910156 14.05347656 11.63320313 14.04882812 12.41015625 C14.03703499 14.27347127 14.01909942 16.13674555 14 18 C14.763125 17.814375 15.52625 17.62875 16.3125 17.4375 C19 17 19 17 22 18 C22 18.66 22 19.32 22 20 C9.13 20 -3.74 20 -17 20 C-16.505 18.515 -16.505 18.515 -16 17 C-15.77202438 14.26710707 -15.58331813 11.54957796 -15.4375 8.8125 C-15.39431641 8.06291016 -15.35113281 7.31332031 -15.30664062 6.54101562 C-15.20077315 4.69421625 -15.0999024 2.84713166 -15 1 C-13.68 1 -12.36 1 -11 1 C-10.67 6.28 -10.34 11.56 -10 17 C-7.03 17.33 -4.06 17.66 -1 18 C-1.01160156 16.86820313 -1.02320312 15.73640625 -1.03515625 14.5703125 C-1.04453454 13.08854331 -1.0536347 11.60677235 -1.0625 10.125 C-1.07087891 9.37863281 -1.07925781 8.63226563 -1.08789062 7.86328125 C-1.11328125 2.2265625 -1.11328125 2.2265625 0 0 Z " fill="#D5D0CA" transform="translate(76,44)"/>
<path d="M0 0 C10.89 0 21.78 0 33 0 C33 7.59 33 15.18 33 23 C32.34 22.67 31.68 22.34 31 22 C30.505 17.05 30.505 17.05 30 12 C21.42 12 12.84 12 4 12 C3.67 13.98 3.34 15.96 3 18 C2.01 18 1.02 18 0 18 C0 12.06 0 6.12 0 0 Z " fill="#FDFDFD" transform="translate(95,99)"/>
<path d="M0 0 C1.31871094 -0.00386719 1.31871094 -0.00386719 2.6640625 -0.0078125 C3.57929687 -0.00007813 4.49453125 0.00765625 5.4375 0.015625 C6.35273437 0.00789063 7.26796875 0.00015625 8.2109375 -0.0078125 C9.09007813 -0.00523438 9.96921875 -0.00265625 10.875 0 C11.67808594 0.00225586 12.48117188 0.00451172 13.30859375 0.00683594 C15.4375 0.265625 15.4375 0.265625 18.4375 2.265625 C18.8359375 4.76171875 18.8359375 4.76171875 18.8125 7.703125 C18.82023437 8.67121094 18.82796875 9.63929687 18.8359375 10.63671875 C18.36996097 13.71125015 17.85562381 14.39652597 15.4375 16.265625 C13.30859375 16.65380859 13.30859375 16.65380859 10.875 16.6640625 C9.99585937 16.66792969 9.11671875 16.67179687 8.2109375 16.67578125 C7.29570313 16.66417969 6.38046875 16.65257813 5.4375 16.640625 C4.06464844 16.65802734 4.06464844 16.65802734 2.6640625 16.67578125 C1.78492187 16.67191406 0.90578125 16.66804688 0 16.6640625 C-1.20462891 16.65898682 -1.20462891 16.65898682 -2.43359375 16.65380859 C-5.072191 16.17268822 -5.9601471 15.38453002 -7.5625 13.265625 C-7.9609375 10.63671875 -7.9609375 10.63671875 -7.9375 7.703125 C-7.94523437 6.73246094 -7.95296875 5.76179688 -7.9609375 4.76171875 C-7.82945313 3.93800781 -7.69796875 3.11429687 -7.5625 2.265625 C-4.40577318 0.16114046 -3.6106891 0.01014239 0 0 Z " fill="#1A1A1A" transform="translate(106.5625,110.734375)"/>
<path d="M0 0 C1.1653125 -0.00128906 2.330625 -0.00257812 3.53125 -0.00390625 C4.7584375 -0.00003906 5.985625 0.00382812 7.25 0.0078125 C9.09078125 0.00201172 9.09078125 0.00201172 10.96875 -0.00390625 C12.71671875 -0.00197266 12.71671875 -0.00197266 14.5 0 C15.57765625 0.00112793 16.6553125 0.00225586 17.765625 0.00341797 C20.25 0.1328125 20.25 0.1328125 21.25 1.1328125 C21.53920706 2.8738974 21.75676994 4.62714909 21.9375 6.3828125 C22.04449219 7.33671875 22.15148437 8.290625 22.26171875 9.2734375 C22.24808109 12.60102615 21.68802944 15.69478306 19.25 18.1328125 C17.73071962 18.20461214 16.20832518 18.21673257 14.6875 18.1953125 C13.86121094 18.18628906 13.03492187 18.17726562 12.18359375 18.16796875 C11.22646484 18.15056641 11.22646484 18.15056641 10.25 18.1328125 C10.58 19.7828125 10.91 21.4328125 11.25 23.1328125 C14.55 23.4628125 17.85 23.7928125 21.25 24.1328125 C21.25 25.4528125 21.25 26.7728125 21.25 28.1328125 C20.40695313 28.18179688 19.56390625 28.23078125 18.6953125 28.28125 C17.59960938 28.35601562 16.50390625 28.43078125 15.375 28.5078125 C14.28445312 28.57742187 13.19390625 28.64703125 12.0703125 28.71875 C9.11953526 28.86534741 9.11953526 28.86534741 7.25 31.1328125 C6.26 31.1328125 5.27 31.1328125 4.25 31.1328125 C4.25 30.1428125 4.25 29.1528125 4.25 28.1328125 C3.59 28.1328125 2.93 28.1328125 2.25 28.1328125 C1.92 28.7928125 1.59 29.4528125 1.25 30.1328125 C-0.20903258 29.82359366 -1.66720722 29.51032451 -3.125 29.1953125 C-4.34316406 28.93427734 -4.34316406 28.93427734 -5.5859375 28.66796875 C-7.75 28.1328125 -7.75 28.1328125 -9.75 27.1328125 C-9.75 20.5328125 -9.75 13.9328125 -9.75 7.1328125 C-8.76 7.1328125 -7.77 7.1328125 -6.75 7.1328125 C-6.770625 6.1634375 -6.79125 5.1940625 -6.8125 4.1953125 C-6.70622748 -1.01204118 -4.66534027 0.00488298 0 0 Z M-5.75 3.1328125 C-6.22907176 5.69175835 -6.22907176 5.69175835 -6.125 8.5703125 C-6.13273437 9.53839844 -6.14046875 10.50648437 -6.1484375 11.50390625 C-5.68246097 14.57843765 -5.16812381 15.26371347 -2.75 17.1328125 C-0.58273497 17.59223416 -0.58273497 17.59223416 1.8125 17.53125 C2.69164063 17.53511719 3.57078125 17.53898437 4.4765625 17.54296875 C5.84941406 17.52556641 5.84941406 17.52556641 7.25 17.5078125 C8.16523437 17.51941406 9.08046875 17.53101562 10.0234375 17.54296875 C10.90257813 17.53910156 11.78171875 17.53523438 12.6875 17.53125 C13.49058594 17.52786621 14.29367188 17.52448242 15.12109375 17.52099609 C17.759691 17.03987572 18.6476471 16.25171752 20.25 14.1328125 C20.72524621 11.46361971 20.72524621 11.46361971 20.625 8.5703125 C20.63273437 7.59964844 20.64046875 6.62898438 20.6484375 5.62890625 C20.45121094 4.39333984 20.45121094 4.39333984 20.25 3.1328125 C17.09327318 1.02832796 16.2981891 0.87732989 12.6875 0.8671875 C11.80835937 0.86460938 10.92921875 0.86203125 10.0234375 0.859375 C9.10820313 0.86710937 8.19296875 0.87484375 7.25 0.8828125 C6.33476563 0.87507813 5.41953125 0.86734375 4.4765625 0.859375 C3.15785156 0.86324219 3.15785156 0.86324219 1.8125 0.8671875 C1.00941406 0.86944336 0.20632812 0.87169922 -0.62109375 0.87402344 C-3.04913454 1.00706067 -3.04913454 1.00706067 -5.75 3.1328125 Z " fill="#FAF9F9" transform="translate(104.75,109.8671875)"/>
<path d="M0 0 C0.33 0 0.66 0 1 0 C0.99555878 0.78038635 0.99111755 1.56077271 0.98654175 2.36480713 C0.94645647 9.72162594 0.91601127 17.07839174 0.89637566 24.43529129 C0.88594142 28.21748771 0.87178884 31.99959383 0.84912109 35.78173828 C0.82737979 39.43217608 0.81542866 43.08252705 0.81024551 46.7330246 C0.80655206 48.12527584 0.79933966 49.51752238 0.78853989 50.90973663 C0.77400874 52.86067567 0.77318294 54.81170218 0.77294922 56.76269531 C0.768508 57.8730011 0.76406677 58.98330688 0.75949097 60.1272583 C0.99903133 62.98842985 1.38930224 64.64098166 3 67 C5.40404738 67.91599427 5.40404738 67.91599427 8.125 68.25 C10.538125 68.62125 10.538125 68.62125 13 69 C13 65.7 13 62.4 13 59 C13.99 59 14.98 59 16 59 C16.33 63.29 16.66 67.58 17 72 C15.2984375 72.2165625 15.2984375 72.2165625 13.5625 72.4375 C10.19222799 72.61171478 10.19222799 72.61171478 9 74 C7.33382885 74.04063832 5.66611905 74.042721 4 74 C3.67 73.01 3.34 72.02 3 71 C1.74123047 70.14148438 1.74123047 70.14148438 0.45703125 69.265625 C-2 67 -2 67 -2.48828125 63.546875 C-2.43027344 62.29390625 -2.37226562 61.0409375 -2.3125 59.75 C-2.26738281 58.48671875 -2.22226563 57.2234375 -2.17578125 55.921875 C-2.11777344 54.95765625 -2.05976562 53.9934375 -2 53 C-3.32 52.67 -4.64 52.34 -6 52 C-5.625 49.0625 -5.625 49.0625 -5 46 C-4.01 45.505 -4.01 45.505 -3 45 C-4.32 44.67 -5.64 44.34 -7 44 C-7.125 38.25 -7.125 38.25 -6 36 C-4.515 35.505 -4.515 35.505 -3 35 C-2.67 34.34 -2.34 33.68 -2 33 C-2.928125 33.2784375 -2.928125 33.2784375 -3.875 33.5625 C-6 34 -6 34 -8 33 C-8.36625971 28.48279689 -8.36625971 28.48279689 -6.625 26.1875 C-5 25 -5 25 -3 25 C-3 24.34 -3 23.68 -3 23 C-4.65 22.67 -6.3 22.34 -8 22 C-8 20.35 -8 18.7 -8 17 C-7.01 16.67 -6.02 16.34 -5 16 C-5 15.34 -5 14.68 -5 14 C-4.34 13.67 -3.68 13.34 -3 13 C-2.60741061 10.47907827 -2.60741061 10.47907827 -2.5 7.5625 C-2.22145805 2.22145805 -2.22145805 2.22145805 0 0 Z " fill="#EFC698" transform="translate(93,92)"/>
<path d="M0 0 C2.4845467 0.08101783 3.80355313 0.17049688 6 1.375 C7.62519287 4.33858699 7.88607605 6.96044489 8.0625 10.3125 C7.10607118 13.10821502 6.70951022 13.98899489 4.0625 15.3125 C7.0325 15.6425 10.0025 15.9725 13.0625 16.3125 C13.0625 16.9725 13.0625 17.6325 13.0625 18.3125 C12.4025 18.3125 11.7425 18.3125 11.0625 18.3125 C11.0625 19.9625 11.0625 21.6125 11.0625 23.3125 C10.0725 23.6425 9.0825 23.9725 8.0625 24.3125 C8.0625 24.9725 8.0625 25.6325 8.0625 26.3125 C2.4525 26.3125 -3.1575 26.3125 -8.9375 26.3125 C-8.9375 25.6525 -8.9375 24.9925 -8.9375 24.3125 C-7.6175 24.3125 -6.2975 24.3125 -4.9375 24.3125 C-4.999375 23.19875 -4.999375 23.19875 -5.0625 22.0625 C-4.93351866 19.22491048 -4.36698778 17.72476062 -2.9375 15.3125 C-4.2575 14.6525 -5.5775 13.9925 -6.9375 13.3125 C-6.9375 12.6525 -6.9375 11.9925 -6.9375 11.3125 C-9.5775 10.9825 -12.2175 10.6525 -14.9375 10.3125 C-14.6075 9.6525 -14.2775 8.9925 -13.9375 8.3125 C-12.761875 8.1578125 -12.761875 8.1578125 -11.5625 8 C-8.71694438 7.55915508 -8.71694438 7.55915508 -7.25 4.875 C-6.816875 4.029375 -6.38375 3.18375 -5.9375 2.3125 C-3.9375 0.3125 -3.9375 0.3125 0 0 Z " fill="#EAD620" transform="translate(170.9375,39.6875)"/>
<path d="M0 0 C6.6 0 13.2 0 20 0 C20 1.98 20 3.96 20 6 C16.04 5.67 12.08 5.34 8 5 C6.02 7.97 6.02 7.97 4 11 C5.98 10.01 7.96 9.02 10 8 C10 8.99 10 9.98 10 11 C13.3 11.66 16.6 12.32 20 13 C20 14.98 20 16.96 20 19 C19.67 18.34 19.34 17.68 19 17 C17.68 17 16.36 17 15 17 C15 17.99 15 18.98 15 20 C14.01 20.33 13.02 20.66 12 21 C12 20.01 12 19.02 12 18 C9.03 18.33 6.06 18.66 3 19 C3.33 19.99 3.66 20.98 4 22 C8.95 22.33 13.9 22.66 19 23 C19 23.33 19 23.66 19 24 C12.73 24 6.46 24 0 24 C-1.87871451 19.30321372 -2.27115615 16.90822692 -2.25 12 C-2.25773438 10.205625 -2.25773438 10.205625 -2.265625 8.375 C-2 5 -2 5 0 0 Z " fill="#556572" transform="translate(14,138)"/>
<path d="M0 0 C1.48693359 0.24556641 1.48693359 0.24556641 3.00390625 0.49609375 C6.99354579 1.06604226 10.90621941 1.09817505 14.9375 1.0625 C15.62134766 1.05798828 16.30519531 1.05347656 17.00976562 1.04882812 C18.67321604 1.0371956 20.3366205 1.01926694 22 1 C23.04702186 4.7264085 23.07442057 8.13013042 23 12 C24.98 12 26.96 12 29 12 C29 12.99 29 13.98 29 15 C25.76248322 16.07917226 23.42248229 16.11425601 20.01953125 16.09765625 C18.85615234 16.09443359 17.69277344 16.09121094 16.49414062 16.08789062 C15.27919922 16.07951172 14.06425781 16.07113281 12.8125 16.0625 C11.58595703 16.05798828 10.35941406 16.05347656 9.09570312 16.04882812 C6.06375332 16.03703065 3.03190094 16.02056921 0 16 C0 15.34 0 14.68 0 14 C0.99 14 1.98 14 3 14 C3.08131463 12.56344146 3.13933559 11.1255517 3.1875 9.6875 C3.22230469 8.88699219 3.25710937 8.08648437 3.29296875 7.26171875 C2.9343151 4.49291259 2.02945675 3.81639042 0 2 C0 1.34 0 0.68 0 0 Z " fill="#AB6A2F" transform="translate(185,147)"/>
<path d="M0 0 C0.33 0.99 0.66 1.98 1 3 C1.66 3.33 2.32 3.66 3 4 C2.01 4.33 1.02 4.66 0 5 C0.34786708 6.97536745 0.34786708 6.97536745 1 9 C1.66 9.33 2.32 9.66 3 10 C2.34 10 1.68 10 1 10 C4.44319224 16.3430725 8.10938958 22.50780691 11.9375 28.625 C13.07747248 30.45792951 14.21676936 32.29127933 15.35546875 34.125 C15.94634277 35.07632813 16.5372168 36.02765625 17.14599609 37.0078125 C20.36490136 42.20282211 23.56187082 47.41105894 26.75 52.625 C27.35835693 53.6145166 27.96671387 54.6040332 28.59350586 55.62353516 C29.15561768 56.54440918 29.71772949 57.4652832 30.296875 58.4140625 C30.79541992 59.2282666 31.29396484 60.0424707 31.80761719 60.88134766 C33 63 33 63 34 66 C32.68 66 31.36 66 30 66 C28.73901367 64.61401367 28.73901367 64.61401367 27.66796875 62.66796875 C27.26570068 61.95745361 26.86343262 61.24693848 26.44897461 60.51489258 C26.03268799 59.74685303 25.61640137 58.97881348 25.1875 58.1875 C24.29833413 56.61115523 23.40770834 55.03563306 22.515625 53.4609375 C22.08443359 52.69104492 21.65324219 51.92115234 21.20898438 51.12792969 C18.657297 46.63671257 15.81300918 42.33006872 13 38 C11.83389393 36.20040912 10.66908145 34.40000293 9.50610352 32.59838867 C8.73771721 31.4084822 7.9675144 30.21974576 7.19506836 29.0324707 C2.66719508 22.02964615 -1.57229346 15.32828813 -3 7 C-2.34 7 -1.68 7 -1 7 C-1.33 6.34 -1.66 5.68 -2 5 C-4.12576782 4.53348793 -4.12576782 4.53348793 -6.5625 4.375 C-7.38878906 4.30023438 -8.21507813 4.22546875 -9.06640625 4.1484375 C-9.70449219 4.09945312 -10.34257813 4.05046875 -11 4 C-11 3.34 -11 2.68 -11 2 C-10.06027344 1.90912109 -10.06027344 1.90912109 -9.1015625 1.81640625 C-7.87566406 1.69072266 -7.87566406 1.69072266 -6.625 1.5625 C-5.81289062 1.48128906 -5.00078125 1.40007812 -4.1640625 1.31640625 C-1.95727195 1.10909886 -1.95727195 1.10909886 0 0 Z " fill="#91BDC0" transform="translate(127,159)"/>
<path d="M0 0 C11.88 0.33 23.76 0.66 36 1 C36 1.33 36 1.66 36 2 C24.78 2 13.56 2 2 2 C2 19.16 2 36.32 2 54 C5.63 54 9.26 54 13 54 C13 57.3 13 60.6 13 64 C5.63803681 64.49079755 5.63803681 64.49079755 2.5625 62.125 C0.0180347 58.6645272 -0.12276022 56.71522234 -0.11352539 52.44873047 C-0.11344986 51.28767792 -0.11337433 50.12662537 -0.11329651 48.9303894 C-0.10813522 47.67203278 -0.10297394 46.41367615 -0.09765625 45.1171875 C-0.0962413 43.83264679 -0.09482635 42.54810608 -0.09336853 41.22463989 C-0.08954911 37.80843158 -0.07972373 34.39226574 -0.06866455 30.97607422 C-0.05843807 27.49056585 -0.0538135 24.00505041 -0.04882812 20.51953125 C-0.03863152 13.67964998 -0.0190585 6.83988536 0 0 Z " fill="#63645A" transform="translate(93,97)"/>
<path d="M0 0 C10.89 0 21.78 0 33 0 C30.56323828 4.87352344 28.88186779 5.04725288 24 7 C23.67 7.66 23.34 8.32 23 9 C22.34 9 21.68 9 21 9 C21 9.66 21 10.32 21 11 C20.34 11 19.68 11 19 11 C19 11.66 19 12.32 19 13 C17.68 13 16.36 13 15 13 C15 12.34 15 11.68 15 11 C13.68 10.67 12.36 10.34 11 10 C11 9.34 11 8.68 11 8 C9.68 8 8.36 8 7 8 C4.75 6.125 4.75 6.125 3 4 C3 3.34 3 2.68 3 2 C2.01 2 1.02 2 0 2 C0 1.34 0 0.68 0 0 Z " fill="#FEE669" transform="translate(13,88)"/>
<path d="M0 0 C12.54 0 25.08 0 38 0 C38 0.66 38 1.32 38 2 C37.34 2 36.68 2 36 2 C35.67 7.94 35.34 13.88 35 20 C33.68 20 32.36 20 31 20 C30.67 14.06 30.34 8.12 30 2 C25.71 2 21.42 2 17 2 C16.67 7.94 16.34 13.88 16 20 C14.68 20 13.36 20 12 20 C11.67 14.06 11.34 8.12 11 2 C7.37 2 3.74 2 0 2 C0 1.34 0 0.68 0 0 Z " fill="#F2F1EF" transform="translate(59,42)"/>
<path d="M0 0 C0.66 0 1.32 0 2 0 C2 7.92 2 15.84 2 24 C0.68 23.01 -0.64 22.02 -2 21 C-2 20.34 -2 19.68 -2 19 C-3.32 18.67 -4.64 18.34 -6 18 C-6 17.34 -6 16.68 -6 16 C-6.763125 15.731875 -7.52625 15.46375 -8.3125 15.1875 C-10.87380884 14.05575888 -12.19692938 13.08776599 -14 11 C-13.34 11 -12.68 11 -12 11 C-12 10.34 -12 9.68 -12 9 C-11.34 9 -10.68 9 -10 9 C-9.67 8.01 -9.34 7.02 -9 6 C-7.865625 5.690625 -6.73125 5.38125 -5.5625 5.0625 C-1.93740933 4.39099225 -1.93740933 4.39099225 -0.5625 1.875 C-0.376875 1.25625 -0.19125 0.6375 0 0 Z " fill="#FBD044" transform="translate(46,88)"/>
<path d="M0 0 C3 0 3 0 5.3125 1.4375 C7 4 7 4 6.80859375 6.26953125 C6.29494656 8.55041212 5.70481383 10.77126438 5 13 C3.68 13 2.36 13 1 13 C1 13.66 1 14.32 1 15 C6.61 15 12.22 15 18 15 C18 15.33 18 15.66 18 16 C4.14 16 -9.72 16 -24 16 C-24 14.68 -24 13.36 -24 12 C-23.01 12 -22.02 12 -21 12 C-21 10.68 -21 9.36 -21 8 C-18.36 8 -15.72 8 -13 8 C-13 8.99 -13 9.98 -13 11 C-13.99 11 -14.98 11 -16 11 C-16 12.32 -16 13.64 -16 15 C-13.03 15 -10.06 15 -7 15 C-7 14.01 -7 13.02 -7 12 C-6.01 12 -5.02 12 -4 12 C-4 10.68 -4 9.36 -4 8 C-1.69 8 0.62 8 3 8 C2.67 6.02 2.34 4.04 2 2 C1.34 2 0.68 2 0 2 C0 1.34 0 0.68 0 0 Z " fill="#8CBB69" transform="translate(161,51)"/>
<path d="M0 0 C3.71888239 0.50712033 6.73454239 1.11608215 10 3 C9 6 9 6 6.875 7.625 C3.55076599 9.21485105 0.64640885 9.59484346 -3 10 C-3.99 10.33 -4.98 10.66 -6 11 C-4.29107501 14.31460705 -4.29107501 14.31460705 -0.875 14.6875 C0.07375 14.790625 1.0225 14.89375 2 15 C2 15.33 2 15.66 2 16 C0.35 16 -1.3 16 -3 16 C-3 18.97 -3 21.94 -3 25 C-3.99 25 -4.98 25 -6 25 C-6 26.65 -6 28.3 -6 30 C3.24 30 12.48 30 22 30 C22 30.33 22 30.66 22 31 C12.43 31 2.86 31 -7 31 C-7 23.08 -7 15.16 -7 7 C-5.35 6.67 -3.7 6.34 -2 6 C-1.34 4.02 -0.68 2.04 0 0 Z " fill="#AB7E4E" transform="translate(191,136)"/>
<path d="M0 0 C2.34765625 0.85546875 2.34765625 0.85546875 5.0625 2.1875 C5.96097656 2.61417969 6.85945313 3.04085937 7.78515625 3.48046875 C10 5 10 5 10.99609375 6.86328125 C11.00214774 10.17481351 10.23260167 11.55717218 8 14 C5.05906948 14.37859559 2.72355042 14.47775614 -0.1875 14.3125 C-0.93708984 14.28994141 -1.68667969 14.26738281 -2.45898438 14.24414062 C-4.3068447 14.18529157 -6.15367667 14.09560938 -8 14 C-6.68 10.37 -5.36 6.74 -4 3 C-3.34 3 -2.68 3 -2 3 C-2 2.34 -2 1.68 -2 1 C-1.34 0.67 -0.68 0.34 0 0 Z " fill="#333334" transform="translate(93,211)"/>
<path d="M0 0 C0.33 0 0.66 0 1 0 C1.12385084 5.17772746 1.21445571 10.35458788 1.2746582 15.53344727 C1.29976061 17.29401676 1.33385028 19.05448247 1.37719727 20.81469727 C1.43804115 23.34938179 1.46625113 25.88268575 1.48828125 28.41796875 C1.51408768 29.20149216 1.5398941 29.98501556 1.56648254 30.7922821 C1.56864359 35.02899003 1.35446318 36.54915799 -1.36328125 40.00585938 C-4.36030467 42.27249709 -5.62185639 42.55854291 -9.3125 42.3125 C-11.6328125 42.1578125 -11.6328125 42.1578125 -14 42 C-14 38.7 -14 35.4 -14 32 C-9.38 32 -4.76 32 0 32 C0 21.44 0 10.88 0 0 Z " fill="#161110" transform="translate(129,119)"/>
<path d="M0 0 C1.26328125 0.12890625 2.5265625 0.2578125 3.828125 0.390625 C4.79234375 0.50921875 5.7565625 0.6278125 6.75 0.75 C6.75 1.41 6.75 2.07 6.75 2.75 C6.09 2.75 5.43 2.75 4.75 2.75 C4.75 4.4 4.75 6.05 4.75 7.75 C3.76 8.08 2.77 8.41 1.75 8.75 C1.75 9.41 1.75 10.07 1.75 10.75 C-3.86 10.75 -9.47 10.75 -15.25 10.75 C-15.25 10.09 -15.25 9.43 -15.25 8.75 C-13.93 8.75 -12.61 8.75 -11.25 8.75 C-11.3325 8.0075 -11.415 7.265 -11.5 6.5 C-11.25 3.75 -11.25 3.75 -9.6875 1.5625 C-6.27940254 -0.97172632 -4.15693805 -0.46188201 0 0 Z " fill="#F5BD14" transform="translate(177.25,55.25)"/>
<path d="M0 0 C0.99 0.33 1.98 0.66 3 1 C3.33 1.99 3.66 2.98 4 4 C3.02389771 4.62044189 3.02389771 4.62044189 2.02807617 5.25341797 C-0.9189982 7.12693968 -3.86575263 9.00096402 -6.8125 10.875 C-7.83666016 11.52597656 -8.86082031 12.17695313 -9.91601562 12.84765625 C-10.89892578 13.47285156 -11.88183594 14.09804687 -12.89453125 14.7421875 C-13.80050049 15.3182373 -14.70646973 15.89428711 -15.63989258 16.48779297 C-17.43846772 17.64020575 -19.22265648 18.81510432 -21 20 C-22.32 20 -23.64 20 -25 20 C-25.33 18.68 -25.66 17.36 -26 16 C-24.54462432 15.16151196 -23.08559627 14.32936066 -21.625 13.5 C-20.81289062 13.0359375 -20.00078125 12.571875 -19.1640625 12.09375 C-17 11 -17 11 -15 11 C-15 10.34 -15 9.68 -15 9 C-14.41992188 8.68546875 -13.83984375 8.3709375 -13.2421875 8.046875 C-9.58428045 6.04287312 -6.00925426 4.06918363 -2.625 1.625 C-1.325625 0.820625 -1.325625 0.820625 0 0 Z " fill="#EFECEA" transform="translate(153,148)"/>
<path d="M0 0 C0.99 0 1.98 0 3 0 C3 0.66 3 1.32 3 2 C4.32 2.66 5.64 3.32 7 4 C7 4.66 7 5.32 7 6 C8.32 6 9.64 6 11 6 C11 6.66 11 7.32 11 8 C12.32 8.66 13.64 9.32 15 10 C14.01 10.33 13.02 10.66 12 11 C11.67 11.99 11.34 12.98 11 14 C10.01 14 9.02 14 8 14 C8 14.66 8 15.32 8 16 C7.360625 16.12375 6.72125 16.2475 6.0625 16.375 C5.381875 16.58125 4.70125 16.7875 4 17 C3.67 17.66 3.34 18.32 3 19 C2.34 19 1.68 19 1 19 C0.67 19.99 0.34 20.98 0 22 C0 14.74 0 7.48 0 0 Z " fill="#FBCE43" transform="translate(13,90)"/>
<path d="M0 0 C0.93741028 0.02265427 1.87482056 0.04530853 2.84063721 0.06864929 C4.81072311 0.11837665 6.78068398 0.17330193 8.75048828 0.2331543 C11.7696621 0.32434068 14.78890385 0.39885246 17.80859375 0.47070312 C19.72658832 0.5211635 21.64455846 0.57256291 23.5625 0.625 C24.46562927 0.6479866 25.36875854 0.67097321 26.29925537 0.69465637 C27.13732727 0.72105698 27.97539917 0.74745758 28.83886719 0.7746582 C29.94303986 0.80702324 29.94303986 0.80702324 31.06951904 0.84004211 C33.015625 1.01171875 33.015625 1.01171875 36.015625 2.01171875 C36.015625 2.67171875 36.015625 3.33171875 36.015625 4.01171875 C18.525625 4.01171875 1.035625 4.01171875 -16.984375 4.01171875 C-16.984375 3.35171875 -16.984375 2.69171875 -16.984375 2.01171875 C-11.1685323 -0.00901505 -6.12193112 -0.19876266 0 0 Z " fill="#D7DEDD" transform="translate(67.984375,62.98828125)"/>
<path d="M0 0 C0.33 0 0.66 0 1 0 C1 17.16 1 34.32 1 52 C0.67 52 0.34 52 0 52 C-0.495 44.575 -0.495 44.575 -1 37 C-5.00222119 36.19955576 -8.96005961 35.55450162 -13 35 C-13 33.02 -13 31.04 -13 29 C-10.03 28.67 -7.06 28.34 -4 28 C-3.34 26.35 -2.68 24.7 -2 23 C-1.34 23 -0.68 23 0 23 C0 15.41 0 7.82 0 0 Z " fill="#EEF0EF" transform="translate(128,99)"/>
<path d="M0 0 C4.29 0 8.58 0 13 0 C13 3.63 13 7.26 13 11 C6.565 11.495 6.565 11.495 0 12 C0 8.04 0 4.08 0 0 Z " fill="#9A8C72" transform="translate(190,103)"/>
<path d="M0 0 C0.66 0.33 1.32 0.66 2 1 C2.33333333 2.33333333 2.66666667 3.66666667 3 5 C3.66 5.33 4.32 5.66 5 6 C5.34375 8.36328125 5.34375 8.36328125 5.5 11.3125 C5.72505863 16.48745739 5.72505863 16.48745739 8 21 C10.40404738 21.91599427 10.40404738 21.91599427 13.125 22.25 C14.73375 22.4975 16.3425 22.745 18 23 C18 19.7 18 16.4 18 13 C18.99 13 19.98 13 21 13 C21.33 17.29 21.66 21.58 22 26 C20.2984375 26.2165625 20.2984375 26.2165625 18.5625 26.4375 C15.19222799 26.61171478 15.19222799 26.61171478 14 28 C12.33382885 28.04063832 10.66611905 28.042721 9 28 C8.67 27.01 8.34 26.02 8 25 C7.16082031 24.42765625 6.32164063 23.8553125 5.45703125 23.265625 C3 21 3 21 2.51171875 17.546875 C2.56972656 16.29390625 2.62773438 15.0409375 2.6875 13.75 C2.73261719 12.48671875 2.77773437 11.2234375 2.82421875 9.921875 C2.88222656 8.95765625 2.94023438 7.9934375 3 7 C1.68 6.67 0.36 6.34 -1 6 C-0.67 4.02 -0.34 2.04 0 0 Z " fill="#98C1CA" transform="translate(88,138)"/>
<path d="M0 0 C0.98871094 0.09796875 1.97742188 0.1959375 2.99609375 0.296875 C3.98738281 0.38453125 4.97867187 0.4721875 6 0.5625 C6.80308594 0.72234375 7.60617188 0.8821875 8.43359375 1.046875 C9.43359375 3.046875 9.43359375 3.046875 9.43359375 7.046875 C10.09359375 7.046875 10.75359375 7.046875 11.43359375 7.046875 C11.43359375 6.386875 11.43359375 5.726875 11.43359375 5.046875 C10.77359375 4.716875 10.11359375 4.386875 9.43359375 4.046875 C10.09359375 3.716875 10.75359375 3.386875 11.43359375 3.046875 C12.42359375 3.376875 13.41359375 3.706875 14.43359375 4.046875 C14.43359375 14.046875 14.43359375 14.046875 13.43359375 17.046875 C12.77359375 16.716875 12.11359375 16.386875 11.43359375 16.046875 C10.80859375 12.984375 10.80859375 12.984375 10.43359375 10.046875 C9.65113281 9.85351562 8.86867188 9.66015625 8.0625 9.4609375 C7.05058594 9.20054687 6.03867187 8.94015625 4.99609375 8.671875 C3.98675781 8.41664063 2.97742188 8.16140625 1.9375 7.8984375 C-0.56640625 7.046875 -0.56640625 7.046875 -1.56640625 5.046875 C-2.22640625 5.706875 -2.88640625 6.366875 -3.56640625 7.046875 C-4.55640625 7.046875 -5.54640625 7.046875 -6.56640625 7.046875 C-3.99708614 0.07300614 -3.99708614 0.07300614 0 0 Z " fill="#718394" transform="translate(24.56640625,141.953125)"/>
<path d="M0 0 C1.28841797 -0.00257812 2.57683594 -0.00515625 3.90429688 -0.0078125 C4.5769458 -0.00362305 5.24959473 0.00056641 5.94262695 0.00488281 C7.99265274 0.01556635 10.04179872 0.00499537 12.09179688 -0.0078125 C14.02635742 -0.00394531 14.02635742 -0.00394531 16 0 C17.7797522 0.00338379 17.7797522 0.00338379 19.59545898 0.00683594 C22.56640625 0.265625 22.56640625 0.265625 25.56640625 2.265625 C25.56640625 2.925625 25.56640625 3.585625 25.56640625 4.265625 C24.24640625 4.595625 22.92640625 4.925625 21.56640625 5.265625 C21.56640625 4.605625 21.56640625 3.945625 21.56640625 3.265625 C21.15865967 3.75458252 20.75091309 4.24354004 20.33081055 4.74731445 C18.14819691 6.62550377 17.17374539 6.61897264 14.3359375 6.55859375 C13.53349609 6.54892578 12.73105469 6.53925781 11.90429688 6.52929688 C11.07091797 6.50416016 10.23753906 6.47902344 9.37890625 6.453125 C8.53392578 6.43958984 7.68894531 6.42605469 6.81835938 6.41210938 C4.73410241 6.37678299 2.65017348 6.32297639 0.56640625 6.265625 C0.89640625 5.275625 1.22640625 4.285625 1.56640625 3.265625 C-1.40359375 3.265625 -4.37359375 3.265625 -7.43359375 3.265625 C-7.76359375 5.245625 -8.09359375 7.225625 -8.43359375 9.265625 C-8.76359375 9.265625 -9.09359375 9.265625 -9.43359375 9.265625 C-8.58219872 1.60306971 -7.80186803 0.01484757 0 0 Z " fill="#0D0D0B" transform="translate(103.43359375,88.734375)"/>
<path d="M0 0 C4.95 0 9.9 0 15 0 C15 2.64 15 5.28 15 8 C10.05 8 5.1 8 0 8 C-1 2 -1 2 0 0 Z " fill="#D2D1D2" transform="translate(189,83)"/>
<path d="M0 0 C3.0625 0.125 3.0625 0.125 5.0625 1.125 C5.39583333 2.45833333 5.72916667 3.79166667 6.0625 5.125 C6.7225 5.455 7.3825 5.785 8.0625 6.125 C8.0625 7.115 8.0625 8.105 8.0625 9.125 C6.7425 9.125 5.4225 9.125 4.0625 9.125 C3.7325 10.115 3.4025 11.105 3.0625 12.125 C5.0425 12.125 7.0225 12.125 9.0625 12.125 C9.0625 12.455 9.0625 12.785 9.0625 13.125 C7.45842672 13.15208567 5.8542215 13.17143483 4.25 13.1875 C2.91001953 13.20490234 2.91001953 13.20490234 1.54296875 13.22265625 C-0.9375 13.125 -0.9375 13.125 -3.9375 12.125 C-3.96437279 10.31257948 -3.98383715 8.50004767 -4 6.6875 C-4.01160156 5.67816406 -4.02320312 4.66882813 -4.03515625 3.62890625 C-3.89372238 0.00254195 -3.67216809 0.15626247 0 0 Z " fill="#33343D" transform="translate(102.9375,111.875)"/>
<path d="M0 0 C0.33 0 0.66 0 1 0 C1 7.92 1 15.84 1 24 C12.22 24 23.44 24 35 24 C35 24.66 35 25.32 35 26 C23.12 26 11.24 26 -1 26 C-1.020625 22.08125 -1.04125 18.1625 -1.0625 14.125 C-1.071604 12.89023926 -1.08070801 11.65547852 -1.09008789 10.38330078 C-1.09258545 9.41376465 -1.09508301 8.44422852 -1.09765625 7.4453125 C-1.10289307 6.45031738 -1.10812988 5.45532227 -1.11352539 4.43017578 C-1 2 -1 2 0 0 Z " fill="#8BBEB5" transform="translate(12,88)"/>
<path d="M0 0 C1.93166016 0.01740234 1.93166016 0.01740234 3.90234375 0.03515625 C5.19269531 0.04417969 6.48304688 0.05320312 7.8125 0.0625 C8.81152344 0.07410156 9.81054688 0.08570312 10.83984375 0.09765625 C10.83984375 2.73765625 10.83984375 5.37765625 10.83984375 8.09765625 C8.52740583 8.12451037 6.21488105 8.14398466 3.90234375 8.16015625 C2.61457031 8.17175781 1.32679688 8.18335937 0 8.1953125 C-3.16015625 8.09765625 -3.16015625 8.09765625 -4.16015625 7.09765625 C-4.28515625 4.09765625 -4.28515625 4.09765625 -4.16015625 1.09765625 C-3.16015625 0.09765625 -3.16015625 0.09765625 0 0 Z " fill="#D9E1DA" transform="translate(193.16015625,92.90234375)"/>
<path d="M0 0 C1.46091498 1.27036085 2.92102675 2.54247682 4.34375 3.85546875 C7.3338004 5.92170641 10.43841711 5.8157802 14 6 C14 6.33 14 6.66 14 7 C9.38 7 4.76 7 0 7 C-0.33 6.34 -0.66 5.68 -1 5 C-1.99 4.67 -2.98 4.34 -4 4 C-4.33 4.33 -4.66 4.66 -5 5 C-5.99 5.495 -5.99 5.495 -7 6 C-7.66 5.67 -8.32 5.34 -9 5 C-9 5.66 -9 6.32 -9 7 C-13.29 7 -17.58 7 -22 7 C-18.97328888 4.98219259 -15.95887173 3.40102076 -12.6875 1.8125 C-11.02267578 0.98685547 -11.02267578 0.98685547 -9.32421875 0.14453125 C-5.60935445 -1.13449958 -3.73196351 -1.12433978 0 0 Z " fill="#F7F7F7" transform="translate(82,33)"/>
<path d="M0 0 C9.06078183 2.44885995 17.16820876 7.97583203 25 13 C24.67 13.99 24.34 14.98 24 16 C20.24936435 15.4133247 17.440724 14.35059992 14.13671875 12.49609375 C13.25048828 12.00302734 12.36425781 11.50996094 11.45117188 11.00195312 C10.53916016 10.48568359 9.62714844 9.96941406 8.6875 9.4375 C7.29047852 8.65729492 7.29047852 8.65729492 5.86523438 7.86132812 C3.57336205 6.58023026 1.28518387 5.29297895 -1 4 C-0.67 2.68 -0.34 1.36 0 0 Z " fill="#EAEAE7" transform="translate(80,200)"/>
<path d="M0 0 C3.96 0 7.92 0 12 0 C12 3.3 12 6.6 12 10 C4.74418605 10.48372093 4.74418605 10.48372093 1.5 8.375 C0 6 0 6 0 0 Z " fill="#020202" transform="translate(94,151)"/>
<path d="M0 0 C0.99 0.33 1.98 0.66 3 1 C3 1.99 3 2.98 3 4 C2.34 4 1.68 4 1 4 C1.99 5.1446875 1.99 5.1446875 3 6.3125 C5 9 5 9 5 12 C2.36 12 -0.28 12 -3 12 C-3 13.32 -3 14.64 -3 16 C-3.99 16 -4.98 16 -6 16 C-6 17.32 -6 18.64 -6 20 C-5.01 20.33 -4.02 20.66 -3 21 C-4.93719378 21.05406122 -6.87481921 21.09282025 -8.8125 21.125 C-9.89144531 21.14820312 -10.97039062 21.17140625 -12.08203125 21.1953125 C-15 21 -15 21 -18 19 C-17.34 17.35 -16.68 15.7 -16 14 C-15.34 14.33 -14.68 14.66 -14 15 C-14 15.99 -14 16.98 -14 18 C-12.02 18 -10.04 18 -8 18 C-5.36 12.06 -2.72 6.12 0 0 Z " fill="#25A89F" transform="translate(143,47)"/>
<path d="M0 0 C1.98 0 3.96 0 6 0 C5.01 0.33 4.02 0.66 3 1 C2.04341541 5.04061331 1.83484924 8.85198158 1.8125 13 C1.79832031 14.19625 1.78414062 15.3925 1.76953125 16.625 C1.99497538 19.92641914 2.40632638 22.11245276 4 25 C7.02982306 26.37189827 7.02982306 26.37189827 10 27 C10 28.32 10 29.64 10 31 C8.35 31 6.7 31 5 31 C5 30.34 5 29.68 5 29 C4.195625 28.855625 3.39125 28.71125 2.5625 28.5625 C0 28 0 28 -1 27 C-1.09962237 25.17014378 -1.13080452 23.33647122 -1.1328125 21.50390625 C-1.13410156 20.38822266 -1.13539062 19.27253906 -1.13671875 18.12304688 C-1.13285156 16.94806641 -1.12898437 15.77308594 -1.125 14.5625 C-1.12886719 13.39138672 -1.13273438 12.22027344 -1.13671875 11.01367188 C-1.13542969 9.89669922 -1.13414063 8.77972656 -1.1328125 7.62890625 C-1.13168457 6.59838135 -1.13055664 5.56785645 -1.12939453 4.50610352 C-1 2 -1 2 0 0 Z " fill="#99C0CB" transform="translate(11,137)"/>
<path d="M0 0 C1.1653125 -0.00128906 2.330625 -0.00257812 3.53125 -0.00390625 C4.7584375 -0.00003906 5.985625 0.00382812 7.25 0.0078125 C9.09078125 0.00201172 9.09078125 0.00201172 10.96875 -0.00390625 C12.71671875 -0.00197266 12.71671875 -0.00197266 14.5 0 C15.57765625 0.00112793 16.6553125 0.00225586 17.765625 0.00341797 C20.25 0.1328125 20.25 0.1328125 21.25 1.1328125 C21.53920706 2.8738974 21.75676994 4.62714909 21.9375 6.3828125 C22.04449219 7.33671875 22.15148437 8.290625 22.26171875 9.2734375 C22.24808109 12.60102615 21.68802944 15.69478306 19.25 18.1328125 C17.32332493 18.22029457 15.39348139 18.23978584 13.46484375 18.23046875 C12.29501953 18.22724609 11.12519531 18.22402344 9.91992188 18.22070312 C8.07237305 18.20813477 8.07237305 18.20813477 6.1875 18.1953125 C4.33415039 18.18854492 4.33415039 18.18854492 2.44335938 18.18164062 C-0.62114117 18.16980858 -3.68554721 18.15332423 -6.75 18.1328125 C-6.77684312 15.32024969 -6.79676188 12.50794009 -6.8125 9.6953125 C-6.82087891 8.89287109 -6.82925781 8.09042969 -6.83789062 7.26367188 C-6.8465143 5.21986029 -6.8022815 3.17597348 -6.75 1.1328125 C-4.97550406 -0.64168344 -2.39982739 0.00251178 0 0 Z M-5.75 3.1328125 C-6.22907176 5.69175835 -6.22907176 5.69175835 -6.125 8.5703125 C-6.13273437 9.53839844 -6.14046875 10.50648437 -6.1484375 11.50390625 C-5.68246097 14.57843765 -5.16812381 15.26371347 -2.75 17.1328125 C-0.58273497 17.59223416 -0.58273497 17.59223416 1.8125 17.53125 C2.69164063 17.53511719 3.57078125 17.53898437 4.4765625 17.54296875 C5.84941406 17.52556641 5.84941406 17.52556641 7.25 17.5078125 C8.16523437 17.51941406 9.08046875 17.53101562 10.0234375 17.54296875 C10.90257813 17.53910156 11.78171875 17.53523438 12.6875 17.53125 C13.49058594 17.52786621 14.29367188 17.52448242 15.12109375 17.52099609 C17.759691 17.03987572 18.6476471 16.25171752 20.25 14.1328125 C20.72524621 11.46361971 20.72524621 11.46361971 20.625 8.5703125 C20.63273437 7.59964844 20.64046875 6.62898438 20.6484375 5.62890625 C20.45121094 4.39333984 20.45121094 4.39333984 20.25 3.1328125 C17.09327318 1.02832796 16.2981891 0.87732989 12.6875 0.8671875 C11.80835937 0.86460938 10.92921875 0.86203125 10.0234375 0.859375 C9.10820313 0.86710937 8.19296875 0.87484375 7.25 0.8828125 C6.33476563 0.87507813 5.41953125 0.86734375 4.4765625 0.859375 C3.15785156 0.86324219 3.15785156 0.86324219 1.8125 0.8671875 C1.00941406 0.86944336 0.20632812 0.87169922 -0.62109375 0.87402344 C-3.04913454 1.00706067 -3.04913454 1.00706067 -5.75 3.1328125 Z " fill="#E2E2E2" transform="translate(104.75,109.8671875)"/>
<path d="M0 0 C0.33 0 0.66 0 1 0 C0.67 7.92 0.34 15.84 0 24 C-0.99 24.33 -1.98 24.66 -3 25 C-3 24.34 -3 23.68 -3 23 C-4.65 22.67 -6.3 22.34 -8 22 C-8 20.35 -8 18.7 -8 17 C-7.01 16.67 -6.02 16.34 -5 16 C-5 15.34 -5 14.68 -5 14 C-4.34 13.67 -3.68 13.34 -3 13 C-2.60741061 10.47907827 -2.60741061 10.47907827 -2.5 7.5625 C-2.22145805 2.22145805 -2.22145805 2.22145805 0 0 Z " fill="#9DC3BC" transform="translate(93,92)"/>
<path d="M0 0 C0.99 0.33 1.98 0.66 3 1 C3 1.66 3 2.32 3 3 C4.32 3.66 5.64 4.32 7 5 C7 8.6408385 5.89347937 9.94130256 4 13 C3.30177383 14.65369357 2.62501395 16.31727014 2 18 C1.01 18 0.02 18 -1 18 C-1.02684312 15.18743719 -1.04676188 12.37512759 -1.0625 9.5625 C-1.07087891 8.76005859 -1.07925781 7.95761719 -1.08789062 7.13085938 C-1.0965143 5.08704779 -1.0522815 3.04316098 -1 1 C-0.67 0.67 -0.34 0.34 0 0 Z " fill="#E7C498" transform="translate(131,101)"/>
<path d="M0 0 C0.33 0 0.66 0 1 0 C1.08131463 1.43655854 1.13933559 2.8744483 1.1875 4.3125 C1.23970703 5.51326172 1.23970703 5.51326172 1.29296875 6.73828125 C0.92427999 9.58455849 0.24325618 10.25826475 -2 12 C-4.17651367 12.34057617 -4.17651367 12.34057617 -6.66796875 12.29296875 C-7.56064453 12.28330078 -8.45332031 12.27363281 -9.37304688 12.26367188 C-10.76620117 12.2259668 -10.76620117 12.2259668 -12.1875 12.1875 C-13.12787109 12.17396484 -14.06824219 12.16042969 -15.03710938 12.14648438 C-17.35865038 12.11113096 -19.67903653 12.06178674 -22 12 C-22 11.67 -22 11.34 -22 11 C-17.05 10.67 -12.1 10.34 -7 10 C-7 9.67 -7 9.34 -7 9 C-8.65 8.67 -10.3 8.34 -12 8 C-11.67 6.68 -11.34 5.36 -11 4 C-4.25 1.875 -4.25 1.875 -2 3 C-1.67 2.34 -1.34 1.68 -1 1 C-0.67 0.67 -0.34 0.34 0 0 Z " fill="#1F1F1F" transform="translate(124,115)"/>
<path d="M0 0 C0.66 0 1.32 0 2 0 C1.67 2.64 1.34 5.28 1 8 C0.34 8 -0.32 8 -1 8 C-1 16.25 -1 24.5 -1 33 C-1.66 33 -2.32 33 -3 33 C-6.62680437 22.57293743 -5.0684812 12.47224776 -2 2 C-1.34 1.34 -0.68 0.68 0 0 Z " fill="#8EBEC3" transform="translate(85,168)"/>
<path d="M0 0 C0.66 0.33 1.32 0.66 2 1 C2 1.66 2 2.32 2 3 C2.99 3 3.98 3 5 3 C5 3.99 5 4.98 5 6 C13.415 5.505 13.415 5.505 22 5 C22.495 6.485 22.495 6.485 23 8 C10.13 8 -2.74 8 -16 8 C-16 7.67 -16 7.34 -16 7 C-12.04 7 -8.08 7 -4 7 C-4 6.01 -4 5.02 -4 4 C-3.01 4 -2.02 4 -1 4 C-0.67 2.68 -0.34 1.36 0 0 Z " fill="#CDCBC6" transform="translate(77,34)"/>
<path d="M0 0 C6 0 12 0 18 0 C18 1.98 18 3.96 18 6 C17.67 5.34 17.34 4.68 17 4 C15.68 4 14.36 4 13 4 C13 4.99 13 5.98 13 7 C12.01 7.33 11.02 7.66 10 8 C10 7.01 10 6.02 10 5 C6.7 5.33 3.4 5.66 0 6 C0 4.02 0 2.04 0 0 Z " fill="#313031" transform="translate(16,151)"/>
<path d="M0 0 C0 0.33 0 0.66 0 1 C-2.64 1.33 -5.28 1.66 -8 2 C-5.03 2 -2.06 2 1 2 C1.33 1.34 1.66 0.68 2 0 C2.66 0 3.32 0 4 0 C5 3 5 3 3.6875 5.6875 C3.130625 6.450625 2.57375 7.21375 2 8 C1.34 8 0.68 8 0 8 C0 7.34 0 6.68 0 6 C-4.95 6 -9.9 6 -15 6 C-15 5.01 -15 4.02 -15 3 C-10.58899923 -0.96990069 -5.56703067 -0.29186374 0 0 Z " fill="#1AACAB" transform="translate(160,40)"/>
<path d="M0 0 C1.32 0 2.64 0 4 0 C4 5.94 4 11.88 4 18 C2.68 18.33 1.36 18.66 0 19 C-1.51714839 15.96570323 -1.14363916 12.82398333 -1.125 9.5 C-1.12886719 8.81035156 -1.13273437 8.12070312 -1.13671875 7.41015625 C-1.12666646 2.25333293 -1.12666646 2.25333293 0 0 Z " fill="#9C9283" transform="translate(76,44)"/>
<path d="M0 0 C0.66 0 1.32 0 2 0 C2 8.58 2 17.16 2 26 C7.28 26 12.56 26 18 26 C18 26.66 18 27.32 18 28 C15.18743719 28.02684312 12.37512759 28.04676188 9.5625 28.0625 C8.76005859 28.07087891 7.95761719 28.07925781 7.13085938 28.08789062 C5.08704779 28.0965143 3.04316098 28.0522815 1 28 C0 27 0 27 -0.11352539 24.40795898 C-0.10828857 23.28204346 -0.10305176 22.15612793 -0.09765625 20.99609375 C-0.09443359 19.78115234 -0.09121094 18.56621094 -0.08789062 17.31445312 C-0.07951172 16.03505859 -0.07113281 14.75566406 -0.0625 13.4375 C-0.05798828 12.15423828 -0.05347656 10.87097656 -0.04882812 9.54882812 C-0.03699545 6.36583978 -0.02051068 3.18294238 0 0 Z " fill="#7DB3B8" transform="translate(186,90)"/>
<path d="M0 0 C1.32 0 2.64 0 4 0 C5.53266582 3.06533164 5.10276471 6.26754272 5.0625 9.625 C5.05798828 10.33140625 5.05347656 11.0378125 5.04882812 11.765625 C5.03703875 13.51045275 5.01910324 15.255237 5 17 C3.35 17.33 1.7 17.66 0 18 C0 12.06 0 6.12 0 0 Z " fill="#9C9182" transform="translate(66,44)"/>
<path d="M0 0 C1.32 0 2.64 0 4 0 C5.53266582 3.06533164 5.10276471 6.26754272 5.0625 9.625 C5.05798828 10.33140625 5.05347656 11.0378125 5.04882812 11.765625 C5.03703875 13.51045275 5.01910324 15.255237 5 17 C3.0625 17.5625 3.0625 17.5625 1 18 C0 17 0 17 -0.09765625 13.18359375 C-0.09098089 11.60153318 -0.07901875 10.01948841 -0.0625 8.4375 C-0.05798828 7.63119141 -0.05347656 6.82488281 -0.04882812 5.99414062 C-0.03700518 3.99606244 -0.01906914 1.99802217 0 0 Z " fill="#978D7D" transform="translate(85,44)"/>
<path d="M0 0 C0.99 0.33 1.98 0.66 3 1 C1.68 2.32 0.36 3.64 -1 5 C0.32 5 1.64 5 3 5 C3 5.66 3 6.32 3 7 C2.34 7 1.68 7 1 7 C1 8.32 1 9.64 1 11 C0.34 11 -0.32 11 -1 11 C-1 10.34 -1 9.68 -1 9 C-5.06762061 10.35587354 -5.86334252 12.9484594 -7.6875 16.5625 C-8.00783203 17.17802734 -8.32816406 17.79355469 -8.65820312 18.42773438 C-9.44746371 19.9473555 -10.22487915 21.47311811 -11 23 C-11.99 23 -12.98 23 -14 23 C-11.36653094 17.62818923 -8.67006329 12.28965728 -5.875 7 C-5.39804688 6.0925 -4.92109375 5.185 -4.4296875 4.25 C-3 2 -3 2 0 0 Z " fill="#7EB6BB" transform="translate(77,201)"/>
<path d="M0 0 C1.5 1.3125 1.5 1.3125 3 3 C3 3.99 3 4.98 3 6 C3.66 6.33 4.32 6.66 5 7 C4.67 7.66 4.34 8.32 4 9 C3.01 8.67 2.02 8.34 1 8 C0.34 9.65 -0.32 11.3 -1 13 C-1.99 13 -2.98 13 -4 13 C-3.67 11.68 -3.34 10.36 -3 9 C-5.31 9 -7.62 9 -10 9 C-10 8.01 -10 7.02 -10 6 C-7.8125 4.39453125 -7.8125 4.39453125 -5 2.8125 C-4.071875 2.28269531 -3.14375 1.75289062 -2.1875 1.20703125 C-1.465625 0.80871094 -0.74375 0.41039062 0 0 Z " fill="#1F1F1F" transform="translate(138,163)"/>
<path d="M0 0 C1.32 0 2.64 0 4 0 C4.33 1.98 4.66 3.96 5 6 C-0.28 6 -5.56 6 -11 6 C-11.66 4.68 -12.32 3.36 -13 2 C-12 1 -12 1 -9.93359375 0.90234375 C-8.69802734 0.91974609 -8.69802734 0.91974609 -7.4375 0.9375 C-6.61121094 0.94652344 -5.78492188 0.95554688 -4.93359375 0.96484375 C-4.29550781 0.97644531 -3.65742188 0.98804688 -3 1 C-2.67 1.66 -2.34 2.32 -2 3 C-1.34 3 -0.68 3 0 3 C0 2.01 0 1.02 0 0 Z " fill="#A7AE6B" transform="translate(29,155)"/>
<path d="M0 0 C0.33 0.99 0.66 1.98 1 3 C1.66 3.33 2.32 3.66 3 4 C2.67 4.66 2.34 5.32 2 6 C1.443125 5.814375 0.88625 5.62875 0.3125 5.4375 C-1.98068681 4.85395758 -1.98068681 4.85395758 -4.1875 5.4375 C-8.12919383 6.22583877 -11.99371801 6.07855455 -16 6 C-10.86713576 0.74636248 -7.52553987 -1.80612957 0 0 Z " fill="#B0CBBA" transform="translate(211,139)"/>
<path d="M0 0 C1.98 0 3.96 0 6 0 C5.67 5.94 5.34 11.88 5 18 C3.68 18 2.36 18 1 18 C0.67 12.06 0.34 6.12 0 0 Z " fill="#ECE9E4" transform="translate(70,44)"/>
<path d="M0 0 C2.97 0 5.94 0 9 0 C9 1.65 9 3.3 9 5 C8.01 5 7.02 5 6 5 C6 5.99 6 6.98 6 8 C3.03 8 0.06 8 -3 8 C-3 6.68 -3 5.36 -3 4 C-2.01 4 -1.02 4 0 4 C0 2.68 0 1.36 0 0 Z " fill="#F3EECE" transform="translate(148,58)"/>
<path d="M0 0 C1.32 0 2.64 0 4 0 C4.33 5.61 4.66 11.22 5 17 C3.35 17.33 1.7 17.66 0 18 C0 12.06 0 6.12 0 0 Z " fill="#E7E9E5" transform="translate(61,45)"/>
<path d="M0 0 C0.99 0.33 1.98 0.66 3 1 C3.33 1.99 3.66 2.98 4 4 C2.26343905 5.22756895 0.51019623 6.43156853 -1.25 7.625 C-2.22453125 8.29789063 -3.1990625 8.97078125 -4.203125 9.6640625 C-7 11 -7 11 -9.359375 10.2109375 C-9.90078125 9.81132812 -10.4421875 9.41171875 -11 9 C-7.61791761 5.41897159 -4.30323854 2.43226526 0 0 Z " fill="#F5F5F3" transform="translate(153,148)"/>
<path d="M0 0 C2.35448675 -0.05454409 4.70767875 -0.0939279 7.0625 -0.125 C9.02896484 -0.15980469 9.02896484 -0.15980469 11.03515625 -0.1953125 C15.11824299 0.00582478 18.14999053 0.72834538 22 2 C22.33 3.32 22.66 4.64 23 6 C22.34 6 21.68 6 21 6 C21 6.66 21 7.32 21 8 C20.01 8 19.02 8 18 8 C18 7.34 18 6.68 18 6 C17.34 6 16.68 6 16 6 C16 4.68 16 3.36 16 2 C10.39 2 4.78 2 -1 2 C-0.67 1.34 -0.34 0.68 0 0 Z " fill="#607E8D" transform="translate(18,136)"/>
<path d="M0 0 C0.33 0.99 0.66 1.98 1 3 C0.04701223 4.36733028 -0.95374591 5.70264493 -2 7 C-2 7.66 -2 8.32 -2 9 C-2.99 9.495 -2.99 9.495 -4 10 C-4.72159424 11.64363134 -5.39351421 13.31050386 -6 15 C-7.32 15 -8.64 15 -10 15 C-10.33 15.99 -10.66 16.98 -11 18 C-11 17.34 -11 16.68 -11 16 C-11.99 15.67 -12.98 15.34 -14 15 C-12.91731293 11.96847622 -11.99032931 10.99362614 -9.25 9.1875 C-5.41176803 6.60407463 -2.85072388 3.59878618 0 0 Z " fill="#14ADAF" transform="translate(117,197)"/>
<path d="M0 0 C1.58206057 0.00667536 3.16410534 0.0186375 4.74609375 0.03515625 C5.55240234 0.03966797 6.35871094 0.04417969 7.18945312 0.04882812 C9.18753131 0.06065107 11.18557158 0.07858711 13.18359375 0.09765625 C12.85359375 1.41765625 12.52359375 2.73765625 12.18359375 4.09765625 C11.44753906 3.95585937 10.71148437 3.8140625 9.953125 3.66796875 C4.41419147 2.5831453 4.41419147 2.5831453 -0.625 4.3671875 C-2.12726361 6.20291914 -2.12726361 6.20291914 -3.81640625 9.09765625 C-4.14640625 9.09765625 -4.47640625 9.09765625 -4.81640625 9.09765625 C-4.9140625 2.9453125 -4.9140625 2.9453125 -4.81640625 1.09765625 C-3.81640625 0.09765625 -3.81640625 0.09765625 0 0 Z " fill="#33352F" transform="translate(20.81640625,139.90234375)"/>
<path d="M0 0 C1.093125 0.103125 2.18625 0.20625 3.3125 0.3125 C3.3125 4.00668201 2.03070705 6.09086178 0.3125 9.3125 C-1.6675 9.3125 -3.6475 9.3125 -5.6875 9.3125 C-6.8229047 6.52559756 -6.73514304 5.44351837 -5.6875 2.5625 C-3.6875 0.3125 -3.6875 0.3125 0 0 Z " fill="#A5C03D" transform="translate(134.6875,56.6875)"/>
<path d="M0 0 C5.75 -0.125 5.75 -0.125 8 1 C6.25 6.75 6.25 6.75 4 9 C0.375 8.625 0.375 8.625 -3 8 C-1.125 2.25 -1.125 2.25 0 0 Z " fill="#EFF2F1" transform="translate(134,49)"/>
<path d="M0 0 C3.71888239 0.50712033 6.73454239 1.11608215 10 3 C9 6 9 6 6.8125 7.3125 C3.25782353 8.18142092 1.32356365 7.3912592 -2 6 C-1.34 4.02 -0.68 2.04 0 0 Z " fill="#494648" transform="translate(191,136)"/>
<path d="M0 0 C4.29 0 8.58 0 13 0 C13 1.65 13 3.3 13 5 C8.71 5 4.42 5 0 5 C0 3.35 0 1.7 0 0 Z " fill="#AAAAA9" transform="translate(190,103)"/>
<path d="M0 0 C1.134375 0.020625 2.26875 0.04125 3.4375 0.0625 C4.36815133 2.66832371 4.58667407 3.70448224 3.5 6.3125 C3.149375 6.89 2.79875 7.4675 2.4375 8.0625 C-0.2025 8.0625 -2.8425 8.0625 -5.5625 8.0625 C-4.54651535 0.07976343 -4.54651535 0.07976343 0 0 Z " fill="#A4C144" transform="translate(140.5625,41.9375)"/>
<path d="M0 0 C1.32 0.99 2.64 1.98 4 3 C3.04996286 5.48264423 2.09050121 7.96087714 1.125 10.4375 C0.85558594 11.14455078 0.58617187 11.85160156 0.30859375 12.58007812 C-1.7734375 17.88671875 -1.7734375 17.88671875 -4 19 C-3.835 18.236875 -3.67 17.47375 -3.5 16.6875 C-2.83437851 11.77854151 -2.92079922 6.94564886 -3 2 C-2.01 2 -1.02 2 0 2 C0 1.34 0 0.68 0 0 Z " fill="#0EA6AA" transform="translate(133,40)"/>
<path d="M0 0 C4.75 1.875 4.75 1.875 7 3 C6.38461538 9.52307692 6.38461538 9.52307692 4.4375 11.9375 C3.963125 12.288125 3.48875 12.63875 3 13 C2.01 12.67 1.02 12.34 0 12 C0 10 0 10 2 8 C0.68 7.01 -0.64 6.02 -2 5 C-1.34 4.34 -0.68 3.68 0 3 C0 2.01 0 1.02 0 0 Z " fill="#EBDE15" transform="translate(172,42)"/>
<path d="M0 0 C0.99 0 1.98 0 3 0 C3.33 4.29 3.66 8.58 4 13 C2.2984375 13.2165625 2.2984375 13.2165625 0.5625 13.4375 C-2.80777201 13.61171478 -2.80777201 13.61171478 -4 15 C-5.66617115 15.04063832 -7.33388095 15.042721 -9 15 C-9.33 14.34 -9.66 13.68 -10 13 C-6.7 12.34 -3.4 11.68 0 11 C0 7.37 0 3.74 0 0 Z " fill="#D2C6A8" transform="translate(106,151)"/>
<path d="M0 0 C0.99 0 1.98 0 3 0 C3 0.66 3 1.32 3 2 C4.98 2 6.96 2 9 2 C8.67 3.65 8.34 5.3 8 7 C6.02 7 4.04 7 2 7 C1.67 6.34 1.34 5.68 1 5 C0.34 5.66 -0.32 6.32 -1 7 C-1.99 7 -2.98 7 -4 7 C-2.92598892 4.08482708 -2.22189824 2.22189824 0 0 Z " fill="#C5D085" transform="translate(22,142)"/>
<path d="M0 0 C2.23960944 3.35941416 2.11387451 5.10257927 2 9.03125 C1.92437822 11.08749187 1.92437822 11.08749187 2.5625 13.375 C3.26855939 17.61135634 2.53480468 21.7627014 2 26 C2.7425 25.79375 3.485 25.5875 4.25 25.375 C7 25 7 25 11 27 C7.37 27 3.74 27 0 27 C0 18.09 0 9.18 0 0 Z " fill="#292826" transform="translate(188,89)"/>
<path d="M0 0 C2 2 2 2 2.1953125 4.6015625 C2.17210937 5.59929688 2.14890625 6.59703125 2.125 7.625 C2.10695312 8.62789062 2.08890625 9.63078125 2.0703125 10.6640625 C2.03550781 11.82035156 2.03550781 11.82035156 2 13 C-0.97 13 -3.94 13 -7 13 C-6.67 12.34 -6.34 11.68 -6 11 C-5.34 11 -4.68 11 -4 11 C-3.67 7.7 -3.34 4.4 -3 1 C-2.01 0.67 -1.02 0.34 0 0 Z " fill="#14AEAC" transform="translate(181,43)"/>
<path d="M0 0 C0.66 0 1.32 0 2 0 C2 1.98 2 3.96 2 6 C3.32 6 4.64 6 6 6 C6 9.3 6 12.6 6 16 C4.68 15.34 3.36 14.68 2 14 C2.33 12.35 2.66 10.7 3 9 C1.68 8.67 0.36 8.34 -1 8 C-1.125 2.25 -1.125 2.25 0 0 Z " fill="#9AC2BD" transform="translate(87,128)"/>
<path d="M0 0 C0.66 0 1.32 0 2 0 C2 7.92 2 15.84 2 24 C1.67 24 1.34 24 1 24 C0.34 18.72 -0.32 13.44 -1 8 C-1.66 8 -2.32 8 -3 8 C-3 7.34 -3 6.68 -3 6 C-3.66 5.67 -4.32 5.34 -5 5 C-4.01 4.67 -3.02 4.34 -2 4 C-0.79117904 1.99983534 -0.79117904 1.99983534 0 0 Z " fill="#E8CB54" transform="translate(46,88)"/>
<path d="M0 0 C5.28 0 10.56 0 16 0 C16 0.66 16 1.32 16 2 C15.01 2.33 14.02 2.66 13 3 C14.65 3.33 16.3 3.66 18 4 C18 4.33 18 4.66 18 5 C14.7 5 11.4 5 8 5 C7.67 4.34 7.34 3.68 7 3 C6.01 3.33 5.02 3.66 4 4 C4 3.34 4 2.68 4 2 C2.68 2 1.36 2 0 2 C0 1.34 0 0.68 0 0 Z " fill="#FABD09" transform="translate(144,46)"/>
<path d="M0 0 C2.64 0.33 5.28 0.66 8 1 C8 1.66 8 2.32 8 3 C9.32 3 10.64 3 12 3 C12 3.99 12 4.98 12 6 C7.05 5.67 2.1 5.34 -3 5 C-3 4.01 -3 3.02 -3 2 C-2.01 2 -1.02 2 0 2 C0 1.34 0 0.68 0 0 Z " fill="#F5BC0E" transform="translate(152,53)"/>
<path d="M0 0 C1.32 0.33 2.64 0.66 4 1 C4 1.66 4 2.32 4 3 C3.34 3 2.68 3 2 3 C1.67 3.99 1.34 4.98 1 6 C0.34 6 -0.32 6 -1 6 C-1 7.65 -1 9.3 -1 11 C0.98 11 2.96 11 5 11 C4.67 11.99 4.34 12.98 4 14 C1.03 14 -1.94 14 -5 14 C-5.33 14.99 -5.66 15.98 -6 17 C-5.43454163 13.04179141 -4.19097652 10.3340947 -2 7 C-2.66 6.67 -3.32 6.34 -4 6 C-3.34 5.34 -2.68 4.68 -2 4 C-1.30251417 2.68252676 -0.63040043 1.35085807 0 0 Z " fill="#13AAB1" transform="translate(86,114)"/>
<path d="M0 0 C1.084021 0.00523682 2.16804199 0.01047363 3.28491211 0.01586914 C5.03964844 0.02070312 5.03964844 0.02070312 6.82983398 0.02563477 C8.67738281 0.03820312 8.67738281 0.03820312 10.56225586 0.05102539 C12.41560547 0.05779297 12.41560547 0.05779297 14.30639648 0.06469727 C17.37089703 0.07652931 20.43530307 0.09301366 23.49975586 0.11352539 C20.29922396 2.24721332 19.55931192 2.34975981 15.90209961 2.27368164 C15.01844727 2.26272461 14.13479492 2.25176758 13.22436523 2.24047852 C12.30461914 2.21920898 11.38487305 2.19793945 10.43725586 2.17602539 C8.61311506 2.14165568 6.78888848 2.11150048 4.96459961 2.08618164 C4.15627686 2.06821533 3.3479541 2.05024902 2.51513672 2.03173828 C0.42806688 1.97829551 0.42806688 1.97829551 -1.50024414 3.11352539 C-1.55435101 4.88402228 -1.59308533 6.65499388 -1.62524414 8.42602539 C-1.64844727 9.4121582 -1.67165039 10.39829102 -1.69555664 11.41430664 C-1.70707053 14.33759066 -1.70707053 14.33759066 0.49975586 17.11352539 C-0.82024414 16.78352539 -2.14024414 16.45352539 -3.50024414 16.11352539 C-3.52709509 13.63428738 -3.54700962 11.15533699 -3.56274414 8.67602539 C-3.5753125 7.61544922 -3.5753125 7.61544922 -3.58813477 6.53344727 C-3.59678002 4.7265898 -3.55244426 2.91964936 -3.50024414 1.11352539 C-2.50024414 0.11352539 -2.50024414 0.11352539 0 0 Z " fill="#B7B6B7" transform="translate(101.500244140625,109.886474609375)"/>
<path d="M0 0 C0.99 0 1.98 0 3 0 C3 5.61 3 11.22 3 17 C1.68 16.67 0.36 16.34 -1 16 C-0.67 10.72 -0.34 5.44 0 0 Z " fill="#EEECE7" transform="translate(81,45)"/>
<path d="M0 0 C4.99911924 0.47610659 7.97832683 2.03162219 12 5 C11.67 5.99 11.34 6.98 11 8 C6.24518354 7.42365861 3.02951788 5.44931479 -1 3 C-0.67 2.01 -0.34 1.02 0 0 Z " fill="#F3F4F2" transform="translate(93,208)"/>
<path d="M0 0 C0.33 1.98 0.66 3.96 1 6 C0.67 5.34 0.34 4.68 0 4 C-1.65 4 -3.3 4 -5 4 C-5 5.32 -5 6.64 -5 8 C-6.32 7.67 -7.64 7.34 -9 7 C-8.1875 3.5625 -8.1875 3.5625 -7 0 C-3.86650268 -1.04449911 -3.01031744 -0.93423645 0 0 Z " fill="#E6D6C5" transform="translate(114,143)"/>
<path d="M0 0 C2.64 0 5.28 0 8 0 C8 0.99 8 1.98 8 3 C7.01 3 6.02 3 5 3 C5 4.32 5 5.64 5 7 C2.69 7 0.38 7 -2 7 C-2.33 6.01 -2.66 5.02 -3 4 C-2.01 4 -1.02 4 0 4 C0 2.68 0 1.36 0 0 Z " fill="#B0C441" transform="translate(140,59)"/>
<path d="M0 0 C2.82405426 0.05637858 3.75432284 0.08136713 6.0625 1.8125 C6.5575 2.555 6.5575 2.555 7.0625 3.3125 C6.7325 3.9725 6.4025 4.6325 6.0625 5.3125 C4.4125 4.3225 2.7625 3.3325 1.0625 2.3125 C1.0625 3.3025 1.0625 4.2925 1.0625 5.3125 C1.7225 5.6425 2.3825 5.9725 3.0625 6.3125 C1.0825 6.9725 -0.8975 7.6325 -2.9375 8.3125 C-2.6075 6.6625 -2.2775 5.0125 -1.9375 3.3125 C-3.2575 2.9825 -4.5775 2.6525 -5.9375 2.3125 C-3.9375 0.3125 -3.9375 0.3125 0 0 Z " fill="#EBE647" transform="translate(170.9375,39.6875)"/>
<path d="M0 0 C1.65 0 3.3 0 5 0 C6.35439668 2.70879335 6.06501451 5.00933268 6 8 C4 5 4 5 4 3 C3.34 3 2.68 3 2 3 C2.33 7.29 2.66 11.58 3 16 C2.01 15.34 1.02 14.68 0 14 C-0.29296875 10.7421875 -0.29296875 10.7421875 -0.1875 6.875 C-0.16042969 5.59367188 -0.13335937 4.31234375 -0.10546875 2.9921875 C-0.07066406 2.00476563 -0.03585938 1.01734375 0 0 Z " fill="#F4C48C" transform="translate(109,147)"/>
<path d="M0 0 C1.32 0.66 2.64 1.32 4 2 C4 2.66 4 3.32 4 4 C-3.26 4 -10.52 4 -18 4 C-17.67 3.34 -17.34 2.68 -17 2 C-14.19921875 1.55078125 -14.19921875 1.55078125 -10.6875 1.3125 C-9.53636719 1.22613281 -8.38523438 1.13976562 -7.19921875 1.05078125 C-4.49725969 1.00789301 -2.53956093 1.16602073 0 2 C0 1.34 0 0.68 0 0 Z " fill="#A96B35" transform="translate(208,143)"/>
<path d="M0 0 C0.66 0 1.32 0 2 0 C2 0.66 2 1.32 2 2 C2.99 2 3.98 2 5 2 C5 1.34 5 0.68 5 0 C5.66 0 6.32 0 7 0 C8.32229189 2.64458379 8.09677194 4.67761301 8.0625 7.625 C8.05347656 8.62789062 8.04445313 9.63078125 8.03515625 10.6640625 C8.02355469 11.43492187 8.01195312 12.20578125 8 13 C7.67 13 7.34 13 7 13 C7 11.02 7 9.04 7 7 C6.34 7 5.68 7 5 7 C5 6.01 5 5.02 5 4 C3.68 4 2.36 4 1 4 C1.33 4.99 1.66 5.98 2 7 C1.01 7.33 0.02 7.66 -1 8 C-0.67 5.36 -0.34 2.72 0 0 Z " fill="#486871" transform="translate(34,142)"/>
<path d="M0 0 C3.96 0 7.92 0 12 0 C12 0.99 12 1.98 12 3 C10.39796533 3.36368892 8.79325797 3.71561952 7.1875 4.0625 C6.29417969 4.25972656 5.40085937 4.45695313 4.48046875 4.66015625 C2 5 2 5 -1 4 C-0.67 2.68 -0.34 1.36 0 0 Z " fill="#B2B2B2" transform="translate(98,134)"/>
<path d="M0 0 C0.99 0.33 1.98 0.66 3 1 C3 1.99 3 2.98 3 4 C2.34 4 1.68 4 1 4 C1.66 4.78375 2.32 5.5675 3 6.375 C5 9 5 9 5 11 C2.69 11 0.38 11 -2 11 C-2.19622241 6.78121808 -1.80230168 3.82989106 0 0 Z " fill="#09A3B1" transform="translate(143,47)"/>
<path d="M0 0 C9.24 0 18.48 0 28 0 C23.5 2.25 23.5 2.25 19.890625 1.9765625 C19.13652344 1.925 18.38242188 1.8734375 17.60546875 1.8203125 C16.82816406 1.75585938 16.05085938 1.69140625 15.25 1.625 C14.45722656 1.56828125 13.66445312 1.5115625 12.84765625 1.453125 C10.89768265 1.31216305 8.94871329 1.1574288 7 1 C7 1.66 7 2.32 7 3 C4.69 3 2.38 3 0 3 C0 2.01 0 1.02 0 0 Z " fill="#9D6128" transform="translate(185,163)"/>
<path d="M0 0 C6.6 0 13.2 0 20 0 C20 0.66 20 1.32 20 2 C13.4 2.33 6.8 2.66 0 3 C0 2.01 0 1.02 0 0 Z " fill="#4A4B4A" transform="translate(14,138)"/>
<path d="M0 0 C0.66 0 1.32 0 2 0 C2 0.66 2 1.32 2 2 C2.99 2.33 3.98 2.66 5 3 C4.01 3 3.02 3 2 3 C2 3.99 2 4.98 2 6 C3.32 6 4.64 6 6 6 C6.33 5.01 6.66 4.02 7 3 C7 4.32 7 5.64 7 7 C5.35 7 3.7 7 2 7 C2 7.66 2 8.32 2 9 C2.99 9.33 3.98 9.66 5 10 C3.02 10.33 1.04 10.66 -1 11 C-1.02688151 9.35425434 -1.04634123 7.70838587 -1.0625 6.0625 C-1.07410156 5.14597656 -1.08570312 4.22945313 -1.09765625 3.28515625 C-1 1 -1 1 0 0 Z " fill="#120E0F" transform="translate(100,112)"/>
<path d="M0 0 C0.33 0 0.66 0 1 0 C1.04898437 0.90363281 1.09796875 1.80726563 1.1484375 2.73828125 C1.22320312 3.91777344 1.29796875 5.09726563 1.375 6.3125 C1.44460938 7.48425781 1.51421875 8.65601563 1.5859375 9.86328125 C1.78613747 13.15699887 1.78613747 13.15699887 4 16 C6.609621 16.38411275 9.0058074 16.60293197 11.625 16.6875 C12.33140625 16.72166016 13.0378125 16.75582031 13.765625 16.79101562 C15.50985688 16.87351308 17.25490395 16.93843335 19 17 C19 17.33 19 17.66 19 18 C12.73 18 6.46 18 0 18 C0 12.06 0 6.12 0 0 Z " fill="#474945" transform="translate(14,144)"/>
<path d="M0 0 C0.680625 0.78375 1.36125 1.5675 2.0625 2.375 C5.51308916 5.45850521 7.56566662 6.04357515 12 7 C12 7.33 12 7.66 12 8 C10.21128822 8.38885039 8.41887126 8.76069196 6.625 9.125 C5.62726563 9.33382812 4.62953125 9.54265625 3.6015625 9.7578125 C2.74304688 9.83773437 1.88453125 9.91765625 1 10 C0.34 9.34 -0.32 8.68 -1 8 C-0.34 7.67 0.32 7.34 1 7 C0.34 6.34 -0.32 5.68 -1 5 C-0.625 2.375 -0.625 2.375 0 0 Z " fill="#1AADB3" transform="translate(89,156)"/>
<path d="M0 0 C1.07878418 0.05236816 2.15756836 0.10473633 3.26904297 0.15869141 C5.01894531 0.23603516 5.01894531 0.23603516 6.80419922 0.31494141 C8.02751953 0.37939453 9.25083984 0.44384766 10.51123047 0.51025391 C11.74228516 0.56697266 12.97333984 0.62369141 14.24169922 0.68212891 C17.29043853 0.82393073 20.33839435 0.97537364 23.38623047 1.13525391 C23.38623047 1.46525391 23.38623047 1.79525391 23.38623047 2.13525391 C10.02123047 2.63025391 10.02123047 2.63025391 -3.61376953 3.13525391 C-3.94376953 5.11525391 -4.27376953 7.09525391 -4.61376953 9.13525391 C-4.94376953 9.13525391 -5.27376953 9.13525391 -5.61376953 9.13525391 C-4.62533529 0.23934576 -4.62533529 0.23934576 0 0 Z " fill="#041414" transform="translate(99.61376953125,88.86474609375)"/>
<path d="M0 0 C1.32 0.33 2.64 0.66 4 1 C4 5 4 9 4 13 C3.01 13.33 2.02 13.66 1 14 C0.67 9.38 0.34 4.76 0 0 Z " fill="#A09485" transform="translate(85,44)"/>
<path d="M0 0 C3.96 0 7.92 0 12 0 C12 0.33 12 0.66 12 1 C8.37 1 4.74 1 1 1 C1.66 2.32 2.32 3.64 3 5 C3 5.99 3 6.98 3 8 C4.11375 7.95875 5.2275 7.9175 6.375 7.875 C10 8 10 8 12 10 C4.74418605 10.48372093 4.74418605 10.48372093 1.5 8.375 C0 6 0 6 0 0 Z " fill="#242728" transform="translate(94,151)"/>
<path d="M0 0 C6.27 0 12.54 0 19 0 C19 0.33 19 0.66 19 1 C16.03 1 13.06 1 10 1 C9.67 2.98 9.34 4.96 9 7 C8.01 6.67 7.02 6.34 6 6 C6 4.68 6 3.36 6 2 C3.03 1.505 3.03 1.505 0 1 C0 0.67 0 0.34 0 0 Z " fill="#0B0D0B" transform="translate(102,111)"/>
<path d="M0 0 C0.99 0.33 1.98 0.66 3 1 C3.33 3.31 3.66 5.62 4 8 C3.01 8 2.02 8 1 8 C0.67 9.98 0.34 11.96 0 14 C-0.33 14 -0.66 14 -1 14 C-1.02685938 11.85423363 -1.04633088 9.70837355 -1.0625 7.5625 C-1.07410156 6.36753906 -1.08570312 5.17257813 -1.09765625 3.94140625 C-1 1 -1 1 0 0 Z " fill="#E1C79E" transform="translate(117,170)"/>
<path d="M0 0 C1.63001953 0.01353516 1.63001953 0.01353516 3.29296875 0.02734375 C4.12441406 0.03894531 4.95585938 0.05054688 5.8125 0.0625 C5.8125 1.0525 5.8125 2.0425 5.8125 3.0625 C0.8625 3.0625 -4.0875 3.0625 -9.1875 3.0625 C-9.1875 2.4025 -9.1875 1.7425 -9.1875 1.0625 C-5.90230525 -0.03256492 -3.45086585 -0.03710608 0 0 Z " fill="#989897" transform="translate(120.1875,133.9375)"/>
<path d="M0 0 C4.95 0 9.9 0 15 0 C13.68 0.33 12.36 0.66 11 1 C11 1.66 11 2.32 11 3 C9.02 3 7.04 3 5 3 C5 2.34 5 1.68 5 1 C3.68 1 2.36 1 1 1 C1 3.31 1 5.62 1 8 C0.34 7.34 -0.32 6.68 -1 6 C-0.67 4.02 -0.34 2.04 0 0 Z " fill="#A6CACF" transform="translate(189,83)"/>
<path d="M0 0 C0.68359375 1.640625 0.68359375 1.640625 1 4 C-0.21484375 6.796875 -0.21484375 6.796875 -1.9375 9.75 C-2.50339844 10.73484375 -3.06929688 11.7196875 -3.65234375 12.734375 C-4.09707031 13.48203125 -4.54179688 14.2296875 -5 15 C-5.99 15 -6.98 15 -8 15 C-2.81321185 4.44191344 -2.81321185 4.44191344 0 0 Z " fill="#91BBC1" transform="translate(71,209)"/>
<path d="M0 0 C0.66 0.804375 1.32 1.60875 2 2.4375 C5.87979228 5.75148924 8.00014825 5.74577025 13 6 C11.5 7.625 11.5 7.625 9 9 C6.12189498 8.84642523 3.62333374 8.18770714 1 7 C-0.5625 5.0625 -0.5625 5.0625 -1 3 C-0.67 2.01 -0.34 1.02 0 0 Z " fill="#97BBBE" transform="translate(93,155)"/>
<path d="M0 0 C0 0.33 0 0.66 0 1 C-0.84304687 1.04898438 -1.68609375 1.09796875 -2.5546875 1.1484375 C-3.65039062 1.22320312 -4.74609375 1.29796875 -5.875 1.375 C-7.51082031 1.47941406 -7.51082031 1.47941406 -9.1796875 1.5859375 C-12.13046474 1.73253491 -12.13046474 1.73253491 -14 4 C-14.99 4 -15.98 4 -17 4 C-17 3.01 -17 2.02 -17 1 C-17.66 1 -18.32 1 -19 1 C-19.33 1.66 -19.66 2.32 -20 3 C-20.66 2.34 -21.32 1.68 -22 1 C-15.48129371 -2.25935315 -6.95892772 -0.9624049 0 0 Z " fill="#EEEFEF" transform="translate(126,137)"/>
<path d="M0 0 C2 1.625 2 1.625 4 4 C4.25 7.25 4.25 7.25 4 10 C2.68 10.33 1.36 10.66 0 11 C0 7.37 0 3.74 0 0 Z " fill="#94BFB8" transform="translate(130,108)"/>
<path d="M0 0 C0 0.66 0 1.32 0 2 C-5.28 2 -10.56 2 -16 2 C-16 1.34 -16 0.68 -16 0 C-10.47032059 -0.71033431 -5.50016964 -1.30267176 0 0 Z " fill="#F5BA0C" transform="translate(178,64)"/>
<path d="M0 0 C0.66 0 1.32 0 2 0 C1.67 2.64 1.34 5.28 1 8 C2.65 8 4.3 8 6 8 C5.67 8.66 5.34 9.32 5 10 C4.34 10 3.68 10 3 10 C2.71125 10.804375 2.4225 11.60875 2.125 12.4375 C1 15 1 15 -1 16 C-0.67 10.72 -0.34 5.44 0 0 Z " fill="#11ABB4" transform="translate(85,128)"/>
<path d="M0 0 C0.33 0.99 0.66 1.98 1 3 C9.415 2.505 9.415 2.505 18 2 C18.33 2.99 18.66 3.98 19 5 C12.56744599 5.12086218 6.38226945 4.82351864 0 4 C0 2.68 0 1.36 0 0 Z " fill="#CED3D3" transform="translate(81,37)"/>
<path d="M0 0 C0 1.98 0 3.96 0 6 C-0.99 6 -1.98 6 -3 6 C-2.67 4.68 -2.34 3.36 -2 2 C-4.31 2 -6.62 2 -9 2 C-9 1.01 -9 0.02 -9 -1 C-5.79937313 -2.60031344 -3.27728194 -1.03173691 0 0 Z " fill="#5D5D5F" transform="translate(137,170)"/>
<path d="M0 0 C0.99 0.33 1.98 0.66 3 1 C3.33 1.99 3.66 2.98 4 4 C2.68 4.99 1.36 5.98 0 7 C-1.32 6.34 -2.64 5.68 -4 5 C-2.25 1.125 -2.25 1.125 0 0 Z " fill="#E7F3F2" transform="translate(153,148)"/>
<path d="M0 0 C1.98 0 3.96 0 6 0 C5.01 0.33 4.02 0.66 3 1 C2.34 6.28 1.68 11.56 1 17 C0.67 17 0.34 17 0 17 C-0.19436491 14.54203147 -0.3807742 12.08390706 -0.5625 9.625 C-0.61857422 8.92632812 -0.67464844 8.22765625 -0.73242188 7.5078125 C-1.11328125 2.2265625 -1.11328125 2.2265625 0 0 Z " fill="#8BB5B7" transform="translate(11,137)"/>
<path d="M0 0 C0.99 0.33 1.98 0.66 3 1 C3.99 0.67 4.98 0.34 6 0 C6 0.99 6 1.98 6 3 C5.01 3 4.02 3 3 3 C3 5.31 3 7.62 3 10 C2.731875 9.360625 2.46375 8.72125 2.1875 8.0625 C1.11332248 5.66868314 1.11332248 5.66868314 -2 5 C-2 4.34 -2 3.68 -2 3 C-1.34 3 -0.68 3 0 3 C0 2.01 0 1.02 0 0 Z " fill="#DFB82A" transform="translate(146,48)"/>
<path d="M0 0 C0.99 0.33 1.98 0.66 3 1 C3.33 2.98 3.66 4.96 4 7 C3.01 7.33 2.02 7.66 1 8 C0.67 7.01 0.34 6.02 0 5 C-1.98 5.99 -1.98 5.99 -4 7 C-3.39816251 4.97954558 -2.72693904 2.97888961 -2 1 C-1.34 0.67 -0.68 0.34 0 0 Z " fill="#10AEAD" transform="translate(123,189)"/>
<path d="M0 0 C0.66 0 1.32 0 2 0 C1.67 2.64 1.34 5.28 1 8 C0.34 8 -0.32 8 -1 8 C-1 10.64 -1 13.28 -1 16 C-1.33 16 -1.66 16 -2 16 C-3.52940159 5.35619163 -3.52940159 5.35619163 -1 1 C-0.67 0.67 -0.34 0.34 0 0 Z " fill="#A6C1BC" transform="translate(85,168)"/>
<path d="M0 0 C0.66 0 1.32 0 2 0 C2.33 0.66 2.66 1.32 3 2 C4.97888961 2.72693904 6.97954558 3.39816251 9 4 C9 5.32 9 6.64 9 8 C7.35 8 5.7 8 4 8 C4 7.01 4 6.02 4 5 C2.68 4.67 1.36 4.34 0 4 C0 2.68 0 1.36 0 0 Z " fill="#94B8B7" transform="translate(12,160)"/>
<path d="M0 0 C0.99 0.33 1.98 0.66 3 1 C4.62567079 1.14715199 6.25586857 1.24721867 7.88671875 1.31640625 C8.82451172 1.35830078 9.76230469 1.40019531 10.72851562 1.44335938 C11.70498047 1.48267578 12.68144531 1.52199219 13.6875 1.5625 C15.16959961 1.62727539 15.16959961 1.62727539 16.68164062 1.69335938 C19.12095546 1.79941654 21.56037113 1.90147714 24 2 C24 2.33 24 2.66 24 3 C20.6046836 3.19777236 17.20874308 3.38139685 13.8125 3.5625 C12.85279297 3.61857422 11.89308594 3.67464844 10.90429688 3.73242188 C9.50727539 3.80493164 9.50727539 3.80493164 8.08203125 3.87890625 C7.22843018 3.9260376 6.3748291 3.97316895 5.49536133 4.02172852 C2.87646242 3.99892429 0.54596848 3.59213206 -2 3 C-1.34 2.01 -0.68 1.02 0 0 Z " fill="#925E21" transform="translate(188,145)"/>
<path d="M0 0 C2.97 0 5.94 0 9 0 C9 0.66 9 1.32 9 2 C9.99 2 10.98 2 12 2 C11.67 3.32 11.34 4.64 11 6 C11 5.34 11 4.68 11 4 C8.36 4 5.72 4 3 4 C3 3.34 3 2.68 3 2 C2.01 1.34 1.02 0.68 0 0 Z " fill="#B7BEB5" transform="translate(192,95)"/>
<path d="M0 0 C0.66 0.33 1.32 0.66 2 1 C2.59355614 3.64860427 2.74209269 6.29197322 3 9 C2.34 9 1.68 9 1 9 C0.67 8.34 0.34 7.68 0 7 C-3.04581269 6.53045739 -3.04581269 6.53045739 -6.5625 6.375 C-7.76003906 6.30023438 -8.95757812 6.22546875 -10.19140625 6.1484375 C-11.11824219 6.09945312 -12.04507813 6.05046875 -13 6 C-13 5.67 -13 5.34 -13 5 C-8.71 5 -4.42 5 0 5 C0 3.35 0 1.7 0 0 Z " fill="#0AADAC" transform="translate(181,63)"/>
<path d="M0 0 C2.95749791 3.46741134 5.07848152 6.86873527 7 11 C6.01 11 5.02 11 4 11 C4 10.34 4 9.68 4 9 C3.360625 8.773125 2.72125 8.54625 2.0625 8.3125 C0 7 0 7 -0.8125 4.5 C-1 2 -1 2 0 0 Z " fill="#96B6B9" transform="translate(133,179)"/>
<path d="M0 0 C0.33 0 0.66 0 1 0 C0.67 4.62 0.34 9.24 0 14 C-0.99 13.67 -1.98 13.34 -3 13 C-2.88610125 11.20759337 -2.75852313 9.41605165 -2.625 7.625 C-2.55539063 6.62726563 -2.48578125 5.62953125 -2.4140625 4.6015625 C-2 2 -2 2 0 0 Z " fill="#94BABF" transform="translate(93,92)"/>
<path d="M0 0 C0.66 0.33 1.32 0.66 2 1 C1.34 2.65 0.68 4.3 0 6 C0.66 6.33 1.32 6.66 2 7 C1.01 7 0.02 7 -1 7 C-1 7.66 -1 8.32 -1 9 C-1.66 9 -2.32 9 -3 9 C-4.125 3.25 -4.125 3.25 -3 1 C-2.01 0.67 -1.02 0.34 0 0 Z " fill="#FAC522" transform="translate(168,42)"/>
<path d="M0 0 C0.66 0 1.32 0 2 0 C1.43628586 3.26954202 0.50037734 4.82575883 -2 7 C-3.32 6.34 -4.64 5.68 -6 5 C-5.67 3.68 -5.34 2.36 -5 1 C-4.01 1 -3.02 1 -2 1 C-2 1.66 -2 2.32 -2 3 C-1.34 3 -0.68 3 0 3 C0 2.01 0 1.02 0 0 Z " fill="#121515" transform="translate(78,209)"/>
<path d="M0 0 C0.99 0 1.98 0 3 0 C3 3.3 3 6.6 3 10 C2.01 10 1.02 10 0 10 C0 6.7 0 3.4 0 0 Z " fill="#A3A2A1" transform="translate(106,151)"/>
<path d="M0 0 C1.98 0 3.96 0 6 0 C6 1.65 6 3.3 6 5 C4.02 5 2.04 5 0 5 C0 3.35 0 1.7 0 0 Z " fill="#A4661E" transform="translate(209,153)"/>
<path d="M0 0 C2.475 0.99 2.475 0.99 5 2 C4.67 2.66 4.34 3.32 4 4 C3.34 4 2.68 4 2 4 C2 4.66 2 5.32 2 6 C2.66 6 3.32 6 4 6 C3.67 6.66 3.34 7.32 3 8 C1.35 8 -0.3 8 -2 8 C-1.34 6.68 -0.68 5.36 0 4 C-0.66 4 -1.32 4 -2 4 C-2 2 -2 2 0 0 Z " fill="#F3DE45" transform="translate(170,48)"/>
<path d="M0 0 C1.67542976 0.28604898 3.34385343 0.61781233 5 1 C5.59732819 3.76264289 6 6.16032769 6 9 C5.01 9 4.02 9 3 9 C2.855625 8.401875 2.71125 7.80375 2.5625 7.1875 C2.1127561 5.43849596 1.57107659 3.71322977 1 2 C0.34 1.67 -0.32 1.34 -1 1 C-0.67 0.67 -0.34 0.34 0 0 Z " fill="#09AEBA" transform="translate(98,35)"/>
<path d="M0 0 C0.66 0 1.32 0 2 0 C4.84450614 3.71973879 5.3227506 6.37390802 5 11 C2.63849961 9.81924981 2.12758006 8.87535361 0.8125 6.625 C0.44769531 6.01914063 0.08289063 5.41328125 -0.29296875 4.7890625 C-1 3 -1 3 0 0 Z " fill="#9CBFC3" transform="translate(128,173)"/>
<path d="M0 0 C0.66 0 1.32 0 2 0 C2 2.64 2 5.28 2 8 C0.68 8 -0.64 8 -2 8 C-2.125 5.125 -2.125 5.125 -2 2 C-1.34 1.34 -0.68 0.68 0 0 Z " fill="#F3CB96" transform="translate(91,126)"/>
<path d="M0 0 C0.99 0 1.98 0 3 0 C3 2.31 3 4.62 3 7 C1.0625 6.6875 1.0625 6.6875 -1 6 C-1.33 5.01 -1.66 4.02 -2 3 C-1.34 2.01 -0.68 1.02 0 0 Z " fill="#F6C691" transform="translate(90,106)"/>
<path d="M0 0 C5.26053037 -0.31563182 8.44573816 0.33409063 13 3 C9.93399547 4.02200151 8.18823183 4.37955141 5 4 C2.1875 2 2.1875 2 0 0 Z " fill="#DCE2E5" transform="translate(83,35)"/>
<path d="M0 0 C2.5 1.75 2.5 1.75 5 4 C5 5.32 5 6.64 5 8 C3.125 7.875 3.125 7.875 1 7 C-0.25 3.9375 -0.25 3.9375 -1 1 C-0.67 0.67 -0.34 0.34 0 0 Z " fill="#2E383B" transform="translate(171,173)"/>
<path d="M0 0 C0.66 1.32 1.32 2.64 2 4 C3.32 4 4.64 4 6 4 C6 4.99 6 5.98 6 7 C0.25 7.125 0.25 7.125 -2 6 C-2 4.35 -2 2.7 -2 1 C-1.34 0.67 -0.68 0.34 0 0 Z " fill="#92C3C4" transform="translate(87,119)"/>
<path d="M0 0 C1.32 0.33 2.64 0.66 4 1 C3.67 1.66 3.34 2.32 3 3 C4.32 3.33 5.64 3.66 7 4 C5.35 4.33 3.7 4.66 2 5 C2 5.66 2 6.32 2 7 C1.34 7 0.68 7 0 7 C0 4.69 0 2.38 0 0 Z " fill="#F1F1F1" transform="translate(190,84)"/>
<path d="M0 0 C0.99 0 1.98 0 3 0 C3 0.66 3 1.32 3 2 C3.66 2 4.32 2 5 2 C5.99 4.31 6.98 6.62 8 9 C7.01 9 6.02 9 5 9 C5 7.68 5 6.36 5 5 C3.68 5 2.36 5 1 5 C0.67 3.35 0.34 1.7 0 0 Z " fill="#2F3842" transform="translate(196,216)"/>
<path d="M0 0 C2.75 0.25 2.75 0.25 5 1 C5.33 1.99 5.66 2.98 6 4 C2.7 4 -0.6 4 -4 4 C-2.3125 1.9375 -2.3125 1.9375 0 0 Z " fill="#F3F7F1" transform="translate(202,141)"/>
<path d="M0 0 C2.97 0 5.94 0 9 0 C9 0.66 9 1.32 9 2 C7.35 2 5.7 2 4 2 C4 2.66 4 3.32 4 4 C2.35 4 0.7 4 -1 4 C-0.67 2.68 -0.34 1.36 0 0 Z " fill="#3F3F3F" transform="translate(113,119)"/>
<path d="M0 0 C3.96 0 7.92 0 12 0 C12 1.32 12 2.64 12 4 C11.01 4 10.02 4 9 4 C9 3.34 9 2.68 9 2 C6.03 1.67 3.06 1.34 0 1 C0 0.67 0 0.34 0 0 Z " fill="#E3EEE4" transform="translate(192,93)"/>
<path d="M0 0 C1.670625 0.061875 1.670625 0.061875 3.375 0.125 C2.0625 1.625 2.0625 1.625 0.375 3.125 C-0.615 3.125 -1.605 3.125 -2.625 3.125 C-2.955 3.785 -3.285 4.445 -3.625 5.125 C-4.60520375 6.1444119 -5.60303008 7.14746356 -6.625 8.125 C-5.59036145 0.19277108 -5.59036145 0.19277108 0 0 Z " fill="#B9C94F" transform="translate(134.625,56.875)"/>
<path d="M0 0 C1.32 0.66 2.64 1.32 4 2 C2 5 2 5 0 6 C0.33 6.99 0.66 7.98 1 9 C-0.32 8.67 -1.64 8.34 -3 8 C-1.125 2.25 -1.125 2.25 0 0 Z " fill="#E7F2E6" transform="translate(134,49)"/>
<path d="M0 0 C0.99 0 1.98 0 3 0 C3.22384382 1.72722728 3.42839969 3.45696007 3.625 5.1875 C3.74101563 6.15042969 3.85703125 7.11335938 3.9765625 8.10546875 C4.00194942 11.24075323 3.34359283 13.19486535 2 16 C1.01 15.67 0.02 15.34 -1 15 C-0.34 14.34 0.32 13.68 1 13 C1.28146904 10.39952066 1.28146904 10.39952066 1.1875 7.5 C1.17783203 6.03046875 1.17783203 6.03046875 1.16796875 4.53125 C1.16440726 2.00630616 1.16440726 2.00630616 0 0 Z " fill="#D2D2D2" transform="translate(123,111)"/>
<path d="M0 0 C4.455 0.99 4.455 0.99 9 2 C9 2.99 9 3.98 9 5 C8.34 5 7.68 5 7 5 C7 4.34 7 3.68 7 3 C5.02 3.33 3.04 3.66 1 4 C0.67 2.68 0.34 1.36 0 0 Z " fill="#03ADC1" transform="translate(140,67)"/>
<path d="M0 0 C0 2.64 0 5.28 0 8 C-1.32 7.34 -2.64 6.68 -4 6 C-3.625 3.5625 -3.625 3.5625 -3 1 C-1 0 -1 0 0 0 Z " fill="#ECC79F" transform="translate(93,136)"/>
<path d="M0 0 C0.33 0.99 0.66 1.98 1 3 C2.98 3 4.96 3 7 3 C7 3.33 7 3.66 7 4 C5.39620659 4.05416188 3.79188594 4.09286638 2.1875 4.125 C1.29417969 4.14820312 0.40085937 4.17140625 -0.51953125 4.1953125 C-3 4 -3 4 -6 2 C-4.02 1.34 -2.04 0.68 0 0 Z " fill="#303030" transform="translate(105,121)"/>
<path d="M0 0 C1.60407328 -0.02708567 3.2082785 -0.04643483 4.8125 -0.0625 C5.70582031 -0.07410156 6.59914063 -0.08570313 7.51953125 -0.09765625 C10 0 10 0 13 1 C13 1.66 13 2.32 13 3 C8.48382401 3.07654536 4.40914783 3.10228696 0 2 C0 1.34 0 0.68 0 0 Z " fill="#BBCCC7" transform="translate(85,61)"/>
<path d="M0 0 C3 0 3 0 5.25 1.75 C7 4 7 4 6.75 6.25 C6.5025 6.8275 6.255 7.405 6 8 C5.34 8 4.68 8 4 8 C4 7.01 4 6.02 4 5 C3.34 5 2.68 5 2 5 C2 4.01 2 3.02 2 2 C1.34 2 0.68 2 0 2 C0 1.34 0 0.68 0 0 Z " fill="#34AA99" transform="translate(161,51)"/>
<path d="M0 0 C0.66 0.33 1.32 0.66 2 1 C2 1.66 2 2.32 2 3 C2.66 3.33 3.32 3.66 4 4 C4 4.99 4 5.98 4 7 C1.69 6.67 -0.62 6.34 -3 6 C-2 4 -1 2 0 0 Z " fill="#B9B8B3" transform="translate(77,34)"/>
<path d="M0 0 C1.45742463 -0.08096803 2.91612807 -0.13917774 4.375 -0.1875 C5.18710937 -0.22230469 5.99921875 -0.25710937 6.8359375 -0.29296875 C7.55007812 -0.19628906 8.26421875 -0.09960938 9 0 C9.66 0.99 10.32 1.98 11 3 C7.04 2.67 3.08 2.34 -1 2 C-0.67 1.34 -0.34 0.68 0 0 Z " fill="#617480" transform="translate(24,163)"/>
<path d="M0 0 C6.15234375 0.5859375 6.15234375 0.5859375 8 1 C9.24546405 3.49092811 8.7767578 4.41080733 8 7 C7.01 6.67 6.02 6.34 5 6 C5 5.01 5 4.02 5 3 C3.35 2.67 1.7 2.34 0 2 C0 1.34 0 0.68 0 0 Z " fill="#90A04D" transform="translate(25,142)"/>
<path d="M0 0 C0.33 0.66 0.66 1.32 1 2 C1.99 2 2.98 2 4 2 C4.33 1.34 4.66 0.68 5 0 C6.32 1.32 7.64 2.64 9 4 C8.34 4 7.68 4 7 4 C6.67 4.66 6.34 5.32 6 6 C5.67 5.34 5.34 4.68 5 4 C2.47266765 3.34444881 2.47266765 3.34444881 0 3 C0 2.01 0 1.02 0 0 Z " fill="#15ABB1" transform="translate(206,136)"/>
<path d="M0 0 C2.475 0.495 2.475 0.495 5 1 C4.67 2.65 4.34 4.3 4 6 C2.68 6 1.36 6 0 6 C0 4.02 0 2.04 0 0 Z " fill="#766C3E" transform="translate(102,112)"/>
<path d="M0 0 C2.1519437 3.22791555 2.20086443 4.28400809 2 8 C0.68 8 -0.64 8 -2 8 C-2 6.35 -2 4.7 -2 3 C-1.34 3 -0.68 3 0 3 C0 2.01 0 1.02 0 0 Z " fill="#99BD53" transform="translate(164,56)"/>
<path d="M0 0 C1.65 0 3.3 0 5 0 C5 0.66 5 1.32 5 2 C4.34 2 3.68 2 3 2 C3 3.32 3 4.64 3 6 C2.34 6 1.68 6 1 6 C1 5.34 1 4.68 1 4 C0.34 4 -0.32 4 -1 4 C-0.67 2.68 -0.34 1.36 0 0 Z " fill="#676867" transform="translate(75,206)"/>
<path d="M0 0 C1.32 0 2.64 0 4 0 C4.33 1.65 4.66 3.3 5 5 C4.34 5 3.68 5 3 5 C3 4.34 3 3.68 3 3 C2.34 3 1.68 3 1 3 C1 3.66 1 4.32 1 5 C0.01 5 -0.98 5 -2 5 C-2 4.34 -2 3.68 -2 3 C-1.34 3 -0.68 3 0 3 C0 2.01 0 1.02 0 0 Z " fill="#D6BB1C" transform="translate(29,155)"/>
<path d="M0 0 C0.33 0.99 0.66 1.98 1 3 C3.97 3.495 3.97 3.495 7 4 C6.67 4.99 6.34 5.98 6 7 C3.36 6.01 0.72 5.02 -2 4 C-1.34 2.68 -0.68 1.36 0 0 Z " fill="#414F51" transform="translate(23,146)"/>
<path d="M0 0 C2.97 0.33 5.94 0.66 9 1 C9 1.66 9 2.32 9 3 C6.03 3 3.06 3 0 3 C0 2.01 0 1.02 0 0 Z " fill="#DECA38" transform="translate(186,142)"/>
<path d="M0 0 C0.99 0 1.98 0 3 0 C3 0.66 3 1.32 3 2 C3.66 2 4.32 2 5 2 C5 3.32 5 4.64 5 6 C5.66 6.33 6.32 6.66 7 7 C6.01 7.33 5.02 7.66 4 8 C0 2.25 0 2.25 0 0 Z " fill="#13AAB0" transform="translate(146,142)"/>
<path d="M0 0 C2.64 0 5.28 0 8 0 C7.071875 0.4021875 7.071875 0.4021875 6.125 0.8125 C3.7004767 1.95556848 3.7004767 1.95556848 2 5 C0.35 4.67 -1.3 4.34 -3 4 C-2.01 3.67 -1.02 3.34 0 3 C0 2.01 0 1.02 0 0 Z " fill="#F0F2E4" transform="translate(148,59)"/>
<path d="M0 0 C2.4375 0.6875 2.4375 0.6875 5 2 C5.9375 4.5 5.9375 4.5 6 7 C5.34 7.66 4.68 8.32 4 9 C2.875 5.25 2.875 5.25 4 3 C2.68 3 1.36 3 0 3 C0 2.01 0 1.02 0 0 Z " fill="#FDC628" transform="translate(172,42)"/>
<path d="M0 0 C0.185625 0.9590625 0.185625 0.9590625 0.375 1.9375 C0.684375 2.9584375 0.684375 2.9584375 1 4 C1.66 4.33 2.32 4.66 3 5 C1.02 5.66 -0.96 6.32 -3 7 C-2.25 2.25 -2.25 2.25 0 0 Z " fill="#F6E13B" transform="translate(171,41)"/>
<path d="M0 0 C2.96865509 2.54456151 4.3619751 5.48994665 6 9 C5.34 9 4.68 9 4 9 C3.67 8.34 3.34 7.68 3 7 C2.01 7 1.02 7 0 7 C0 4.69 0 2.38 0 0 Z " fill="#15ABB0" transform="translate(146,207)"/>
<path d="M0 0 C4 4.75 4 4.75 4 7 C3.01 7.33 2.02 7.66 1 8 C-1 5 -1 5 -0.625 2.3125 C-0.41875 1.549375 -0.2125 0.78625 0 0 Z " fill="#92B4B5" transform="translate(144,197)"/>
<path d="M0 0 C0.33 0.99 0.66 1.98 1 3 C1.66 3.33 2.32 3.66 3 4 C-0.01853795 4 -2.77081079 3.85049285 -5.75 3.5 C-6.54921875 3.4071875 -7.3484375 3.314375 -8.171875 3.21875 C-8.77515625 3.1465625 -9.3784375 3.074375 -10 3 C-10 2.67 -10 2.34 -10 2 C-6.7 1.34 -3.4 0.68 0 0 Z " fill="#A2BABD" transform="translate(127,159)"/>
<path d="M0 0 C3.4375 0.8125 3.4375 0.8125 7 2 C7.33 2.99 7.66 3.98 8 5 C5.03 4.505 5.03 4.505 2 4 C2 3.34 2 2.68 2 2 C1.01 1.67 0.02 1.34 -1 1 C-0.67 0.67 -0.34 0.34 0 0 Z " fill="#3B4140" transform="translate(193,136)"/>
<path d="M0 0 C0.66 0 1.32 0 2 0 C2 0.99 2 1.98 2 3 C1.01 3.495 1.01 3.495 0 4 C-0.65772428 7.02934491 -0.65772428 7.02934491 -1 10 C-1.99 9.67 -2.98 9.34 -4 9 C-3.35494404 5.51669784 -2.01782732 2.90567134 0 0 Z " fill="#F1C687" transform="translate(138,108)"/>
<path d="M0 0 C1.98 0 3.96 0 6 0 C6.33 0.66 6.66 1.32 7 2 C5 4 5 4 2 5 C1.34 3.35 0.68 1.7 0 0 Z " fill="#12A8AD" transform="translate(89,89)"/>
<path d="M0 0 C1.32 0 2.64 0 4 0 C4 2.31 4 4.62 4 7 C3.34 7 2.68 7 2 7 C0.5393715 4.35261084 0 3.10551666 0 0 Z " fill="#F0F1F3" transform="translate(200,84)"/>
<path d="M0 0 C1.65 0 3.3 0 5 0 C5 0.66 5 1.32 5 2 C4.34 2 3.68 2 3 2 C3 3.65 3 5.3 3 7 C2.01 6.67 1.02 6.34 0 6 C0 4.02 0 2.04 0 0 Z " fill="#EABC1B" transform="translate(179,56)"/>
<path d="M0 0 C-1.65 1.65 -3.3 3.3 -5 5 C-5.66 4.34 -6.32 3.68 -7 3 C-6.34 3 -5.68 3 -5 3 C-5.33 2.01 -5.66 1.02 -6 0 C-3 -1 -3 -1 0 0 Z " fill="#DDC196" transform="translate(112,203)"/>
<path d="M0 0 C0.99 0 1.98 0 3 0 C2.34 2.64 1.68 5.28 1 8 C0.01 7.01 -0.98 6.02 -2 5 C-1.34 3.35 -0.68 1.7 0 0 Z " fill="#151315" transform="translate(149,197)"/>
<path d="M0 0 C0.99 0.99 1.98 1.98 3 3 C2.34 4.32 1.68 5.64 1 7 C0.01 7 -0.98 7 -2 7 C-1.34 4.69 -0.68 2.38 0 0 Z " fill="#E0BF92" transform="translate(123,176)"/>
<path d="M0 0 C1.32 0.66 2.64 1.32 4 2 C4 2.99 4 3.98 4 5 C3.34 5 2.68 5 2 5 C2 5.99 2 6.98 2 8 C1.34 7.67 0.68 7.34 0 7 C-0.6875 4 -0.6875 4 -1 1 C-0.67 0.67 -0.34 0.34 0 0 Z " fill="#121212" transform="translate(140,162)"/>
<path d="M0 0 C0.99 0.33 1.98 0.66 3 1 C3 2.65 3 4.3 3 6 C1.68 6 0.36 6 -1 6 C-0.67 4.02 -0.34 2.04 0 0 Z " fill="#EABD89" transform="translate(129,156)"/>
<path d="M0 0 C1.32 0 2.64 0 4 0 C3.835 0.5775 3.67 1.155 3.5 1.75 C2.85537969 4.26664369 2.85537969 4.26664369 3 8 C2.34 7.67 1.68 7.34 1 7 C0.59270772 4.67843403 0.25561323 2.3431213 0 0 Z " fill="#93A7B5" transform="translate(35,151)"/>
<path d="M0 0 C0.66 0 1.32 0 2 0 C2.33 2.31 2.66 4.62 3 7 C1.68 7.33 0.36 7.66 -1 8 C-0.67 5.36 -0.34 2.72 0 0 Z " fill="#DEC48D" transform="translate(139,112)"/>
<path d="M0 0 C2.31 0 4.62 0 7 0 C7 1.32 7 2.64 7 4 C4.69 4 2.38 4 0 4 C1.32 3.67 2.64 3.34 4 3 C4 2.34 4 1.68 4 1 C2.68 0.67 1.36 0.34 0 0 Z " fill="#EAB123" transform="translate(156,53)"/>
<path d="M0 0 C0.66 0 1.32 0 2 0 C2 0.66 2 1.32 2 2 C2.639375 2.103125 3.27875 2.20625 3.9375 2.3125 C4.618125 2.539375 5.29875 2.76625 6 3 C6.33 3.99 6.66 4.98 7 6 C5.68 6 4.36 6 3 6 C2.01 4.02 1.02 2.04 0 0 Z " fill="#92BDC5" transform="translate(154,219)"/>
<path d="M0 0 C0.33 0.66 0.66 1.32 1 2 C1.66 2 2.32 2 3 2 C3 4.31 3 6.62 3 9 C2.34 9 1.68 9 1 9 C0.67 6.03 0.34 3.06 0 0 Z " fill="#A7C1C9" transform="translate(81,192)"/>
<path d="M0 0 C1.32 0.33 2.64 0.66 4 1 C2.6875 3 2.6875 3 1 5 C0.01 5 -0.98 5 -2 5 C-1.34 3.35 -0.68 1.7 0 0 Z " fill="#BDC78D" transform="translate(20,144)"/>
<path d="M0 0 C1.65 0 3.3 0 5 0 C5 0.33 5 0.66 5 1 C6.65 1.33 8.3 1.66 10 2 C10 2.33 10 2.66 10 3 C6.7 3 3.4 3 0 3 C0 2.01 0 1.02 0 0 Z " fill="#EFBB0F" transform="translate(152,48)"/>
<path d="M0 0 C0.99 0.33 1.98 0.66 3 1 C3 1.99 3 2.98 3 4 C2.34 4 1.68 4 1 4 C1.33 4.99 1.66 5.98 2 7 C1.01 7.495 1.01 7.495 0 8 C0 7.34 0 6.68 0 6 C-0.66 5.67 -1.32 5.34 -2 5 C-1.34 3.35 -0.68 1.7 0 0 Z " fill="#21ABA1" transform="translate(143,47)"/>
<path d="M0 0 C-0.33 1.32 -0.66 2.64 -1 4 C-3.64 4 -6.28 4 -9 4 C-3 0 -3 0 0 0 Z " fill="#FCFBFB" transform="translate(69,36)"/>
<path d="M0 0 C2.13562754 2.13562754 2.63318342 3.06546739 3 6 C2.34 6.66 1.68 7.32 1 8 C0.01 6.02 -0.98 4.04 -2 2 C-1.34 1.34 -0.68 0.68 0 0 Z " fill="#069FA0" transform="translate(178,177)"/>
<path d="M0 0 C1.32 0 2.64 0 4 0 C4 1.32 4 2.64 4 4 C4.66 4.33 5.32 4.66 6 5 C4.35 5.33 2.7 5.66 1 6 C1 5.01 1 4.02 1 3 C1.66 3 2.32 3 3 3 C3 2.34 3 1.68 3 1 C2.01 1.33 1.02 1.66 0 2 C0 1.34 0 0.68 0 0 Z " fill="#F8CC9C" transform="translate(132,154)"/>
<path d="M0 0 C0.33 0 0.66 0 1 0 C1.04898438 0.68707031 1.09796875 1.37414062 1.1484375 2.08203125 C1.22320312 2.98308594 1.29796875 3.88414063 1.375 4.8125 C1.44460937 5.70582031 1.51421875 6.59914063 1.5859375 7.51953125 C1.86645036 10.24398499 1.86645036 10.24398499 4 13 C2.68 12.67 1.36 12.34 0 12 C0 8.04 0 4.08 0 0 Z " fill="#A5A6A4" transform="translate(98,114)"/>
<path d="M0 0 C0.99 0.33 1.98 0.66 3 1 C2.67 1.66 2.34 2.32 2 3 C1.01 3 0.02 3 -1 3 C-1.33 4.98 -1.66 6.96 -2 9 C-2.33 9 -2.66 9 -3 9 C-2.25 2.25 -2.25 2.25 0 0 Z " fill="#101917" transform="translate(97,89)"/>
<path d="M0 0 C0.66 1.32 1.32 2.64 2 4 C1.01 4.495 1.01 4.495 0 5 C-0.99 4.67 -1.98 4.34 -3 4 C-3 3.34 -3 2.68 -3 2 C-3.99 1.67 -4.98 1.34 -6 1 C-4.02 0.67 -2.04 0.34 0 0 Z " fill="#0CABAF" transform="translate(101,60)"/>
<path d="M0 0 C1.32 1.65 2.64 3.3 4 5 C3.34 6.32 2.68 7.64 2 9 C0.50178941 5.62902617 0 3.79557881 0 0 Z " fill="#2B3936" transform="translate(192,206)"/>
<path d="M0 0 C0.66 0 1.32 0 2 0 C2.66 0.66 3.32 1.32 4 2 C4.66 2.33 5.32 2.66 6 3 C5.67 4.65 5.34 6.3 5 8 C2.74754119 5.31158141 1.11786042 3.35358125 0 0 Z " fill="#8EBFC5" transform="translate(135,188)"/>
<path d="M0 0 C0 0.99 0 1.98 0 3 C-2.5 4.6875 -2.5 4.6875 -5 6 C-5 5.01 -5 4.02 -5 3 C-2.5 1.3125 -2.5 1.3125 0 0 Z " fill="#131413" transform="translate(137,164)"/>
<path d="M0 0 C-0.33 1.32 -0.66 2.64 -1 4 C-0.01 4.33 0.98 4.66 2 5 C0.68 5 -0.64 5 -2 5 C-2 4.34 -2 3.68 -2 3 C-3.32 2.34 -4.64 1.68 -6 1 C-3 0 -3 0 0 0 Z " fill="#FADE60" transform="translate(30,96)"/>
<path d="M0 0 C0 1.98 0 3.96 0 6 C-1.98 5.01 -3.96 4.02 -6 3 C-2.25 0 -2.25 0 0 0 Z " fill="#FAD412" transform="translate(176,45)"/>
<path d="M0 0 C0.66 0.33 1.32 0.66 2 1 C1.649375 1.78375 1.29875 2.5675 0.9375 3.375 C0.628125 4.24125 0.31875 5.1075 0 6 C0.33 6.66 0.66 7.32 1 8 C0.01 8 -0.98 8 -2 8 C-1.125 1.125 -1.125 1.125 0 0 Z " fill="#A3C967" transform="translate(137,42)"/>
</svg>
