<?xml version="1.0" encoding="UTF-8"?>
<svg version="1.1" xmlns="http://www.w3.org/2000/svg" width="225" height="225">
<path d="M0 0 C74.25 0 148.5 0 225 0 C225 74.25 225 148.5 225 225 C150.75 225 76.5 225 0 225 C0 150.75 0 76.5 0 0 Z " fill="#FDFDFD" transform="translate(0,0)"/>
<path d="M0 0 C74.25 0 148.5 0 225 0 C225 34.98 225 69.96 225 106 C224.67 106 224.34 106 224 106 C223.90295776 105.16359985 223.90295776 105.16359985 223.80395508 104.31030273 C221.51644794 85.19538259 216.69432127 69.64529174 207 53 C206.38769531 51.94683594 205.77539062 50.89367188 205.14453125 49.80859375 C201.4715177 44.03431387 198.68817536 41.64270974 192 40 C192 39.67 192 39.34 192 39 C194.97 38.505 194.97 38.505 198 38 C189.12761639 31.13368842 182.29624086 26.18903136 170.79296875 26.6015625 C161.15406772 27.97662251 153.8280715 34.54651712 148 42 C139.94899815 53.20568012 133.98408668 65.71365938 127.9296875 78.0625 C125.22846947 83.56848573 122.42696092 89.01488234 119.5625 94.4375 C119.17376709 95.17540771 118.78503418 95.91331543 118.38452148 96.67358398 C115.65861901 101.82107204 112.84458039 106.91725644 110 112 C109.01 112 108.02 112 107 112 C106.35768433 110.39560059 106.35768433 110.39560059 105.70239258 108.75878906 C104.10483453 104.77948669 102.48827814 100.80813491 100.8659668 96.83886719 C100.1674243 95.12221721 99.47400232 93.40347406 98.78588867 91.68261719 C97.79394763 89.20455509 96.78362987 86.73468836 95.76953125 84.265625 C95.31608086 83.11540863 95.31608086 83.11540863 94.85346985 81.94195557 C92.98013993 77.44218975 91.28820591 74.64899912 87 72 C80.5919173 70.88412388 73.30500747 71.03586145 67.65882874 74.5760498 C62.95973953 78.60978086 62.47243281 86.16888123 61.97265625 91.96875 C61.86204865 93.08746994 61.86204865 93.08746994 61.74920654 94.22879028 C61.59230819 95.82470661 61.44015039 97.42109509 61.29238892 99.0178833 C60.89935329 103.26149932 60.47135128 107.50162074 60.046875 111.7421875 C59.91917473 113.03097305 59.91917473 113.03097305 59.78889465 114.34579468 C58.81294845 124.08552323 57.57516074 133.78885928 56.30688477 143.49414062 C54.44156865 157.8232272 54.44156865 157.8232272 53.9375 172.25 C53.94652344 173.16265625 53.95554688 174.0753125 53.96484375 175.015625 C53.97644531 175.67046875 53.98804688 176.3253125 54 177 C55.65 177.66 57.3 178.32 59 179 C58.01 179.33 57.02 179.66 56 180 C55.773125 180.639375 55.54625 181.27875 55.3125 181.9375 C53.69629616 184.4772489 52.97744014 184.46593342 50.125 185.125 C49.44695313 185.25132812 48.76890625 185.37765625 48.0703125 185.5078125 C45.82787399 186.04092052 44.01995865 186.90396862 42 188 C23.20684853 171.00619282 11.18363328 146.74795212 9.859375 121.29736328 C9.24554461 102.75661645 10.83711858 86.87140998 19 70 C19.56460937 68.80761719 20.12921875 67.61523438 20.7109375 66.38671875 C25.28166877 57.09600296 30.98779617 49.58104042 38 42 C38.66773438 41.25105469 39.33546875 40.50210938 40.0234375 39.73046875 C55.69505795 22.96778612 80.30764314 11.88808362 103.08032227 10.86108398 C123.72527926 10.25074785 143.68077073 11.5259802 161.75390625 22.703125 C164.87253513 24.5037942 166.51686559 23.7368169 170 23 C173.00200822 22.9015735 175.99732277 22.93994646 179 23 C151.99696861 5.58724326 122.0235604 -2.65787513 89.98022461 3.59375 C71.23925707 7.65118855 54.7774555 15.84218434 40 28 C39.25234375 28.60714844 38.5046875 29.21429687 37.734375 29.83984375 C16.5567082 47.66303279 5.16698383 74.13392005 1 101 C0.67 101 0.34 101 0 101 C0 67.67 0 34.34 0 0 Z " fill="#FDFDFD" transform="translate(0,0)"/>
<path d="M0 0 C0.70326416 0.36367676 1.40652832 0.72735352 2.13110352 1.10205078 C6.37400287 3.40211358 9.50584373 5.86012613 12.75 9.4375 C12.09773437 9.42589844 11.44546875 9.41429688 10.7734375 9.40234375 C9.46246094 9.38880859 9.46246094 9.38880859 8.125 9.375 C7.26648438 9.36339844 6.40796875 9.35179688 5.5234375 9.33984375 C2.69700437 9.34810595 2.69700437 9.34810595 -0.1875 10.13671875 C-4.25087682 10.5358004 -6.09848729 9.31448703 -9.625 7.3125 C-14.86477974 4.47784174 -20.05073738 2.30316802 -25.75 0.5625 C-26.73685791 0.25868408 -26.73685791 0.25868408 -27.74365234 -0.05126953 C-36.18788286 -2.54983046 -44.13060678 -2.74542178 -52.875 -2.75 C-54.08285156 -2.76224609 -55.29070312 -2.77449219 -56.53515625 -2.78710938 C-84.32265371 -2.83197616 -108.15710483 7.82026274 -128.0625 26.875 C-140.83781025 40.27746184 -150.27581416 57.33767535 -154.25 75.4375 C-154.50946411 76.41432739 -154.50946411 76.41432739 -154.77416992 77.41088867 C-156.39012255 83.78934707 -156.59709306 89.93935144 -156.5625 96.5 C-156.55758545 97.60327637 -156.5526709 98.70655273 -156.54760742 99.84326172 C-156.13946837 128.47997234 -144.7751379 153.57406058 -124.46362305 173.70947266 C-104.69754667 192.50865303 -78.3691501 201.30449313 -51.35571289 200.95898438 C-23.85294105 200.02068713 2.33580647 187.89221293 21.21484375 167.81640625 C41.92913016 143.41958003 48.07021519 116.6963451 46.75 85.4375 C46.2860315 80.29228263 45.22743184 75.38785605 43.75 70.4375 C43.48316406 69.52226563 43.21632812 68.60703125 42.94140625 67.6640625 C38.58856953 54.47013076 31.92299512 42.86797922 23.0703125 32.23046875 C20.75 29.4375 20.75 29.4375 18.75 26.4375 C20.56621367 24.62128633 23.02840894 25.20338703 25.44921875 25.109375 C30.27926737 25.79821046 33.13348281 27.70115815 36.2421875 31.4140625 C37.05477604 32.61804618 37.8482215 33.83510764 38.625 35.0625 C39.04990723 35.72056641 39.47481445 36.37863281 39.91259766 37.05664062 C56.17045296 62.89903343 58.07133979 89.17808107 57.9453125 119.03125 C57.94236543 121.37792872 57.94032909 123.72460876 57.93920898 126.07128906 C57.92879855 134.69337965 57.90087625 143.31544195 57.875 151.9375 C57.83375 171.2425 57.7925 190.5475 57.75 210.4375 C-16.5 210.4375 -90.75 210.4375 -167.25 210.4375 C-167.3325 190.369375 -167.415 170.30125 -167.5 149.625 C-167.53641602 143.3243042 -167.57283203 137.0236084 -167.61035156 130.53198242 C-167.62841797 122.7467041 -167.62841797 122.7467041 -167.6317749 119.08442688 C-167.63785573 116.56523296 -167.6517939 114.04604954 -167.67230225 111.52693176 C-167.95048831 75.50757373 -159.77983526 45.06452633 -134.2265625 18.35546875 C-98.72032228 -17.32747804 -43.65379707 -22.66467007 0 0 Z " fill="#233DB8" transform="translate(167.25,14.5625)"/>
<path d="M0 0 C4.17700666 2.32279056 7.82190563 5.24640693 11.4375 8.35546875 C8.61283775 9.14151729 5.98374045 9.48859434 3.0625 9.66796875 C-5.76734034 10.64746164 -11.67347329 17.61531898 -17.05175781 24.1706543 C-22.99309547 32.53033913 -23.30103048 42.01923595 -24.3125 51.91796875 C-24.50691382 53.65584657 -24.70351571 55.39348105 -24.90234375 57.13085938 C-25.29098289 60.55671472 -25.66687305 63.98356401 -26.03100586 67.41210938 C-26.52676002 72.06510413 -27.06145286 76.71272951 -27.61328125 81.359375 C-27.69600784 82.05701462 -27.77873444 82.75465424 -27.8639679 83.47343445 C-28.09670861 85.43412482 -28.32960083 87.3947972 -28.5625 89.35546875 C-28.92797151 92.47848469 -29.29102997 95.6017577 -29.65161133 98.7253418 C-29.89425516 100.81833617 -30.14045652 102.9109199 -30.3894043 105.00317383 C-31.08636848 110.92417618 -31.70571458 116.84060568 -32.2109375 122.78125 C-32.37831421 124.60293701 -32.37831421 124.60293701 -32.54907227 126.46142578 C-32.76121144 128.79257312 -32.95289064 131.12570283 -33.12084961 133.46044922 C-33.71311414 139.7131314 -34.64752409 143.61936036 -39.11401367 148.15942383 C-42.37526309 150.85230448 -44.88513195 150.38071076 -49 150.10546875 C-50.15371094 150.0384375 -51.30742187 149.97140625 -52.49609375 149.90234375 C-55.8171731 149.31004934 -56.56584324 148.94867019 -58.5625 146.35546875 C-58.8939209 144.44270325 -58.8939209 144.44270325 -58.81835938 142.28833008 C-58.79088623 141.48980621 -58.76341309 140.69128235 -58.73510742 139.86856079 C-58.44894726 135.70218825 -57.99571977 131.57195618 -57.46875 127.4296875 C-57.30227966 126.0646685 -57.30227966 126.0646685 -57.13244629 124.67207336 C-56.78087623 121.79505324 -56.42215334 118.91898859 -56.0625 116.04296875 C-55.70391025 113.14898099 -55.34688905 110.25481759 -54.99255371 107.36030579 C-54.77269511 105.56699176 -54.55022918 103.77399497 -54.3248291 101.98136902 C-54.22472534 101.16984879 -54.12462158 100.35832855 -54.02148438 99.5222168 C-53.93265991 98.8121196 -53.84383545 98.1020224 -53.75231934 97.3704071 C-53.56417717 95.373272 -53.5625 93.36144634 -53.5625 91.35546875 C-53.95518066 92.10642822 -54.34786133 92.8573877 -54.75244141 93.63110352 C-56.23254827 96.45104853 -57.72076178 99.2665239 -59.21435547 102.0793457 C-59.85558834 103.29086723 -60.49369013 104.50405193 -61.12841797 105.71899414 C-70.23888452 123.14365813 -70.23888452 123.14365813 -77.5 126.29296875 C-82.45847332 127.80412252 -86.5584307 128.19140526 -91.4375 126.15625 C-96.55729577 122.58131635 -97.95229047 115.71923347 -99.9375 110.10546875 C-100.38738281 108.8834375 -100.83726563 107.66140625 -101.30078125 106.40234375 C-102.40588032 103.39271223 -103.49223241 100.37762494 -104.5625 97.35546875 C-105.98034813 103.55384908 -106.87128967 109.6782036 -107.4921875 115.99609375 C-107.56979309 116.77174683 -107.64739868 117.5473999 -107.72735596 118.34655762 C-108.049142 121.58724331 -108.36683713 124.82802325 -108.66162109 128.07128906 C-108.88167171 130.46463781 -109.12280275 132.85512354 -109.3671875 135.24609375 C-109.42776337 135.97121155 -109.48833923 136.69632935 -109.55075073 137.44342041 C-110.07684214 142.37976336 -111.48499144 145.48245119 -114.5625 149.35546875 C-118.57615599 152.12131486 -122.86375319 151.78262755 -127.5625 151.35546875 C-131.92613636 149.99183239 -131.92613636 149.99183239 -133.5625 148.35546875 C-134.32325904 139.17152029 -132.88306784 129.90214795 -131.8125 120.79296875 C-131.63118898 119.21196952 -131.45037095 117.63091368 -131.27001953 116.04980469 C-130.80206358 111.96294822 -130.32619134 107.87705843 -129.84753418 103.79144287 C-129.56782783 101.40100174 -129.28992631 99.01035828 -129.01269531 96.61962891 C-126.98293469 79.12076092 -126.98293469 79.12076092 -126.02636719 71.26367188 C-125.69925186 68.50763912 -125.39254255 65.75429922 -125.10644531 62.99414062 C-124.94861259 61.55728674 -124.79073622 60.12043764 -124.6328125 58.68359375 C-124.49891113 57.3987207 -124.36500977 56.11384766 -124.22705078 54.79003906 C-123.43553975 50.69930537 -122.16581984 47.73369196 -118.9765625 44.9921875 C-112.92325217 41.78049665 -106.28303522 41.01302933 -99.5625 42.35546875 C-94.14310005 46.05377043 -92.04700042 49.69072149 -89.6953125 55.71875 C-89.37086151 56.51073288 -89.04641052 57.30271576 -88.71212769 58.11869812 C-87.68795058 60.62898987 -86.68750566 63.14796412 -85.6875 65.66796875 C-84.99373844 67.38018653 -84.29844111 69.09178288 -83.6015625 70.80273438 C-81.90402449 74.98000017 -80.22769257 79.1652099 -78.5625 83.35546875 C-75.9305653 81.00701745 -74.53586011 78.64028614 -72.99609375 75.48046875 C-72.5155957 74.50456787 -72.03509766 73.52866699 -71.54003906 72.52319336 C-71.03182617 71.47784424 -70.52361328 70.43249512 -70 69.35546875 C-68.92215446 67.16849066 -67.84270675 64.98230152 -66.76171875 62.796875 C-66.22337402 61.70777832 -65.6850293 60.61868164 -65.13037109 59.49658203 C-61.77123355 52.76679947 -58.23288037 46.13221773 -54.69433594 39.49560547 C-53.5948357 37.41661085 -52.51695103 35.32784351 -51.4453125 33.234375 C-44.42904952 19.60880917 -35.74558258 4.66870835 -21.1640625 -1.83203125 C-13.79158501 -4.13454674 -6.96292478 -3.09091372 0 0 Z " fill="#436AD9" transform="translate(186.5625,28.64453125)"/>
<path d="M0 0 C0.33 0 0.66 0 1 0 C1.17015625 1.07636719 1.3403125 2.15273437 1.515625 3.26171875 C3.69398909 16.58007133 6.9554719 28.85760973 13 41 C13.41765625 41.87011719 13.8353125 42.74023438 14.265625 43.63671875 C27.10999096 68.9194506 50.67655947 87.4521533 77.3125 96.375 C83.47616429 98.36693976 89.59610875 99.96711431 96 101 C96 101.33 96 101.66 96 102 C64.32 102 32.64 102 0 102 C0 68.34 0 34.68 0 0 Z " fill="#FDFDFD" transform="translate(0,123)"/>
<path d="M0 0 C0.33 0 0.66 0 1 0 C1 33.33 1 66.66 1 101 C-31.01 101 -63.02 101 -96 101 C-96 100.67 -96 100.34 -96 100 C-95.42668945 99.87471924 -94.85337891 99.74943848 -94.26269531 99.62036133 C-78.21431113 96.08885433 -78.21431113 96.08885433 -63 90 C-61.95972656 89.49855469 -60.91945312 88.99710937 -59.84765625 88.48046875 C-34.40486698 75.56242949 -15.10825676 52.9581506 -5.66113281 26.05322266 C-2.93354051 17.58237655 -1.15898441 8.81287155 0 0 Z " fill="#FDFDFE" transform="translate(224,124)"/>
<path d="M0 0 C0.33 0 0.66 0 1 0 C1.2700836 7.06718765 0.35662067 13.88195319 -0.59500122 20.87832642 C-0.97520779 23.67445049 -1.34383974 26.47206554 -1.71321106 29.26963806 C-1.89556374 30.64981123 -2.07848974 32.02990879 -2.26200867 33.40992737 C-3.16059304 40.17162802 -3.96831672 46.94081119 -4.73925781 53.71826172 C-5.04896659 56.4285035 -5.36426801 59.13807319 -5.6796875 61.84765625 C-5.8024707 62.90774902 -5.92525391 63.9678418 -6.05175781 65.06005859 C-6.30865529 67.267751 -6.56841546 69.4751122 -6.83105469 71.68212891 C-7.52649473 77.59165209 -8.14419577 83.49667426 -8.6484375 89.42578125 C-8.76002197 90.64023926 -8.87160645 91.85469727 -8.98657227 93.10595703 C-9.19871144 95.43710437 -9.39039064 97.77023408 -9.55834961 100.10498047 C-10.15061414 106.35766265 -11.08502409 110.26389161 -15.55151367 114.80395508 C-18.81276309 117.49683573 -21.32263195 117.02524201 -25.4375 116.75 C-26.59121094 116.68296875 -27.74492187 116.6159375 -28.93359375 116.546875 C-32.25461068 115.95459173 -33.00431021 115.59420122 -35 113 C-35.32771301 111.07858276 -35.32771301 111.07858276 -35.24926758 108.91748047 C-35.20801254 107.71958893 -35.20801254 107.71958893 -35.16592407 106.49749756 C-34.89516674 102.42204451 -34.49560772 98.37575593 -34.01171875 94.3203125 C-33.90785355 93.42690155 -33.80398834 92.5334906 -33.69697571 91.61300659 C-33.47686373 89.73533924 -33.25402175 87.85799006 -33.02856445 85.98095703 C-32.68937728 83.14071974 -32.36474514 80.29906665 -32.04101562 77.45703125 C-30.40882941 63.46260546 -28.09666955 52.32019297 -21 40 C-19.93969603 38.00049444 -18.89041928 35.9951071 -17.8515625 33.984375 C-17.32457764 32.96722412 -16.79759277 31.95007324 -16.25463867 30.90209961 C-15.71685791 29.86190674 -15.17907715 28.82171387 -14.625 27.75 C-9.81244325 18.46583621 -4.95603692 9.20834655 0 0 Z " fill="#1225A8" transform="translate(163,62)"/>
<path d="M0 0 C3.88657379 5.82986068 5.90797915 12.62134007 8.0625 19.25 C9.06503131 22.32390922 10.05228241 25.10456483 11.5 28 C14.97989112 34.95978224 17.4431915 41.37870736 16.72265625 49.25 C16.6148584 50.47138672 16.50706055 51.69277344 16.39599609 52.95117188 C16.26417001 54.30079812 16.13216393 55.6504068 16 57 C15.86602881 58.46934007 15.73274943 59.93874335 15.60009766 61.40820312 C15.24111927 65.3112036 14.8463402 69.20958363 14.43530273 73.10742188 C14.26868873 74.71610877 14.10896937 76.32552323 13.95581055 77.93554688 C13.73001396 80.30271528 13.48257886 82.66675685 13.23046875 85.03125 C13.16675583 85.74381958 13.10304291 86.45638916 13.03739929 87.19055176 C12.48386817 92.07202417 11.03575951 95.16238275 8 99 C3.98634401 101.76584611 -0.30125319 101.4271588 -5 101 C-9.36363636 99.63636364 -9.36363636 99.63636364 -11 98 C-11.76075904 88.81605154 -10.32056784 79.5466792 -9.25 70.4375 C-9.06868898 68.85650077 -8.88787095 67.27544493 -8.70751953 65.69433594 C-8.23956358 61.60747947 -7.76369134 57.52158968 -7.28503418 53.43597412 C-7.00532783 51.04553299 -6.72742631 48.65488953 -6.45019531 46.26416016 C-5.31845088 36.50722316 -4.17229759 26.75215678 -3 17 C-2.82448748 15.4993556 -2.6490333 13.99870437 -2.47363281 12.49804688 C-2.29775393 11.02471236 -2.12165326 9.5514043 -1.9453125 8.078125 C-1.86554169 7.38410583 -1.78577087 6.69008667 -1.70358276 5.97503662 C-1.11363521 1.11363521 -1.11363521 1.11363521 0 0 Z " fill="#1225A9" transform="translate(64,79)"/>
<path d="M0 0 C4.83004862 0.68883546 7.68426406 2.59178315 10.79296875 6.3046875 C11.60555729 7.50867118 12.39900275 8.72573264 13.17578125 9.953125 C13.60068848 10.61119141 14.0255957 11.26925781 14.46337891 11.94726562 C30.55527899 37.52586718 36.3671381 67.6660336 29.99658203 97.27929688 C24.26500048 122.32370967 11.42486836 144.09902249 -8.69921875 160.328125 C-8.69921875 159.668125 -8.69921875 159.008125 -8.69921875 158.328125 C-9.35921875 158.328125 -10.01921875 158.328125 -10.69921875 158.328125 C-10.69921875 157.008125 -10.69921875 155.688125 -10.69921875 154.328125 C-11.19421875 155.318125 -11.19421875 155.318125 -11.69921875 156.328125 C-17.92998798 159.328125 -17.92998798 159.328125 -21.69921875 159.328125 C-21.69921875 158.668125 -21.69921875 158.008125 -21.69921875 157.328125 C-19.94140625 155.77734375 -19.94140625 155.77734375 -17.57421875 154.015625 C-16.74664062 153.38527344 -15.9190625 152.75492188 -15.06640625 152.10546875 C-13.27773983 150.76249314 -11.4885938 149.42015629 -9.69921875 148.078125 C7.31728486 133.59999485 17.61013897 110.03070625 21.30078125 88.328125 C22.09690993 74.00022135 22.43444994 59.1785993 18.30078125 45.328125 C18.03394531 44.41289063 17.76710937 43.49765625 17.4921875 42.5546875 C13.13935078 29.36075576 6.47377637 17.75860422 -2.37890625 7.12109375 C-4.69921875 4.328125 -4.69921875 4.328125 -6.69921875 1.328125 C-4.88300508 -0.48808867 -2.42080981 0.09401203 0 0 Z " fill="#5480E8" transform="translate(192.69921875,39.671875)"/>
<path d="M0 0 C0.70326416 0.36367676 1.40652832 0.72735352 2.13110352 1.10205078 C6.37400287 3.40211358 9.50584373 5.86012613 12.75 9.4375 C12.09773437 9.42589844 11.44546875 9.41429688 10.7734375 9.40234375 C9.46246094 9.38880859 9.46246094 9.38880859 8.125 9.375 C7.26648438 9.36339844 6.40796875 9.35179688 5.5234375 9.33984375 C2.69700437 9.34810595 2.69700437 9.34810595 -0.1875 10.13671875 C-4.25087682 10.5358004 -6.09848729 9.31448703 -9.625 7.3125 C-14.86477974 4.47784174 -20.05073738 2.30316802 -25.75 0.5625 C-26.40790527 0.35995605 -27.06581055 0.15741211 -27.74365234 -0.05126953 C-36.18788286 -2.54983046 -44.13060678 -2.74542178 -52.875 -2.75 C-54.08285156 -2.76224609 -55.29070312 -2.77449219 -56.53515625 -2.78710938 C-84.33888235 -2.83200237 -108.69053163 7.81857057 -128.3125 27.3125 C-129.62980278 28.68289944 -130.94261698 30.05763374 -132.25 31.4375 C-133.57985962 32.77429802 -134.91220491 34.10864341 -136.25 35.4375 C-137.24 34.4475 -138.23 33.4575 -139.25 32.4375 C-139.476875 33.200625 -139.70375 33.96375 -139.9375 34.75 C-141.54979441 38.05136474 -142.864057 39.06699926 -146.25 40.4375 C-148.4140625 39.50390625 -148.4140625 39.50390625 -150.25 38.4375 C-131.80034897 11.58242057 -106.5225728 -6.07471475 -74.25 -12.5625 C-48.26169763 -16.56682006 -23.19217135 -12.04117276 0 0 Z " fill="#5785EA" transform="translate(167.25,14.5625)"/>
<path d="M0 0 C0.99 0.495 0.99 0.495 2 1 C1.67 2.32 1.34 3.64 1 5 C1.66 5 2.32 5 3 5 C-0.35733128 13.92607836 -14.11424981 19.42021245 -22.32373047 23.24536133 C-34.25028968 28.5155786 -47.3063923 32.1212151 -60.375 32.1328125 C-61.40633057 32.13424759 -61.40633057 32.13424759 -62.45849609 32.13571167 C-63.90397229 32.13638847 -65.34945161 32.13456929 -66.79492188 32.13037109 C-68.99355976 32.12501569 -71.19199339 32.13033309 -73.390625 32.13671875 C-74.80208378 32.13605788 -76.21354243 32.13477653 -77.625 32.1328125 C-78.89601563 32.13168457 -80.16703125 32.13055664 -81.4765625 32.12939453 C-84.76814538 32.00851462 -87.79456207 31.75783326 -91 31 C-92.375 28.9375 -92.375 28.9375 -93 27 C-91.66666667 26.33333333 -90.33333333 25.66666667 -89 25 C-88.22398438 24.47921875 -87.44796875 23.9584375 -86.6484375 23.421875 C-81.19351141 21.29597233 -76.03831652 21.86390872 -70.25 22.0625 C-48.84182446 22.39543985 -30.52741705 16.9907132 -12.1015625 6.06640625 C-10 5 -10 5 -7 5 C-6.01 4.34 -5.02 3.68 -4 3 C-2.68 3 -1.36 3 0 3 C0 2.01 0 1.02 0 0 Z " fill="#2746C0" transform="translate(181,193)"/>
<path d="M0 0 C0 0.66 0 1.32 0 2 C0.99 2.495 0.99 2.495 2 3 C2 2.34 2 1.68 2 1 C3.32 1.66 4.64 2.32 6 3 C5.34 3.33 4.68 3.66 4 4 C4 4.99 4 5.98 4 7 C4.99 7.495 4.99 7.495 6 8 C4.9584375 8.32871094 3.916875 8.65742188 2.84375 8.99609375 C-16.6230633 15.36367876 -31.76397433 25.19326506 -46 40 C-47.3309921 41.33567046 -48.66373305 42.66960675 -50 44 C-50.99 43.01 -51.98 42.02 -53 41 C-53.226875 41.763125 -53.45375 42.52625 -53.6875 43.3125 C-55.29979441 46.61386474 -56.614057 47.62949926 -60 49 C-62.1640625 48.06640625 -62.1640625 48.06640625 -64 47 C-50.99934675 28.07641304 -25.27189771 0 0 0 Z " fill="#426AD4" transform="translate(81,6)"/>
<path d="M0 0 C1.625 1.6875 1.625 1.6875 3 4 C1.72627851 8.20401717 -0.58900477 11.86623426 -2.8125 15.625 C-9.26177483 26.80199528 -13.14843861 37.46151682 -16 50 C-16.17490967 50.64300049 -16.34981934 51.28600098 -16.5300293 51.94848633 C-17.02415684 54.10544929 -17.20596142 56.11922833 -17.31640625 58.328125 C-17.35830078 59.12734375 -17.40019531 59.9265625 -17.44335938 60.75 C-17.48267578 61.575 -17.52199219 62.4 -17.5625 63.25 C-17.60568359 64.09046875 -17.64886719 64.9309375 -17.69335938 65.796875 C-17.79908543 67.86440671 -17.90001295 69.93218281 -18 72 C-18.928125 71.649375 -19.85625 71.29875 -20.8125 70.9375 C-23.9802953 69.67617372 -23.9802953 69.67617372 -27 71 C-27 73.31 -27 75.62 -27 78 C-27.33 78 -27.66 78 -28 78 C-28.84891103 55.02389652 -26.09626256 29.26243208 -12 10 C-9.35547342 8.28883574 -8.2048199 8 -5 8 C-2.07572746 5.59177555 -0.54074373 3.78520613 0 0 Z " fill="#2F4DC5" transform="translate(28,45)"/>
<path d="M0 0 C2 0 2 0 3.625 1.125 C5.64586126 3.8807199 5.30678981 5.61351249 5 9 C3.93015447 11.69453117 2.83647667 14.13545867 1.5 16.6875 C1.13688721 17.39229492 0.77377441 18.09708984 0.3996582 18.82324219 C-6.5591207 32.01019585 -16.40096478 43.64593934 -28 53 C-28 52.34 -28 51.68 -28 51 C-28.66 51 -29.32 51 -30 51 C-30 49.68 -30 48.36 -30 47 C-30.33 47.66 -30.66 48.32 -31 49 C-37.23076923 52 -37.23076923 52 -41 52 C-41 51.34 -41 50.68 -41 50 C-39.2421875 48.44921875 -39.2421875 48.44921875 -36.875 46.6875 C-36.04742187 46.05714844 -35.21984375 45.42679688 -34.3671875 44.77734375 C-32.57852108 43.43436814 -30.78937505 42.09203129 -29 40.75 C-17.13805805 30.65751901 -9.57575524 15.82403089 -3 2 C-1.68 2.99 -0.36 3.98 1 5 C0.505 2.525 0.505 2.525 0 0 Z " fill="#486FDA" transform="translate(212,147)"/>
<path d="M0 0 C4.83004862 0.68883546 7.68426406 2.59178315 10.79296875 6.3046875 C11.60555729 7.50867118 12.39900275 8.72573264 13.17578125 9.953125 C13.60068848 10.61119141 14.0255957 11.26925781 14.46337891 11.94726562 C21.61394615 23.31332615 30.30078125 38.4860372 30.30078125 52.328125 C29.64078125 52.328125 28.98078125 52.328125 28.30078125 52.328125 C28.30078125 50.348125 28.30078125 48.368125 28.30078125 46.328125 C26.65078125 46.328125 25.00078125 46.328125 23.30078125 46.328125 C22.97078125 48.638125 22.64078125 50.948125 22.30078125 53.328125 C21.64078125 53.328125 20.98078125 53.328125 20.30078125 53.328125 C20.03265625 52.2865625 19.76453125 51.245 19.48828125 50.171875 C15.36470716 34.82893106 9.1433303 21.86421113 -0.69921875 9.328125 C-1.86882322 7.76782287 -3.03578099 6.20553073 -4.19921875 4.640625 C-5.03170016 3.53581589 -5.86466992 2.43137326 -6.69921875 1.328125 C-4.88300508 -0.48808867 -2.42080981 0.09401203 0 0 Z " fill="#5A89EC" transform="translate(192.69921875,39.671875)"/>
<path d="M0 0 C4.17700666 2.32279056 7.82190563 5.24640693 11.4375 8.35546875 C8.61283775 9.14151729 5.98374045 9.48859434 3.0625 9.66796875 C-5.25090164 10.59017317 -10.03710646 16.6180132 -15.5625 22.35546875 C-16.5525 23.34546875 -17.5425 24.33546875 -18.5625 25.35546875 C-18.5625 21.06546875 -18.5625 16.77546875 -18.5625 12.35546875 C-14.5625 11.35546875 -14.5625 11.35546875 -10.5625 11.35546875 C-10.5625 9.70546875 -10.5625 8.05546875 -10.5625 6.35546875 C-9.9025 6.02546875 -9.2425 5.69546875 -8.5625 5.35546875 C-10.93862865 3.74639767 -10.93862865 3.74639767 -13.5625 2.35546875 C-14.5525 2.85046875 -14.5525 2.85046875 -15.5625 3.35546875 C-17.26613822 3.58168956 -18.97578701 3.76435348 -20.6875 3.91796875 C-21.59757812 4.00175781 -22.50765625 4.08554687 -23.4453125 4.171875 C-24.49332031 4.26275391 -24.49332031 4.26275391 -25.5625 4.35546875 C-25.8925 6.66546875 -26.2225 8.97546875 -26.5625 11.35546875 C-28.8725 11.68546875 -31.1825 12.01546875 -33.5625 12.35546875 C-33.8925 14.66546875 -34.2225 16.97546875 -34.5625 19.35546875 C-36.9375 19.54296875 -36.9375 19.54296875 -39.5625 19.35546875 C-40.2225 18.36546875 -40.8825 17.37546875 -41.5625 16.35546875 C-29.89755369 2.97119929 -18.67117325 -8.2883253 0 0 Z " fill="#5B8CEE" transform="translate(186.5625,28.64453125)"/>
<path d="M0 0 C0.66 0.33 1.32 0.66 2 1 C1.67 2.32 1.34 3.64 1 5 C1.66 5 2.32 5 3 5 C-0.66789294 14.75176326 -16.17438076 20.3352616 -25.0546875 24.37109375 C-28.63794815 25.92278146 -32.22279366 27.01871532 -36 28 C-36.99 26.68 -37.98 25.36 -39 24 C-35.535 23.505 -35.535 23.505 -32 23 C-32.63808594 22.87882812 -33.27617187 22.75765625 -33.93359375 22.6328125 C-34.75988281 22.46523437 -35.58617187 22.29765625 -36.4375 22.125 C-37.26121094 21.96257812 -38.08492187 21.80015625 -38.93359375 21.6328125 C-39.61550781 21.42398438 -40.29742187 21.21515625 -41 21 C-41.33 20.34 -41.66 19.68 -42 19 C-40.9790625 18.70609375 -40.9790625 18.70609375 -39.9375 18.40625 C-29.95920599 15.32784015 -20.86673008 10.73907563 -11.71875 5.7578125 C-10 5 -10 5 -7 5 C-6.01 4.34 -5.02 3.68 -4 3 C-2.68 3 -1.36 3 0 3 C0 2.01 0 1.02 0 0 Z " fill="#3758CC" transform="translate(181,193)"/>
<path d="M0 0 C0.96373535 -0.00064453 1.9274707 -0.00128906 2.92041016 -0.00195312 C10.22135405 0.05191934 17.15419089 0.67480072 24.3125 2.1875 C21.22440305 3.95212683 20.07937864 4.1875 16.3125 4.1875 C16.3125 4.8475 16.3125 5.5075 16.3125 6.1875 C15.62736328 6.21255615 14.94222656 6.2376123 14.23632812 6.26342773 C11.0949065 6.38035607 7.95371452 6.50263874 4.8125 6.625 C3.19601563 6.68397461 3.19601563 6.68397461 1.546875 6.74414062 C-4.25468464 6.97408049 -9.94018527 7.35748731 -15.6875 8.1875 C-15.6875 9.1775 -15.6875 10.1675 -15.6875 11.1875 C-17.1437672 11.55006858 -18.60261185 11.90229793 -20.0625 12.25 C-20.87460938 12.44722656 -21.68671875 12.64445313 -22.5234375 12.84765625 C-24.6875 13.1875 -24.6875 13.1875 -26.6875 12.1875 C-27.3125 9.625 -27.3125 9.625 -27.6875 7.1875 C-28.0175 7.5175 -28.3475 7.8475 -28.6875 8.1875 C-29.6775 7.8575 -30.6675 7.5275 -31.6875 7.1875 C-31.6875 6.1975 -31.6875 5.2075 -31.6875 4.1875 C-29.68877261 3.70305236 -27.68844063 3.2252234 -25.6875 2.75 C-24.57375 2.48316406 -23.46 2.21632812 -22.3125 1.94140625 C-14.8287684 0.38498362 -7.62153778 -0.00528082 0 0 Z " fill="#507DE8" transform="translate(111.6875,0.8125)"/>
<path d="M0 0 C0 1.32 0 2.64 0 4 C0.99 3.67 1.98 3.34 3 3 C3 3.66 3 4.32 3 5 C2.34 5 1.68 5 1 5 C1.66 6.32 2.32 7.64 3 9 C-2.33333333 14.33333333 -7.66666667 19.66666667 -13 25 C-13.99 24.01 -14.98 23.02 -16 22 C-16.3403125 23.1446875 -16.3403125 23.1446875 -16.6875 24.3125 C-18.29979441 27.61386474 -19.614057 28.62949926 -23 30 C-25.1640625 29.06640625 -25.1640625 29.06640625 -27 28 C-7.76377953 -0 -7.76377953 -0 0 0 Z " fill="#3B60D2" transform="translate(44,25)"/>
<path d="M0 0 C2.64 0 5.28 0 8 0 C-3.40781635 23.85797124 -3.40781635 23.85797124 -12.765625 27.375 C-17.41452992 28.67539298 -20.63214254 28.51978584 -25.125 26.8125 C-29.88751096 23.30462903 -31.40174579 16.42416362 -33 11 C-33 10.01 -33 9.02 -33 8 C-30.03 8 -27.06 8 -24 8 C-24.03480469 9.35544922 -24.03480469 9.35544922 -24.0703125 10.73828125 C-24.08835937 11.91777344 -24.10640625 13.09726563 -24.125 14.3125 C-24.14820312 15.48425781 -24.17140625 16.65601563 -24.1953125 17.86328125 C-24.25320618 21.16393661 -24.25320618 21.16393661 -22 24 C-18.64496524 24.36558117 -18.64496524 24.36558117 -14.875 24.1875 C-13.59367187 24.16042969 -12.31234375 24.13335937 -10.9921875 24.10546875 C-10.00476563 24.07066406 -9.01734375 24.03585938 -8 24 C-8.05220703 23.07767578 -8.05220703 23.07767578 -8.10546875 22.13671875 C-8.13253906 21.32847656 -8.15960938 20.52023438 -8.1875 19.6875 C-8.23970703 18.48673828 -8.23970703 18.48673828 -8.29296875 17.26171875 C-8 15 -8 15 -6.61328125 13.20703125 C-5 12 -5 12 -3 12 C-3 11.34 -3 10.68 -3 10 C-2.01 10 -1.02 10 0 10 C0 6.7 0 3.4 0 0 Z " fill="#3555C7" transform="translate(120,128)"/>
<path d="M0 0 C0.33 0 0.66 0 1 0 C1.16604736 1.20160767 1.16604736 1.20160767 1.33544922 2.42749023 C1.84485606 6.09802895 2.35988444 9.76775827 2.875 13.4375 C3.04902344 14.69755859 3.22304687 15.95761719 3.40234375 17.25585938 C4.16471934 22.6630788 4.93437346 27.98396502 6.2578125 33.28515625 C6.50273437 34.51105469 6.74765625 35.73695313 7 37 C6.34 37.66 5.68 38.32 5 39 C4.67 37.35 4.34 35.7 4 34 C3.34 34 2.68 34 2 34 C2 32.35 2 30.7 2 29 C1.34 29.99 0.68 30.98 0 32 C-2.375 31.5625 -2.375 31.5625 -5 30 C-7.62328296 22.50490584 -7.20128556 14.86131956 -7 7 C-6.06220703 6.58621094 -6.06220703 6.58621094 -5.10546875 6.1640625 C-2.35007821 4.64067404 -1.49843324 2.71145063 0 0 Z " fill="#2742BE" transform="translate(8,109)"/>
<path d="M0 0 C1.625 1.6875 1.625 1.6875 3 4 C1.70092493 8.29986253 -0.67648612 12.08340478 -2.9375 15.9375 C-4.94265627 19.37119061 -6.89335728 22.76769035 -8.5546875 26.38671875 C-9.03164063 27.24910156 -9.50859375 28.11148438 -10 29 C-13.1875 29.875 -13.1875 29.875 -16 30 C-17.35497572 22.82265337 -17.3119682 18.11334868 -13.51953125 11.77734375 C-11.80496754 9.7718772 -10.46064815 8.92214581 -8 8 C-7.01 8 -6.02 8 -5 8 C-2.07572746 5.59177555 -0.54074373 3.78520613 0 0 Z " fill="#3658CA" transform="translate(28,45)"/>
<path d="M0 0 C1.65 0.66 3.3 1.32 5 2 C1.57875825 9.52673186 -5.15044418 15.31046243 -11 21 C-11.33 20.34 -11.66 19.68 -12 19 C-12.66 19 -13.32 19 -14 19 C-14 17.68 -14 16.36 -14 15 C-14.33 15.66 -14.66 16.32 -15 17 C-21.23076923 20 -21.23076923 20 -25 20 C-25 19.34 -25 18.68 -25 18 C-23.2421875 16.44921875 -23.2421875 16.44921875 -20.875 14.6875 C-20.05515625 14.06617188 -19.2353125 13.44484375 -18.390625 12.8046875 C-17.60171875 12.20914063 -16.8128125 11.61359375 -16 11 C-11.81991183 7.76455416 -11.81991183 7.76455416 -8.5 3.6875 C-7 2 -7 2 -3.8125 1.75 C-2.884375 1.8325 -1.95625 1.915 -1 2 C-0.67 2.99 -0.34 3.98 0 5 C0 4.34 0 3.68 0 3 C0 2.01 0 1.02 0 0 Z " fill="#3E62D0" transform="translate(196,179)"/>
<path d="M0 0 C0.33 0 0.66 0 1 0 C1 2.64 1 5.28 1 8 C2.65 8 4.3 8 6 8 C7.45204058 17.64344342 6.46980517 24.90106886 3 34 C1.10786631 31.61426621 -0.02391783 29.92824652 -1 27 C-1.66 27 -2.32 27 -3 27 C-2.67 28.65 -2.34 30.3 -2 32 C-2.99 31.67 -3.98 31.34 -5 31 C-6.26647034 27.9574932 -5.9325199 25.83970955 -5.0390625 22.734375 C-4.70261719 21.52201172 -4.70261719 21.52201172 -4.359375 20.28515625 C-3.99585938 19.03025391 -3.99585938 19.03025391 -3.625 17.75 C-1.92958877 11.8160607 -0.6093019 6.14969821 0 0 Z " fill="#4B75E4" transform="translate(215,120)"/>
<path d="M0 0 C0.33 0 0.66 0 1 0 C0.32193011 13.07038177 -1.37490298 26.02062678 -3 39 C-3.33 39 -3.66 39 -4 39 C-5.02535211 30.59577465 -5.02535211 30.59577465 -4.875 27.0625 C-4.91625 26.381875 -4.9575 25.70125 -5 25 C-5.99 24.34 -6.98 23.68 -8 23 C-8.99 23.66 -9.98 24.32 -11 25 C-11.66 24.34 -12.32 23.68 -13 23 C-8.71 15.41 -4.42 7.82 0 0 Z " fill="#F0F4F8" transform="translate(133,119)"/>
<path d="M0 0 C20.13 0 40.26 0 61 0 C61.66 1.32 62.32 2.64 63 4 C62.34 4 61.68 4 61 4 C61 4.99 61 5.98 61 7 C59.72125 6.72285156 58.4425 6.44570312 57.125 6.16015625 C55.41670477 5.79409299 53.70836927 5.42821757 52 5.0625 C51.16082031 4.88009766 50.32164062 4.69769531 49.45703125 4.50976562 C40.63931774 2.6300205 32.33277067 1.8312502 23.3125 1.875 C22.34876465 1.87693359 21.3850293 1.87886719 20.39208984 1.88085938 C13.22072984 1.92415452 6.13542036 2.24606879 -1 3 C-0.67 2.01 -0.34 1.02 0 0 Z " fill="#F3F7F8" transform="translate(89,0)"/>
<path d="M0 0 C2.62688846 3.11943004 3.81362387 5.98961816 5 9.875 C6.01879017 13.07801453 6.99540537 15.99081074 8.5 19 C13.10623184 28.21246369 14.66532504 35.79083347 13 46 C11 45 11 45 10.23803711 42.87036133 C10.0035083 41.9502124 9.76897949 41.03006348 9.52734375 40.08203125 C9.13772461 38.57092773 9.13772461 38.57092773 8.74023438 37.02929688 C8.47533203 35.96775391 8.21042969 34.90621094 7.9375 33.8125 C7.66873047 32.77029297 7.39996094 31.72808594 7.12304688 30.65429688 C5.88110311 25.78253245 4.78034585 20.96995635 4 16 C3.34 16 2.68 16 2 16 C0.80911014 10.61972975 -0.2919519 5.54708616 0 0 Z " fill="#0D1F8E" transform="translate(67,88)"/>
<path d="M0 0 C0 0.66 0 1.32 0 2 C0.66 2.33 1.32 2.66 2 3 C2 2.34 2 1.68 2 1 C3.32 1.66 4.64 2.32 6 3 C5.01 3.495 5.01 3.495 4 4 C4 4.99 4 5.98 4 7 C4.66 7.33 5.32 7.66 6 8 C-3.63302752 11.78899083 -3.63302752 11.78899083 -9 10 C-10.875 8.4375 -10.875 8.4375 -12 7 C-11.01 7 -10.02 7 -9 7 C-9 6.34 -9 5.68 -9 5 C-9.62648438 5.34933594 -10.25296875 5.69867188 -10.8984375 6.05859375 C-11.71570313 6.51363281 -12.53296875 6.96867188 -13.375 7.4375 C-14.18710938 7.88996094 -14.99921875 8.34242187 -15.8359375 8.80859375 C-17.20996622 9.5650536 -18.59709261 10.29854631 -20 11 C-20.66 10.67 -21.32 10.34 -22 10 C-22 9.34 -22 8.68 -22 8 C-19.56343315 6.85214624 -17.12580719 5.70664598 -14.6875 4.5625 C-13.99720703 4.23701172 -13.30691406 3.91152344 -12.59570312 3.57617188 C-8.15110775 1.49343878 -4.95829031 0 0 0 Z " fill="#4B73DE" transform="translate(81,6)"/>
<path d="M0 0 C1.13671875 1.69140625 1.13671875 1.69140625 2 4 C1.20703125 6.40234375 1.20703125 6.40234375 -0.1875 8.9375 C-0.661875 9.81921875 -1.13625 10.7009375 -1.625 11.609375 C-2.61054071 13.32287192 -3.63635134 15.01344842 -4.6875 16.6875 C-6.20381639 19.12199382 -6.20381639 19.12199382 -6.9375 22.6875 C-8 26 -8 26 -9.9375 27.0625 C-10.9584375 27.5265625 -10.9584375 27.5265625 -12 28 C-14.25881554 31.71091124 -15 33.60010849 -15 38 C-15.66 38 -16.32 38 -17 38 C-17 38.66 -17 39.32 -17 40 C-17.66 40 -18.32 40 -19 40 C-19.99 43.3 -20.98 46.6 -22 50 C-22.33 50 -22.66 50 -23 50 C-22.48067085 39.26719751 -17.38163769 31.58463858 -12.09692383 22.47851562 C-8.97079136 17.05408184 -6.1857185 11.4906731 -3.4453125 5.86328125 C-2 3 -2 3 0 0 Z " fill="#0E229A" transform="translate(157,74)"/>
<path d="M0 0 C1.39935013 2.79870027 1.25265405 4.90498792 1 8 C0 9.8125 0 9.8125 -2 11 C-4.68115931 11.53940483 -7.2633099 11.77568114 -10 12 C-11.41662945 8.19280834 -12.33956921 5.07483052 -12 1 C-11 -1 -11 -1 -8.8125 -1.75 C-5.37146903 -2.05586942 -3.1533363 -1.36166795 0 0 Z " fill="#8799C8" transform="translate(180,71)"/>
<path d="M0 0 C2.06304078 4.12608156 0.35040594 9.62757672 -0.75 13.9375 C-2 16 -2 16 -7 18 C-7.33 21.63 -7.66 25.26 -8 29 C-8.66 29 -9.32 29 -10 29 C-10.66 30.32 -11.32 31.64 -12 33 C-12.99 32.67 -13.98 32.34 -15 32 C-16 29 -16 29 -15.29077148 26.96630859 C-14.90477783 26.20141113 -14.51878418 25.43651367 -14.12109375 24.6484375 C-13.69376953 23.79636719 -13.26644531 22.94429687 -12.82617188 22.06640625 C-12.1387793 20.73416016 -12.1387793 20.73416016 -11.4375 19.375 C-11.00630859 18.51003906 -10.57511719 17.64507812 -10.13085938 16.75390625 C-7.14769092 10.87569838 -3.77577927 5.40101672 0 0 Z " fill="#4F78E1" transform="translate(144,47)"/>
<path d="M0 0 C1.58409994 0.11487748 3.16728963 0.24234508 4.75 0.375 C5.63171875 0.44460937 6.5134375 0.51421875 7.421875 0.5859375 C9.99066382 0.99850055 11.75841015 1.71160957 14 3 C13.360625 3.45375 12.72125 3.9075 12.0625 4.375 C9.90297594 5.83921726 9.90297594 5.83921726 9 8 C6.19921875 8.95703125 6.19921875 8.95703125 2.6875 9.8125 C1.53636719 10.10769531 0.38523438 10.40289062 -0.80078125 10.70703125 C-4 11 -4 11 -6.41796875 9.57421875 C-6.94003906 9.05472656 -7.46210938 8.53523437 -8 8 C-7.34 8 -6.68 8 -6 8 C-6 7.34 -6 6.68 -6 6 C-6.66 5.67 -7.32 5.34 -8 5 C-6.865625 4.54625 -5.73125 4.0925 -4.5625 3.625 C-0.95278308 2.42904194 -0.95278308 2.42904194 0 0 Z " fill="#2F4DC7" transform="translate(136,213)"/>
<path d="M0 0 C2 2 2 2 2.22705078 5.43994141 C2.22673369 6.91051979 2.21540987 8.38112142 2.1953125 9.8515625 C2.1924826 10.62559418 2.18965271 11.39962585 2.18673706 12.19711304 C2.17552754 14.67323157 2.15042203 17.1489905 2.125 19.625 C2.11497118 21.30207812 2.10584516 22.97916189 2.09765625 24.65625 C2.07558574 28.77097223 2.04105102 32.88542511 2 37 C1.67 37 1.34 37 1 37 C0.91959473 36.40050537 0.83918945 35.80101074 0.75634766 35.18334961 C0.38453257 32.43398653 0.00482696 29.68576722 -0.375 26.9375 C-0.56449219 25.52307617 -0.56449219 25.52307617 -0.7578125 24.08007812 C-1.48266936 18.87923014 -2.4828516 14.02228434 -4 9 C-4.125 6.0625 -4.125 6.0625 -4 4 C-2.68 3.67 -1.36 3.34 0 3 C0 2.01 0 1.02 0 0 Z " fill="#FCFDF8" transform="translate(223,69)"/>
<path d="M0 0 C1.4540625 0.0309375 1.4540625 0.0309375 2.9375 0.0625 C2.2650095 5.3723729 1.20474296 10.48996728 -0.0625 15.6875 C-1.67244124 22.35057507 -1.67244124 22.35057507 -3.0625 29.0625 C-3.3925 29.0625 -3.7225 29.0625 -4.0625 29.0625 C-4.08715881 25.09319011 -4.10534023 21.12390966 -4.11743164 17.15454102 C-4.12247057 15.80329614 -4.12930177 14.45205674 -4.13793945 13.10083008 C-4.15002419 11.16229566 -4.15519828 9.223722 -4.16015625 7.28515625 C-4.16539307 6.11734619 -4.17062988 4.94953613 -4.17602539 3.74633789 C-4.01402051 -0.08359679 -3.88466316 0.07927884 0 0 Z " fill="#F7F9F8" transform="translate(4.0625,71.9375)"/>
<path d="M0 0 C1.98 0 3.96 0 6 0 C5.42570028 3.53498734 4.52247968 6.26435041 2.78515625 9.390625 C2.34623047 10.18210937 1.90730469 10.97359375 1.45507812 11.7890625 C0.99552734 12.60117188 0.53597656 13.41328125 0.0625 14.25 C-0.39318359 15.07757813 -0.84886719 15.90515625 -1.31835938 16.7578125 C-4.74025327 22.87012664 -4.74025327 22.87012664 -7 24 C-7.33 20.7 -7.66 17.4 -8 14 C-6.66666667 14 -5.33333333 14 -4 14 C-3.8453125 13.1646875 -3.8453125 13.1646875 -3.6875 12.3125 C-3 10 -3 10 -1.4375 7.5625 C0.14210846 4.74667622 0.2717471 3.17038287 0 0 Z " fill="#4D76E1" transform="translate(160,56)"/>
<path d="M0 0 C0.86165771 0.26478149 0.86165771 0.26478149 1.74072266 0.53491211 C4.36762803 1.33970954 6.99628101 2.13864729 9.625 2.9375 C10.98044922 3.35418945 10.98044922 3.35418945 12.36328125 3.77929688 C16.89337827 5.15155254 21.2916087 6.38212141 26 7 C26 7.33 26 7.66 26 8 C16.76 8 7.52 8 -2 8 C-1.34 6.02 -0.68 4.04 0 2 C0 1.34 0 0.68 0 0 Z " fill="#F2F6F9" transform="translate(70,217)"/>
<path d="M0 0 C4.95 2.31 9.9 4.62 15 7 C11 11 11 11 8.0625 11.0625 C4.32283245 9.76506432 2.62882788 7.91302549 0 5 C-0.99 4.34 -1.98 3.68 -3 3 C-2.67 2.34 -2.34 1.68 -2 1 C-1.67 1.33 -1.34 1.66 -1 2 C-0.67 1.34 -0.34 0.68 0 0 Z " fill="#223DB9" transform="translate(59,201)"/>
<path d="M0 0 C1.53224072 2.43355879 2.03344238 3.65721564 1.75 6.5625 C1 9 1 9 -1 12 C-6.25041925 13.56462494 -10.98583234 13.18566282 -16 11 C-16 10.67 -16 10.34 -16 10 C-15.09507813 9.85304687 -15.09507813 9.85304687 -14.171875 9.703125 C-9.26965781 8.78593598 -6.15538685 8.12627512 -3 4 C-2.4225 3.2575 -1.845 2.515 -1.25 1.75 C-0.8375 1.1725 -0.425 0.595 0 0 Z " fill="#F8F8F7" transform="translate(77,170)"/>
<path d="M0 0 C0.33 0 0.66 0 1 0 C1.19335938 1.12277344 1.38671875 2.24554688 1.5859375 3.40234375 C2.90014912 10.97575233 4.23120093 18.51661931 6 26 C5.34 26 4.68 26 4 26 C4 26.66 4 27.32 4 28 C3.34 27.67 2.68 27.34 2 27 C2.33 26.01 2.66 25.02 3 24 C2.01 24.33 1.02 24.66 0 25 C0 16.75 0 8.5 0 0 Z " fill="#EDF1F7" transform="translate(0,123)"/>
<path d="M0 0 C-0.33 0.66 -0.66 1.32 -1 2 C1.475 2.495 1.475 2.495 4 3 C0.60102327 5.26598448 -0.56319173 5.23742654 -4.54296875 5.1953125 C-6.15268555 5.18564453 -6.15268555 5.18564453 -7.79492188 5.17578125 C-9.47424805 5.15064453 -9.47424805 5.15064453 -11.1875 5.125 C-12.31865234 5.11597656 -13.44980469 5.10695312 -14.61523438 5.09765625 C-17.41036828 5.07406862 -20.20507845 5.041153 -23 5 C-23 4.67 -23 4.34 -23 4 C-19.54439134 3.13454045 -16.08515955 2.28456503 -12.625 1.4375 C-11.64015625 1.19064453 -10.6553125 0.94378906 -9.640625 0.68945312 C-8.69960937 0.46064453 -7.75859375 0.23183594 -6.7890625 -0.00390625 C-5.91975098 -0.21861572 -5.05043945 -0.4333252 -4.15478516 -0.65454102 C-2 -1 -2 -1 0 0 Z " fill="#ECF1F8" transform="translate(151,220)"/>
<path d="M0 0 C0.99 0.66 1.98 1.32 3 2 C3 2.66 3 3.32 3 4 C2.34 4.66 1.68 5.32 1 6 C1 7.32 1 8.64 1 10 C-2 12.25 -2 12.25 -5 14 C-5.309375 13.360625 -5.61875 12.72125 -5.9375 12.0625 C-6.8345163 10.06389179 -6.8345163 10.06389179 -8 9 C-8 7.68 -8 6.36 -8 5 C-5.525 5.495 -5.525 5.495 -3 6 C-3 4.68 -3 3.36 -3 2 C-2.34 2 -1.68 2 -1 2 C-0.67 1.34 -0.34 0.68 0 0 Z " fill="#436BD8" transform="translate(52,20)"/>
<path d="M0 0 C0.33 0 0.66 0 1 0 C1.34803805 4.17645661 0.66218062 5.82586157 -2 9 C-3.86177761 12.13562545 -4 13.12808566 -4 17 C-4.66 17 -5.32 17 -6 17 C-6 17.66 -6 18.32 -6 19 C-6.66 19 -7.32 19 -8 19 C-8.99 22.3 -9.98 25.6 -11 29 C-11.33 29 -11.66 29 -12 29 C-11.63907254 21.54083243 -9.68771974 16.44617324 -6 10 C-5.46246094 9.05769531 -4.92492187 8.11539063 -4.37109375 7.14453125 C-1.46180244 2.17419983 -1.46180244 2.17419983 0 0 Z " fill="#0C1F8A" transform="translate(146,95)"/>
<path d="M0 0 C0.99 0.33 1.98 0.66 3 1 C2.67 1.33 2.34 1.66 2 2 C2.99 2.99 3.98 3.98 5 5 C4 8 4 8 2.29296875 9.16796875 C1.59816406 9.50441406 0.90335938 9.84085938 0.1875 10.1875 C-0.49957031 10.53167969 -1.18664062 10.87585938 -1.89453125 11.23046875 C-4 12 -4 12 -8 12 C-7.67 10.35 -7.34 8.7 -7 7 C-4.69 7 -2.38 7 0 7 C0 5.68 0 4.36 0 3 C-0.66 3 -1.32 3 -2 3 C-2 3.66 -2 4.32 -2 5 C-2.66 5 -3.32 5 -4 5 C-3 2 -3 2 0 0 Z " fill="#3153C7" transform="translate(163,204)"/>
<path d="M0 0 C0.33 0.99 0.66 1.98 1 3 C0.34 3 -0.32 3 -1 3 C-0.67 2.01 -0.34 1.02 0 0 Z M-6 2 C-3.11050316 2.31237804 -1.41366901 2.64338879 0.8125 4.5625 C2.57939026 8.18927474 2.25935836 10.97994541 2 15 C1.67 15.66 1.34 16.32 1 17 C0.34 17 -0.32 17 -1 17 C-2.66666667 12 -4.33333333 7 -6 2 Z " fill="#3C61D1" transform="translate(78,97)"/>
<path d="M0 0 C2.97851562 0.43945312 2.97851562 0.43945312 5.95703125 0.87890625 C8.2025342 1.13904799 8.2025342 1.13904799 11 0 C16.24689773 -0.25804415 20.05295901 0.02118361 25 2 C21.40990977 4.39339348 19.86745502 4.18385169 15.625 4.0625 C12.36848794 3.9764083 9.46783594 3.90415395 6.2734375 4.55859375 C4 5 4 5 1 4 C0.3125 1.9375 0.3125 1.9375 0 0 Z " fill="#E7F3FC" transform="translate(159,23)"/>
<path d="M0 0 C0.66 0 1.32 0 2 0 C1.97679687 0.60328125 1.95359375 1.2065625 1.9296875 1.828125 C1.91164062 2.62734375 1.89359375 3.4265625 1.875 4.25 C1.84019531 5.43335937 1.84019531 5.43335937 1.8046875 6.640625 C2.01776751 9.21463151 2.84364342 10.72583206 4 13 C3.125 15.25 3.125 15.25 2 17 C1.34 17 0.68 17 0 17 C0 19.31 0 21.62 0 24 C-0.33 24 -0.66 24 -1 24 C-1.02893932 20.37501666 -1.04677792 16.75006287 -1.0625 13.125 C-1.07087891 12.09246094 -1.07925781 11.05992188 -1.08789062 9.99609375 C-1.09111328 9.00996094 -1.09433594 8.02382812 -1.09765625 7.0078125 C-1.10289307 6.09660645 -1.10812988 5.18540039 -1.11352539 4.24658203 C-1 2 -1 2 0 0 Z " fill="#3F59C6" transform="translate(1,99)"/>
<path d="M0 0 C4.91128067 -0.04949353 9.82241566 -0.08576382 14.73388672 -0.10986328 C16.40415985 -0.1199115 18.07441542 -0.13355236 19.74462891 -0.15087891 C22.14750504 -0.17517926 24.55014827 -0.18649487 26.953125 -0.1953125 C27.69806213 -0.20563507 28.44299927 -0.21595764 29.21051025 -0.22659302 C32.96927642 -0.22740368 35.81173711 -0.10367118 39 2 C38.25016846 1.99476318 37.50033691 1.98952637 36.7277832 1.98413086 C33.25603102 1.96305436 29.78429239 1.95024386 26.3125 1.9375 C25.13365234 1.92912109 23.95480469 1.92074219 22.74023438 1.91210938 C14.77850456 1.89029642 6.92770775 2.26651958 -1 3 C-0.67 2.01 -0.34 1.02 0 0 Z " fill="#ECF1FC" transform="translate(89,0)"/>
<path d="M0 0 C2.02558881 3.34939881 2.21738987 5.86962551 2.125 9.75 C2.10695313 10.73484375 2.08890625 11.7196875 2.0703125 12.734375 C2.03550781 13.85585937 2.03550781 13.85585937 2 15 C1.01 14.67 0.02 14.34 -1 14 C-2.01953125 11.8203125 -2.01953125 11.8203125 -2.8125 9.125 C-3.08707031 8.24070313 -3.36164063 7.35640625 -3.64453125 6.4453125 C-4 4 -4 4 -2 1 C-1.67 1.33 -1.34 1.66 -1 2 C-0.67 1.34 -0.34 0.68 0 0 Z " fill="#3759CC" transform="translate(86,120)"/>
<path d="M0 0 C2.97 0.495 2.97 0.495 6 1 C6.6875 3.8125 6.6875 3.8125 7 7 C5.75 8.5625 5.75 8.5625 4 10 C2.99431758 11.66324401 1.99335201 13.32936253 1 15 C0.67 15 0.34 15 0 15 C0.08378906 14.33613281 0.16757813 13.67226562 0.25390625 12.98828125 C1.05425042 6.45279152 1.05425042 6.45279152 0 0 Z " fill="#3E5FCE" transform="translate(128,112)"/>
<path d="M0 0 C0.33 0 0.66 0 1 0 C1 6.27 1 12.54 1 19 C0.34 19.33 -0.32 19.66 -1 20 C-1.65772428 23.02934491 -1.65772428 23.02934491 -2 26 C-2.66 25.34 -3.32 24.68 -4 24 C-3.72265625 20.93359375 -3.72265625 20.93359375 -3 17 C-2.74799457 15.53267271 -2.49671594 14.06522044 -2.24609375 12.59765625 C-1.97774277 11.08572754 -1.7081989 9.5740101 -1.4375 8.0625 C-1.29892578 7.28326172 -1.16035156 6.50402344 -1.01757812 5.70117188 C-0.67943843 3.8005936 -0.3398683 1.90026992 0 0 Z " fill="#EAF2F8" transform="translate(224,124)"/>
<path d="M0 0 C2.912575 0.08566397 4.56798024 0.57910955 6.66796875 2.625 C8.16091772 4.38391375 9.60436262 6.16313019 11 8 C7.25 9.125 7.25 9.125 5 8 C5 8.66 5 9.32 5 10 C4.34 10 3.68 10 3 10 C2.87625 9.360625 2.7525 8.72125 2.625 8.0625 C2.315625 7.0415625 2.315625 7.0415625 2 6 C1.34 5.67 0.68 5.34 0 5 C1.32 4.67 2.64 4.34 4 4 C3.34 3.34 2.68 2.68 2 2 C1.01 2.495 1.01 2.495 0 3 C0 2.01 0 1.02 0 0 Z " fill="#2C43BA" transform="translate(31,180)"/>
<path d="M0 0 C2.42520546 2.42520546 2.68564441 3.62067741 3 7 C2.0625 9.8125 2.0625 9.8125 1 12 C0.67 11.34 0.34 10.68 0 10 C-1.98 10.33 -3.96 10.66 -6 11 C-4.02 7.37 -2.04 3.74 0 0 Z " fill="#F2F6F9" transform="translate(213,163)"/>
<path d="M0 0 C2.475 0.495 2.475 0.495 5 1 C5.16276042 3.01822917 5.32552083 5.03645833 5.48828125 7.0546875 C5.87393036 9.39519216 5.87393036 9.39519216 9 11 C8.67 12.65 8.34 14.3 8 16 C4.06764096 11.50587538 0 6.15240162 0 0 Z " fill="#F1F4F4" transform="translate(18,152)"/>
<path d="M0 0 C1.46373047 0.16628906 1.46373047 0.16628906 2.95703125 0.3359375 C3.69308594 0.43132813 4.42914063 0.52671875 5.1875 0.625 C5.1875 0.955 5.1875 1.285 5.1875 1.625 C1.2275 2.285 -2.7325 2.945 -6.8125 3.625 C-6.8125 4.285 -6.8125 4.945 -6.8125 5.625 C-7.8025 5.295 -8.7925 4.965 -9.8125 4.625 C-11.49746298 5.59385372 -13.16428756 6.59486723 -14.8125 7.625 C-15.8025 7.625 -16.7925 7.625 -17.8125 7.625 C-16.75762267 6.65828244 -15.69316719 5.70201255 -14.625 4.75 C-14.03332031 4.21632813 -13.44164062 3.68265625 -12.83203125 3.1328125 C-8.55526708 -0.06028415 -5.24856217 -0.63235689 0 0 Z " fill="#E3EFFA" transform="translate(193.8125,37.375)"/>
<path d="M0 0 C1.7290631 3.4581262 0.64086357 7.28299132 0 11 C-1.0625 14.0625 -1.0625 14.0625 -2 16 C-3.32 14.35 -4.64 12.7 -6 11 C-4.54955729 6.89041233 -2.48889248 3.56741255 0 0 Z " fill="#5682E9" transform="translate(144,47)"/>
<path d="M0 0 C3.3 0.33 6.6 0.66 10 1 C8.02 1.99 8.02 1.99 6 3 C7.32 3.33 8.64 3.66 10 4 C10 4.99 10 5.98 10 7 C7.36 7.33 4.72 7.66 2 8 C0.69951159 5.39902318 0.43528578 2.86044938 0 0 Z " fill="#4978DE" transform="translate(86,5)"/>
<path d="M0 0 C1.859375 0.19140625 1.859375 0.19140625 4 1 C5.265625 3.21484375 5.265625 3.21484375 6.25 5.9375 C6.58515625 6.83339844 6.9203125 7.72929688 7.265625 8.65234375 C8 11 8 11 8 13 C5.03 12.505 5.03 12.505 2 12 C2 9.33333333 2 6.66666667 2 4 C1.01 3.67 0.02 3.34 -1 3 C-0.67 2.01 -0.34 1.02 0 0 Z " fill="#5276DF" transform="translate(89,75)"/>
<path d="M0 0 C0.33 0 0.66 0 1 0 C1.09038099 5.15171623 0.84681133 9.91913204 0 15 C-0.33 14.34 -0.66 13.68 -1 13 C-2.32 13.33 -3.64 13.66 -5 14 C-4.46515599 8.65155992 -2.53309233 4.64203897 0 0 Z " fill="#1B2BA5" transform="translate(163,62)"/>
<path d="M0 0 C1.051875 0.12375 2.10375 0.2475 3.1875 0.375 C3.1875 1.365 3.1875 2.355 3.1875 3.375 C2.1975 3.87 2.1975 3.87 1.1875 4.375 C0.8575 5.365 0.5275 6.355 0.1875 7.375 C-2.7825 7.045 -5.7525 6.715 -8.8125 6.375 C-4.75096154 0.46730769 -4.75096154 0.46730769 0 0 Z " fill="#496BD8" transform="translate(39.8125,29.625)"/>
<path d="M0 0 C0.33 0 0.66 0 1 0 C1.37125 1.670625 1.37125 1.670625 1.75 3.375 C2.61005339 7.04615198 2.61005339 7.04615198 5.125 8.4375 C5.74375 8.623125 6.3625 8.80875 7 9 C6.01 9 5.02 9 4 9 C3.34 10.32 2.68 11.64 2 13 C0.02 13 -1.96 13 -4 13 C-3.01 11.68 -2.02 10.36 -1 9 C-1.66 8.34 -2.32 7.68 -3 7 C-2.34 7 -1.68 7 -1 7 C-0.67 4.69 -0.34 2.38 0 0 Z " fill="#E8EBF0" transform="translate(52,171)"/>
<path d="M0 0 C0.33 0 0.66 0 1 0 C1 2.64 1 5.28 1 8 C0.01 8 -0.98 8 -2 8 C-2 8.33 -2 8.66 -2 9 C-3.65 9 -5.3 9 -7 9 C-6.62403791 6.21788056 -6.32681541 4.4120716 -4.5625 2.1875 C-3 1 -3 1 -1 1 C-0.67 0.67 -0.34 0.34 0 0 Z " fill="#3C63CF" transform="translate(118,103)"/>
<path d="M0 0 C0.33 0 0.66 0 1 0 C1 1.65 1 3.3 1 5 C1.66 5 2.32 5 3 5 C3 3.35 3 1.7 3 0 C3.66 0.33 4.32 0.66 5 1 C4.67 1.66 4.34 2.32 4 3 C5.32 3 6.64 3 8 3 C7.67 2.01 7.34 1.02 7 0 C7.66 0 8.32 0 9 0 C9 1.98 9 3.96 9 6 C6.525 5.01 6.525 5.01 4 4 C4 4.99 4 5.98 4 7 C5.98 7 7.96 7 10 7 C9.67 7.66 9.34 8.32 9 9 C6.35139573 9.59355614 3.70802678 9.74209269 1 10 C-0.60725635 6.78548731 -0.05748185 3.56387464 0 0 Z " fill="#5966A2" transform="translate(169,73)"/>
<path d="M0 0 C3.48584286 0.03134751 6.09479083 0.60989542 9.25 2.1875 C9.25 2.5175 9.25 2.8475 9.25 3.1875 C4.3 4.6725 4.3 4.6725 -0.75 6.1875 C-2.07 4.5375 -3.39 2.8875 -4.75 1.1875 C-3.75 0.1875 -3.75 0.1875 0 0 Z " fill="#5A84DF" transform="translate(190.75,39.8125)"/>
<path d="M0 0 C1.98 1.32 3.96 2.64 6 4 C3.35174847 5.32412577 1.01289516 5.01113716 -1.890625 4.96875 C-4.65778718 5.009745 -7.29093268 5.45818654 -10 6 C-9.67 4.35 -9.34 2.7 -9 1 C-6.33333333 1 -3.66666667 1 -1 1 C-0.67 0.67 -0.34 0.34 0 0 Z " fill="#628EED" transform="translate(174,19)"/>
<path d="M0 0 C0.66 0.66 1.32 1.32 2 2 C2.7425 1.649375 3.485 1.29875 4.25 0.9375 C7.1322726 -0.04509293 8.21176345 -0.0326802 11 1 C9.02 1.99 7.04 2.98 5 4 C5 5.32 5 6.64 5 8 C2.125 8.125 2.125 8.125 -1 8 C-1.66 7.34 -2.32 6.68 -3 6 C-2.34 6 -1.68 6 -1 6 C-1 5.01 -1 4.02 -1 3 C-1.66 2.67 -2.32 2.34 -3 2 C-2.01 1.34 -1.02 0.68 0 0 Z " fill="#203AB7" transform="translate(87,215)"/>
<path d="M0 0 C0.66 0 1.32 0 2 0 C1.67 3.63 1.34 7.26 1 11 C-0.65 11.33 -2.3 11.66 -4 12 C-5 9 -5 9 -4.00390625 6.73828125 C-3.52824219 5.93777344 -3.05257812 5.13726562 -2.5625 4.3125 C-2.08941406 3.50425781 -1.61632812 2.69601563 -1.12890625 1.86328125 C-0.75636719 1.24839844 -0.38382812 0.63351563 0 0 Z " fill="#4F73DE" transform="translate(124,84)"/>
<path d="M0 0 C1.625 1.6875 1.625 1.6875 3 4 C2.4375 6.625 2.4375 6.625 1 9 C-1.125 10.3125 -1.125 10.3125 -3 11 C-3.99 10.34 -4.98 9.68 -6 9 C-4.7934375 7.88625 -4.7934375 7.88625 -3.5625 6.75 C-1.23011409 4.24695171 -0.36465606 3.2819045 0 0 Z " fill="#3457C9" transform="translate(28,45)"/>
<path d="M0 0 C0.33 0 0.66 0 1 0 C1 2.64 1 5.28 1 8 C1.66 8 2.32 8 3 8 C2.67 12.62 2.34 17.24 2 22 C1.67 22 1.34 22 1 22 C1 19.36 1 16.72 1 14 C0.34 14 -0.32 14 -1 14 C-0.67 9.38 -0.34 4.76 0 0 Z " fill="#0D1BAB" transform="translate(75,138)"/>
<path d="M0 0 C2.74004941 2.74004941 3.20409907 5.85050373 4.125 9.5 C4.30675781 10.18964844 4.48851562 10.87929687 4.67578125 11.58984375 C6 16.69754464 6 16.69754464 6 19 C5.34 19 4.68 19 4 19 C4 17.02 4 15.04 4 13 C2.68 12.67 1.36 12.34 0 12 C0 8.04 0 4.08 0 0 Z " fill="#628CE8" transform="translate(217,73)"/>
<path d="M0 0 C0.66 0 1.32 0 2 0 C2.18451025 11.52164009 2.18451025 11.52164009 1 17 C-0.8466683 13.85409472 -1.24774283 11.56849948 -1.1875 7.9375 C-1.18105469 7.08027344 -1.17460938 6.22304687 -1.16796875 5.33984375 C-1 3 -1 3 0 0 Z " fill="#EBEEF7" transform="translate(60,85)"/>
<path d="M0 0 C0 7.59 0 15.18 0 23 C-0.33 23 -0.66 23 -1 23 C-1.33801152 20.45887768 -1.67053379 17.91723254 -2 15.375 C-2.09539062 14.66214844 -2.19078125 13.94929688 -2.2890625 13.21484375 C-2.81606101 9.11178391 -3.10466984 5.14754258 -3 1 C-1 0 -1 0 0 0 Z " fill="#E2ECFA" transform="translate(225,83)"/>
<path d="M0 0 C0 0.66 0 1.32 0 2 C-1.98 2 -3.96 2 -6 2 C-6 3.98 -6 5.96 -6 8 C-7.32 7.67 -8.64 7.34 -10 7 C-10.125 2.25 -10.125 2.25 -9 0 C-5.65506316 -0.99444068 -3.31044803 -1.10348268 0 0 Z " fill="#C9D1D9" transform="translate(178,70)"/>
<path d="M0 0 C0.33 0.66 0.66 1.32 1 2 C1.639375 2.144375 2.27875 2.28875 2.9375 2.4375 C5 3 5 3 7 6 C3.75 6.8125 3.75 6.8125 0 7 C-2.4375 4.5625 -2.4375 4.5625 -4 2 C-2.68 1.34 -1.36 0.68 0 0 Z " fill="#F5F8F5" transform="translate(184,41)"/>
<path d="M0 0 C-0.33 0.99 -0.66 1.98 -1 3 C-1.66 3 -2.32 3 -3 3 C-3 3.66 -3 4.32 -3 5 C-2.34 5 -1.68 5 -1 5 C-0.67 6.32 -0.34 7.64 0 9 C-0.99 9.66 -1.98 10.32 -3 11 C-3.12375 10.21625 -3.2475 9.4325 -3.375 8.625 C-3.79117993 5.85942178 -3.79117993 5.85942178 -6 4 C-6.99 4.99 -7.98 5.98 -9 7 C-9 6.01 -9 5.02 -9 4 C-5.7309841 0.8217901 -4.67834007 0 0 0 Z " fill="#355ACD" transform="translate(37,35)"/>
<path d="M0 0 C0.66 0.66 1.32 1.32 2 2 C3.98356483 2.71408334 5.98315437 3.38617742 8 4 C6.68 4.33 5.36 4.66 4 5 C4.33 6.32 4.66 7.64 5 9 C3.68 9.33 2.36 9.66 1 10 C1 9.34 1 8.68 1 8 C0.34 7.67 -0.32 7.34 -1 7 C-0.67 4.69 -0.34 2.38 0 0 Z " fill="#4A70DF" transform="translate(57,15)"/>
<path d="M0 0 C0.99 0.495 0.99 0.495 2 1 C2.99 0.67 3.98 0.34 5 0 C5.66 1.65 6.32 3.3 7 5 C5.68 6.32 4.36 7.64 3 9 C0 3.375 0 3.375 0 0 Z " fill="#EEF4F5" transform="translate(105,104)"/>
<path d="M0 0 C1.10102197 3.30306592 0.95067299 4.71585695 0 8 C-0.99 8.495 -0.99 8.495 -2 9 C-1.01 9.33 -0.02 9.66 1 10 C0.01 11.98 -0.98 13.96 -2 16 C-3.64874527 13.47838959 -4.01134133 12.17390035 -3.8125 9.125 C-2.94376858 5.78372533 -1.65465801 3.02154942 0 0 Z " fill="#F5F9F7" transform="translate(23,62)"/>
<path d="M0 0 C0.66 0.99 1.32 1.98 2 3 C2.66 3 3.32 3 4 3 C4 3.66 4 4.32 4 5 C4.66 5.33 5.32 5.66 6 6 C6 7.65 6 9.3 6 11 C5.01 11 4.02 11 3 11 C3 9.68 3 8.36 3 7 C2.34 7 1.68 7 1 7 C1 8.32 1 9.64 1 11 C0.34 11 -0.32 11 -1 11 C-0.67 7.37 -0.34 3.74 0 0 Z " fill="#F4F6F6" transform="translate(164,61)"/>
<path d="M0 0 C-2.5 2 -2.5 2 -5 4 C-5.86625 4.763125 -6.7325 5.52625 -7.625 6.3125 C-8.40875 6.869375 -9.1925 7.42625 -10 8 C-10.99 7.67 -11.98 7.34 -13 7 C-12.67 6.34 -12.34 5.68 -12 5 C-10.68 5 -9.36 5 -8 5 C-8 3.35 -8 1.7 -8 0 C-5.13822943 -1.43088528 -3.06624227 -0.59991697 0 0 Z " fill="#E9EFF8" transform="translate(54,17)"/>
<path d="M0 0 C7.92 0.33 15.84 0.66 24 1 C24 1.33 24 1.66 24 2 C16.08 2.33 8.16 2.66 0 3 C0 2.01 0 1.02 0 0 Z " fill="#7896EA" transform="translate(96,9)"/>
<path d="M0 0 C0.33 0.66 0.66 1.32 1 2 C1.66 2 2.32 2 3 2 C3.125 5.375 3.125 5.375 3 9 C2.34 9.66 1.68 10.32 1 11 C0.35232207 13.57061311 0.35232207 13.57061311 0 16 C-0.33 16 -0.66 16 -1 16 C-0.67 10.72 -0.34 5.44 0 0 Z " fill="#DFE1EF" transform="translate(157,118)"/>
<path d="M0 0 C0.99 0 1.98 0 3 0 C3.33 1.32 3.66 2.64 4 4 C4.66 4 5.32 4 6 4 C6.33 3.34 6.66 2.68 7 2 C7.625 3.8125 7.625 3.8125 8 6 C7.01 7.485 7.01 7.485 6 9 C5.01 8.67 4.02 8.34 3 8 C3.66 7.34 4.32 6.68 5 6 C2.03 5.505 2.03 5.505 -1 5 C-0.67 3.35 -0.34 1.7 0 0 Z " fill="#3E65D2" transform="translate(200,167)"/>
<path d="M0 0 C1.03348696 3.10046087 1.17755913 4.05610218 0 7 C-0.99 7.33 -1.98 7.66 -3 8 C-3.33 8.66 -3.66 9.32 -4 10 C-4.99 10.33 -5.98 10.66 -7 11 C-7.66 9.68 -8.32 8.36 -9 7 C-8.071875 6.5875 -7.14375 6.175 -6.1875 5.75 C-3.11945319 4.06558214 -1.80959535 2.91545917 0 0 Z " fill="#EFF1F8" transform="translate(117,147)"/>
<path d="M0 0 C0.99 0.33 1.98 0.66 3 1 C2.67 1.66 2.34 2.32 2 3 C4.64 3 7.28 3 10 3 C10.33 3.66 10.66 4.32 11 5 C7.37 5.33 3.74 5.66 0 6 C0 4.02 0 2.04 0 0 Z " fill="#E2E9F1" transform="translate(120,210)"/>
<path d="M0 0 C1.8871875 0.0309375 1.8871875 0.0309375 3.8125 0.0625 C1.8325 1.0525 1.8325 1.0525 -0.1875 2.0625 C1.1325 3.0525 2.4525 4.0425 3.8125 5.0625 C0.5125 4.7325 -2.7875 4.4025 -6.1875 4.0625 C-6.5175 3.0725 -6.8475 2.0825 -7.1875 1.0625 C-4.43671116 0.14557039 -2.82801087 -0.04636083 0 0 Z " fill="#E3E9F2" transform="translate(100.1875,210.9375)"/>
<path d="M0 0 C0.6875 1.8125 0.6875 1.8125 1 4 C-0.125 5.8125 -0.125 5.8125 -2 7 C-4.6875 6.6875 -4.6875 6.6875 -7 6 C-2.25 1.125 -2.25 1.125 0 0 Z " fill="#527AE0" transform="translate(71,72)"/>
<path d="M0 0 C3.3 0 6.6 0 10 0 C10.33 0.66 10.66 1.32 11 2 C6.8803623 3.29243536 3.33168317 4.26252625 -1 4 C-0.67 2.68 -0.34 1.36 0 0 Z " fill="#2946BF" transform="translate(134,219)"/>
<path d="M0 0 C-0.33 1.65 -0.66 3.3 -1 5 C-5.08718695 5.24042276 -8.17679443 4.42258812 -12 3 C-12 2.67 -12 2.34 -12 2 C-10.56342755 1.66269158 -9.12569907 1.33030409 -7.6875 1 C-6.88699219 0.814375 -6.08648437 0.62875 -5.26171875 0.4375 C-3 0 -3 0 0 0 Z " fill="#E8EBF1" transform="translate(73,178)"/>
<path d="M0 0 C0.33 0.66 0.66 1.32 1 2 C1.66 2 2.32 2 3 2 C2.67 3.65 2.34 5.3 2 7 C2.99 7 3.98 7 5 7 C5.33 6.34 5.66 5.68 6 5 C6.66 5 7.32 5 8 5 C7.34 6.98 6.68 8.96 6 11 C3.17621961 9.96461386 2.1756855 9.33380245 0.75 6.625 C0 4 0 4 0 0 Z " fill="#1E2FB1" transform="translate(128,166)"/>
<path d="M0 0 C2.86724686 0.57344937 3.8614515 0.8614515 6 3 C6 3.99 6 4.98 6 6 C5.34 6 4.68 6 4 6 C3.67 7.32 3.34 8.64 3 10 C0 3.375 0 3.375 0 0 Z " fill="#2D4FC2" transform="translate(87,136)"/>
<path d="M0 0 C0.66 0 1.32 0 2 0 C2.33 0.99 2.66 1.98 3 3 C3.99 2.01 4.98 1.02 6 0 C5.67 3.63 5.34 7.26 5 11 C1.23452331 7.23452331 1.08651531 5.09826415 0 0 Z " fill="#F4F8FC" transform="translate(219,77)"/>
<path d="M0 0 C1.98 0 3.96 0 6 0 C5.67 1.65 5.34 3.3 5 5 C3.0625 5.5625 3.0625 5.5625 1 6 C0 5 0 5 -0.0625 2.4375 C-0.041875 1.633125 -0.02125 0.82875 0 0 Z " fill="#5481E7" transform="translate(160,56)"/>
<path d="M0 0 C2.62187494 1.04874998 3.79371361 1.64931313 5.25 4.125 C5.4975 4.74375 5.745 5.3625 6 6 C5.01 6 4.02 6 3 6 C2.67 6.66 2.34 7.32 2 8 C0.4375 6.25 0.4375 6.25 -1 4 C-0.6875 1.75 -0.6875 1.75 0 0 Z " fill="#1D38AF" transform="translate(20,172)"/>
<path d="M0 0 C0.99 0.99 1.98 1.98 3 3 C3.99 2.67 4.98 2.34 6 2 C7 3 7 3 7.0625 5.5625 C7.041875 6.366875 7.02125 7.17125 7 8 C6.34 8 5.68 8 5 8 C4.67 7.01 4.34 6.02 4 5 C3.67 5.99 3.34 6.98 3 8 C2.34 8 1.68 8 1 8 C-0.35439668 5.29120665 -0.06501451 2.99066732 0 0 Z " fill="#2236AB" transform="translate(56,136)"/>
<path d="M0 0 C0.66 0 1.32 0 2 0 C1.67 1.98 1.34 3.96 1 6 C-1.875 6.625 -1.875 6.625 -5 7 C-5.66 6.34 -6.32 5.68 -7 5 C-6.34 5 -5.68 5 -5 5 C-5 4.34 -5 3.68 -5 3 C-3.68 3.33 -2.36 3.66 -1 4 C-0.67 2.68 -0.34 1.36 0 0 Z " fill="#E0EBEE" transform="translate(178,74)"/>
<path d="M0 0 C4.62 0 9.24 0 14 0 C13 2 13 2 11.265625 2.65234375 C8.63480179 3.05603904 6.39068309 2.87521247 3.75 2.5625 C2.85796875 2.46066406 1.9659375 2.35882813 1.046875 2.25390625 C0.37140625 2.17011719 -0.3040625 2.08632812 -1 2 C-0.67 1.34 -0.34 0.68 0 0 Z " fill="#2D4DC7" transform="translate(98,152)"/>
<path d="M0 0 C0.33 1.65 0.66 3.3 1 5 C0.34 5 -0.32 5 -1 5 C-0.67 6.98 -0.34 8.96 0 11 C-2.2551922 8.7448078 -2.97723468 6.9952413 -4 4 C-4 3.01 -4 2.02 -4 1 C-2 0 -2 0 0 0 Z " fill="#1E3AAE" transform="translate(11,149)"/>
<path d="M0 0 C0.33 0 0.66 0 1 0 C1.08333357 4.8333472 0.95261487 9.23692563 0 14 C-2.28259205 10.57611192 -2.16215534 9.79805495 -1.6875 5.875 C-1.58824219 4.98554687 -1.48898438 4.09609375 -1.38671875 3.1796875 C-1 1 -1 1 0 0 Z " fill="#0C19A6" transform="translate(159,93)"/>
<path d="M0 0 C0.99 0.99 1.98 1.98 3 3 C2.67 3.99 2.34 4.98 2 6 C3.32 7.32 4.64 8.64 6 10 C1.58110387 8.64978174 -0.34345343 6.73884332 -3 3 C-2.01 2.01 -1.02 1.02 0 0 Z " fill="#1B31AF" transform="translate(43,195)"/>
<path d="M0 0 C2.95183101 2.95183101 3.08663988 5.95511947 4 10 C3.01 9.34 2.02 8.68 1 8 C0.34 9.32 -0.32 10.64 -1 12 C-1.14285714 3.42857143 -1.14285714 3.42857143 0 0 Z " fill="#DBE5EB" transform="translate(81,124)"/>
<path d="M0 0 C0.99 0.33 1.98 0.66 3 1 C0.27521226 4.36591427 -3.06856792 5.44226276 -7 7 C-6.67 5.35 -6.34 3.7 -6 2 C-4.02 1.67 -2.04 1.34 0 1 C0 0.67 0 0.34 0 0 Z " fill="#E3EBF5" transform="translate(162,200)"/>
<path d="M0 0 C0.66 1.32 1.32 2.64 2 4 C1.34 4 0.68 4 0 4 C0 4.99 0 5.98 0 7 C0.99 7.33 1.98 7.66 3 8 C2.67 8.66 2.34 9.32 2 10 C0.68 9.34 -0.64 8.68 -2 8 C-2.20086443 4.28400809 -2.1519437 3.22791555 0 0 Z " fill="#385DCD" transform="translate(106,110)"/>
<path d="M0 0 C2.29013653 3.4352048 2.17842973 4.985331 2 9 C1.01 9.33 0.02 9.66 -1 10 C-1.02689216 8.52093108 -1.04634621 7.04172517 -1.0625 5.5625 C-1.07410156 4.73878906 -1.08570313 3.91507812 -1.09765625 3.06640625 C-1 1 -1 1 0 0 Z " fill="#0C1C97" transform="translate(64,79)"/>
<path d="M0 0 C2.31 0 4.62 0 7 0 C7.45375 0.969375 7.9075 1.93875 8.375 2.9375 C9.65786221 6.07079582 9.65786221 6.07079582 12 7 C11.67 7.66 11.34 8.32 11 9 C10.29875 8.236875 9.5975 7.47375 8.875 6.6875 C6.03647396 4.03409522 3.53050949 2.55999257 0 1 C0 0.67 0 0.34 0 0 Z " fill="#EAF3F7" transform="translate(195,40)"/>
<path d="M0 0 C0.99 0 1.98 0 3 0 C3 0.66 3 1.32 3 2 C3.99 2 4.98 2 6 2 C4.25 5.875 4.25 5.875 2 7 C2 6.34 2 5.68 2 5 C1.34 5 0.68 5 0 5 C0 3.35 0 1.7 0 0 Z " fill="#4263D8" transform="translate(182,193)"/>
<path d="M0 0 C-2.61941217 1.74627478 -4.03824877 2.38722388 -7 3 C-6.34 3.66 -5.68 4.32 -5 5 C-6.32 5 -7.64 5 -9 5 C-9.33 4.01 -9.66 3.02 -10 2 C-9.34 2 -8.68 2 -8 2 C-8 1.34 -8 0.68 -8 0 C-4.71023192 -1.09658936 -3.28696233 -0.79953138 0 0 Z " fill="#EAECEF" transform="translate(139,179)"/>
<path d="M0 0 C0.99 0.495 0.99 0.495 2 1 C2 1.66 2 2.32 2 3 C2.99 3.33 3.98 3.66 5 4 C4.34 6.31 3.68 8.62 3 11 C1.02978989 7.4536218 0 4.07768576 0 0 Z " fill="#5378E4" transform="translate(215,143)"/>
<path d="M0 0 C0.33 0 0.66 0 1 0 C1.22197585 2.10277123 1.42713637 4.20732302 1.625 6.3125 C1.74101562 7.48425781 1.85703125 8.65601563 1.9765625 9.86328125 C2 13 2 13 0 16 C-0.91397824 10.31302429 -0.91397824 5.68697571 0 0 Z " fill="#4A7BD7" transform="translate(220,128)"/>
<path d="M0 0 C0.33 0 0.66 0 1 0 C1 1.65 1 3.3 1 5 C1.66 5 2.32 5 3 5 C3.33 6.98 3.66 8.96 4 11 C3.01 11.495 3.01 11.495 2 12 C0.00214565 7.8794254 -0.17835515 4.54805635 0 0 Z " fill="#2637AD" transform="translate(62,84)"/>
<path d="M0 0 C-1.485 1.98 -1.485 1.98 -3 4 C-5.64 3.67 -8.28 3.34 -11 3 C-7.48550811 -0.37391222 -4.73940561 -0.27342725 0 0 Z " fill="#F2F5F9" transform="translate(97,210)"/>
<path d="M0 0 C0.99 0.33 1.98 0.66 3 1 C3.73046875 2.84765625 3.73046875 2.84765625 4.1875 5.0625 C4.34605469 5.79597656 4.50460938 6.52945313 4.66796875 7.28515625 C4.83232422 8.13400391 4.83232422 8.13400391 5 9 C3.02 7.35 1.04 5.7 -1 4 C-0.67 2.68 -0.34 1.36 0 0 Z " fill="#1B32B0" transform="translate(30,185)"/>
<path d="M0 0 C0.99 0 1.98 0 3 0 C2.34 4.29 1.68 8.58 1 13 C0.67 13 0.34 13 0 13 C0 8.71 0 4.42 0 0 Z " fill="#EDF3F8" transform="translate(0,88)"/>
<path d="M0 0 C0.66 0.33 1.32 0.66 2 1 C0.08864614 4.53600465 -1.62642766 6.78972846 -5 9 C-5 7.68 -5 6.36 -5 5 C-4.01 5 -3.02 5 -2 5 C-2 4.34 -2 3.68 -2 3 C-2.66 2.67 -3.32 2.34 -4 2 C-2.68 2 -1.36 2 0 2 C0 1.34 0 0.68 0 0 Z " fill="#6893E7" transform="translate(179,38)"/>
<path d="M0 0 C0.66 0 1.32 0 2 0 C2 1.65 2 3.3 2 5 C-0.31 5.33 -2.62 5.66 -5 6 C-3.38405168 3.95880212 -1.7143618 1.95927063 0 0 Z " fill="#4465D0" transform="translate(42,25)"/>
<path d="M0 0 C0 1.98 0 3.96 0 6 C-1.98 5.34 -3.96 4.68 -6 4 C-2.25 0 -2.25 0 0 0 Z " fill="#EEF5F7" transform="translate(168,9)"/>
<path d="M0 0 C0.66 0 1.32 0 2 0 C2.33 1.98 2.66 3.96 3 6 C2.01 6.66 1.02 7.32 0 8 C-0.66 7.34 -1.32 6.68 -2 6 C-1.625 3.875 -1.625 3.875 -1 2 C-0.67 2.66 -0.34 3.32 0 4 C0 2.68 0 1.36 0 0 Z " fill="#F6F8F5" transform="translate(178,184)"/>
<path d="M0 0 C1.98 0 3.96 0 6 0 C6 0.66 6 1.32 6 2 C6.99 2.33 7.98 2.66 9 3 C8.34 3.66 7.68 4.32 7 5 C3.535 3.02 3.535 3.02 0 1 C0 0.67 0 0.34 0 0 Z " fill="#E6EDF6" transform="translate(62,202)"/>
<path d="M0 0 C0.66 0.66 1.32 1.32 2 2 C1.34 2 0.68 2 0 2 C0 2.99 0 3.98 0 5 C0.66 5.33 1.32 5.66 2 6 C1.01 6 0.02 6 -1 6 C-3.1875 3.5 -3.1875 3.5 -5 1 C-2.625 0.375 -2.625 0.375 0 0 Z " fill="#F2F3F9" transform="translate(37,176)"/>
<path d="M0 0 C2 2 2 2 3 5 C3.66 5 4.32 5 5 5 C4.67 6.32 4.34 7.64 4 9 C3.34 9 2.68 9 2 9 C2 8.34 2 7.68 2 7 C1.34 7 0.68 7 0 7 C0 4.69 0 2.38 0 0 Z " fill="#405AD0" transform="translate(120,128)"/>
<path d="M0 0 C0.66 0.33 1.32 0.66 2 1 C1.67 1.66 1.34 2.32 1 3 C1 3.99 1 4.98 1 6 C1 6.66 1 7.32 1 8 C-0.32 7.67 -1.64 7.34 -3 7 C-3 3.48283697 -2.17554415 2.62878252 0 0 Z " fill="#658CEB" transform="translate(149,40)"/>
<path d="M0 0 C0.66 0.33 1.32 0.66 2 1 C0.93106782 2.03590338 -0.15578488 3.05333942 -1.25 4.0625 C-2.15492187 4.91521484 -2.15492187 4.91521484 -3.078125 5.78515625 C-4.02945313 6.38650391 -4.02945313 6.38650391 -5 7 C-6.32 6.67 -7.64 6.34 -9 6 C-6.03 4.02 -3.06 2.04 0 0 Z " fill="#E0EBF8" transform="translate(62,23)"/>
<path d="M0 0 C0.33 0.99 0.66 1.98 1 3 C0.67 3.66 0.34 4.32 0 5 C-2.5625 5.625 -2.5625 5.625 -5 6 C-5.33 5.01 -5.66 4.02 -6 3 C-4.02 2.01 -2.04 1.02 0 0 Z " fill="#EAF0F3" transform="translate(169,210)"/>
<path d="M0 0 C0.66 0 1.32 0 2 0 C1.690625 0.598125 1.38125 1.19625 1.0625 1.8125 C-0.10209704 4.08956772 -0.10209704 4.08956772 -1 7 C-1.99 7.33 -2.98 7.66 -4 8 C-3.67 6.02 -3.34 4.04 -3 2 C-2.01 2 -1.02 2 0 2 C0 1.34 0 0.68 0 0 Z " fill="#1A3AB1" transform="translate(16,153)"/>
<path d="M0 0 C0.66 0 1.32 0 2 0 C2.33 2.64 2.66 5.28 3 8 C2.01 7.67 1.02 7.34 0 7 C-0.38133299 5.0085944 -0.71325582 3.00720923 -1 1 C-0.67 0.67 -0.34 0.34 0 0 Z " fill="#0B1B83" transform="translate(78,118)"/>
<path d="M0 0 C0.33 1.32 0.66 2.64 1 4 C0.01 4.495 0.01 4.495 -1 5 C-1 5.66 -1 6.32 -1 7 C-2.32 7.33 -3.64 7.66 -5 8 C-3.8141763 4.62496331 -2.72426311 2.35277269 0 0 Z " fill="#E9F3F6" transform="translate(173,48)"/>
<path d="M0 0 C0.33 0.99 0.66 1.98 1 3 C-0.40445835 5.2636564 -2.1967913 7.0208685 -4 9 C-4.625 7.1875 -4.625 7.1875 -5 5 C-4.34 4.01 -3.68 3.02 -3 2 C-2.01 2 -1.02 2 0 2 C0 1.34 0 0.68 0 0 Z " fill="#5C84E7" transform="translate(173,45)"/>
<path d="M0 0 C2.64 0 5.28 0 8 0 C7.67 0.99 7.34 1.98 7 3 C4.9375 3.6875 4.9375 3.6875 3 4 C2.01 2.68 1.02 1.36 0 0 Z " fill="#5B8DF3" transform="translate(187,40)"/>
<path d="M0 0 C0.33 0.66 0.66 1.32 1 2 C1.66 2.33 2.32 2.66 3 3 C2.01 3.33 1.02 3.66 0 4 C-0.33 5.65 -0.66 7.3 -1 9 C-1.33 7.68 -1.66 6.36 -2 5 C-2.66 5 -3.32 5 -4 5 C-3 2 -3 2 0 0 Z " fill="#6893F1" transform="translate(161,29)"/>
<path d="M0 0 C0.66 0.33 1.32 0.66 2 1 C1.67 2.32 1.34 3.64 1 5 C-0.98 5.33 -2.96 5.66 -5 6 C-5.33 5.34 -5.66 4.68 -6 4 C-4.02 3.67 -2.04 3.34 0 3 C0 2.01 0 1.02 0 0 Z " fill="#325CC2" transform="translate(181,193)"/>
<path d="M0 0 C0.66 0.33 1.32 0.66 2 1 C2.25 3.3125 2.25 3.3125 2 6 C0 7.8125 0 7.8125 -2 9 C-2.33 7.68 -2.66 6.36 -3 5 C-2.01 5 -1.02 5 0 5 C0 3.35 0 1.7 0 0 Z " fill="#395AD9" transform="translate(191,186)"/>
<path d="M0 0 C0.66 0.33 1.32 0.66 2 1 C2 2.98 2 4.96 2 7 C1.01 6.67 0.02 6.34 -1 6 C-1.33 6.66 -1.66 7.32 -2 8 C-2 2 -2 2 0 0 Z " fill="#4C70DD" transform="translate(189,181)"/>
<path d="M0 0 C2 1 4 2 6 3 C5.67 4.65 5.34 6.3 5 8 C2.74754119 5.31158141 1.11786042 3.35358125 0 0 Z " fill="#E3ECF6" transform="translate(21,160)"/>
<path d="M0 0 C1.98 0.99 1.98 0.99 4 2 C3.34 4.31 2.68 6.62 2 9 C1.67 9 1.34 9 1 9 C0.67 6.03 0.34 3.06 0 0 Z " fill="#ECF1F8" transform="translate(11,128)"/>
<path d="M0 0 C0.33 2.64 0.66 5.28 1 8 C0.34 8 -0.32 8 -1 8 C-3 6 -3 6 -3.125 3.375 C-3.08375 2.59125 -3.0425 1.8075 -3 1 C-1 0 -1 0 0 0 Z " fill="#0A1AA3" transform="translate(63,106)"/>
<path d="M0 0 C1.32 0.66 2.64 1.32 4 2 C4 2.66 4 3.32 4 4 C3.34 4 2.68 4 2 4 C1.67 4.66 1.34 5.32 1 6 C0.01 5.67 -0.98 5.34 -2 5 C-1.34 3.35 -0.68 1.7 0 0 Z " fill="#4160D1" transform="translate(15,56)"/>
<path d="M0 0 C0.99 0.66 1.98 1.32 3 2 C3 3.32 3 4.64 3 6 C0.525 5.01 0.525 5.01 -2 4 C-2 3.01 -2 2.02 -2 1 C-1.67 1.33 -1.34 1.66 -1 2 C-0.67 1.34 -0.34 0.68 0 0 Z " fill="#2C46C1" transform="translate(59,201)"/>
<path d="M0 0 C4.55384615 -0.36923077 4.55384615 -0.36923077 6.8125 1.5 C7.204375 1.995 7.59625 2.49 8 3 C6.02 3.33 4.04 3.66 2 4 C1.34 2.68 0.68 1.36 0 0 Z " fill="#E9EDF4" transform="translate(41,203)"/>
<path d="M0 0 C1.32 1.32 2.64 2.64 4 4 C3.67 4.66 3.34 5.32 3 6 C2.01 6.33 1.02 6.66 0 7 C-0.93423645 3.98968256 -1.04449911 3.13349732 0 0 Z " fill="#ECF1F4" transform="translate(25,184)"/>
<path d="M0 0 C0.33 0 0.66 0 1 0 C1 1.65 1 3.3 1 5 C1.66 5 2.32 5 3 5 C3 7.31 3 9.62 3 12 C0.05413171 7.58119757 -0.0985616 5.32232661 0 0 Z " fill="#0E249E" transform="translate(132,145)"/>
<path d="M0 0 C0.66 0.66 1.32 1.32 2 2 C1.625 5.625 1.625 5.625 1 9 C0.01 9 -0.98 9 -2 9 C-1.34 6.03 -0.68 3.06 0 0 Z " fill="#577EDB" transform="translate(212,137)"/>
<path d="M0 0 C0.66 0.33 1.32 0.66 2 1 C1.34 3.31 0.68 5.62 0 8 C-0.66 7.34 -1.32 6.68 -2 6 C-2 4.33333333 -2 2.66666667 -2 1 C-1.34 0.67 -0.68 0.34 0 0 Z " fill="#2D4BC0" transform="translate(15,73)"/>
<path d="M0 0 C0.99 1.32 1.98 2.64 3 4 C2.67 4.66 2.34 5.32 2 6 C-0.0625 6.625 -0.0625 6.625 -2 7 C-1.34 4.69 -0.68 2.38 0 0 Z " fill="#E9F4F8" transform="translate(203,65)"/>
<path d="M0 0 C0.66 0.33 1.32 0.66 2 1 C1.67 1.66 1.34 2.32 1 3 C0.34 3 -0.32 3 -1 3 C-1.33 4.65 -1.66 6.3 -2 8 C-2.66 7.67 -3.32 7.34 -4 7 C-2.92598892 4.08482708 -2.22189824 2.22189824 0 0 Z " fill="#4B67C7" transform="translate(26,41)"/>
<path d="M0 0 C0.66 0.66 1.32 1.32 2 2 C1.8125 4 1.8125 4 1 6 C0.01 6.66 -0.98 7.32 -2 8 C-2 6.68 -2 5.36 -2 4 C-1.34 4 -0.68 4 0 4 C-0.33 3.01 -0.66 2.02 -1 1 C-0.67 0.67 -0.34 0.34 0 0 Z " fill="#E3EDF3" transform="translate(29,32)"/>
<path d="M0 0 C2.31 0 4.62 0 7 0 C5.8125 1.5 5.8125 1.5 4 3 C1.3125 3.1875 1.3125 3.1875 -1 3 C-0.67 2.01 -0.34 1.02 0 0 Z " fill="#5E90F8" transform="translate(167,29)"/>
<path d="M0 0 C0.99 0.66 1.98 1.32 3 2 C3 2.66 3 3.32 3 4 C1.35 4.66 -0.3 5.32 -2 6 C-2.33 4.68 -2.66 3.36 -3 2 C-2.34 2 -1.68 2 -1 2 C-0.67 1.34 -0.34 0.68 0 0 Z " fill="#4B6DE2" transform="translate(52,20)"/>
<path d="M0 0 C0 1.32 0 2.64 0 4 C-0.8353125 3.7834375 -0.8353125 3.7834375 -1.6875 3.5625 C-4.11384195 2.97230872 -6.54906345 2.476571 -9 2 C-9 1.67 -9 1.34 -9 1 C-5.94152152 0.45627049 -3.11227195 0 0 0 Z " fill="#5E84E1" transform="translate(96,2)"/>
<path d="M0 0 C1.32 0.99 2.64 1.98 4 3 C3.67 3.99 3.34 4.98 3 6 C3 5.34 3 4.68 3 4 C2.01 4 1.02 4 0 4 C0 4.99 0 5.98 0 7 C-0.66 6.67 -1.32 6.34 -2 6 C-1.34 4.02 -0.68 2.04 0 0 Z " fill="#2D44BA" transform="translate(42,188)"/>
<path d="M0 0 C0.99 0.33 1.98 0.66 3 1 C3.6875 3.0625 3.6875 3.0625 4 5 C2.35 5 0.7 5 -1 5 C-1 1 -1 1 0 0 Z " fill="#1C34B0" transform="translate(26,179)"/>
<path d="M0 0 C2 1 4 2 6 3 C5.34 4.32 4.68 5.64 4 7 C2.02 3.535 2.02 3.535 0 0 Z " fill="#ECF2F9" transform="translate(26,168)"/>
<path d="M0 0 C1.32 0.33 2.64 0.66 4 1 C4.33 2.65 4.66 4.3 5 6 C4.01 5.67 3.02 5.34 2 5 C2 4.34 2 3.68 2 3 C1.34 3 0.68 3 0 3 C0 2.01 0 1.02 0 0 Z " fill="#ECF5F6" transform="translate(82,133)"/>
<path d="M0 0 C0.33 0 0.66 0 1 0 C1 1.98 1 3.96 1 6 C0.01 6.495 0.01 6.495 -1 7 C-1.99 6.34 -2.98 5.68 -4 5 C-3.67 4.34 -3.34 3.68 -3 3 C-2.67 3.33 -2.34 3.66 -2 4 C-1.34 2.68 -0.68 1.36 0 0 Z " fill="#4D77E3" transform="translate(149,82)"/>
<path d="M0 0 C0.33 1.32 0.66 2.64 1 4 C0.34 4 -0.32 4 -1 4 C-0.67 2.68 -0.34 1.36 0 0 Z M-5 1 C-4.01 1.33 -3.02 1.66 -2 2 C-1.67 2.99 -1.34 3.98 -1 5 C-1.66 5.66 -2.32 6.32 -3 7 C-3.66 5.02 -4.32 3.04 -5 1 Z " fill="#F1F6FE" transform="translate(221,68)"/>
<path d="M0 0 C2.0625 0.4375 2.0625 0.4375 4 1 C3.67 2.32 3.34 3.64 3 5 C2.01 5 1.02 5 0 5 C-0.5625 3.0625 -0.5625 3.0625 -1 1 C-0.67 0.67 -0.34 0.34 0 0 Z " fill="#4467D8" transform="translate(30,44)"/>
<path d="M0 0 C0.66 0.99 1.32 1.98 2 3 C0.68 4.32 -0.64 5.64 -2 7 C-2.33 5.35 -2.66 3.7 -3 2 C-2.01 1.34 -1.02 0.68 0 0 Z " fill="#EFF3F8" transform="translate(19,46)"/>
<path d="M0 0 C2.375 -0.1875 2.375 -0.1875 5 0 C5.66 0.99 6.32 1.98 7 3 C5.35 3.33 3.7 3.66 2 4 C1.34 2.68 0.68 1.36 0 0 Z " fill="#F0F5F7" transform="translate(193,32)"/>
<path d="M0 0 C0.66 0.33 1.32 0.66 2 1 C-1.465 3.97 -1.465 3.97 -5 7 C-5 6.01 -5 5.02 -5 4 C-4.34 4 -3.68 4 -3 4 C-3 3.01 -3 2.02 -3 1 C-2.01 0.67 -1.02 0.34 0 0 Z " fill="#EAF6FA" transform="translate(155,32)"/>
<path d="M0 0 C0 0.66 0 1.32 0 2 C-0.33 2.33 -0.66 2.66 -1 3 C-0.67 3.66 -0.34 4.32 0 5 C-1.65 4.67 -3.3 4.34 -5 4 C-5 3.01 -5 2.02 -5 1 C-2 0 -2 0 0 0 Z " fill="#F0F6F3" transform="translate(80,16)"/>
<path d="M0 0 C0.598125 0.165 1.19625 0.33 1.8125 0.5 C4.11344336 1.1114124 4.11344336 1.1114124 7 1 C7.66 1.66 8.32 2.32 9 3 C5.23375329 4.25541557 3.62811066 3.37061958 0 2 C0 1.34 0 0.68 0 0 Z " fill="#4167D0" transform="translate(58,15)"/>
<path d="M0 0 C4.75 0.75 4.75 0.75 7 3 C5.68 3.99 4.36 4.98 3 6 C3 5.34 3 4.68 3 4 C2.34 3.67 1.68 3.34 1 3 C0.67 2.01 0.34 1.02 0 0 Z " fill="#4B6FE2" transform="translate(64,15)"/>
</svg>
